<?xml version="1.0" encoding="UTF-8"?>
<svg version="1.1" xmlns="http://www.w3.org/2000/svg" width="1536" height="1024">
<path d="M0 0 C1.34094727 -0.00386719 1.34094727 -0.00386719 2.70898438 -0.0078125 C4.10020508 0.00378906 4.10020508 0.00378906 5.51953125 0.015625 C6.42767578 0.00789063 7.33582031 0.00015625 8.27148438 -0.0078125 C14.24612792 0.00929457 19.56031456 0.79352878 25.33203125 2.265625 C27.11084908 2.66522056 28.89086529 3.05950873 30.671875 3.44921875 C32.53781848 3.8669282 34.40370329 4.28489986 36.26953125 4.703125 C37.19443359 4.90744141 38.11933594 5.11175781 39.07226562 5.32226562 C47.3208376 7.17776079 55.42815115 9.2810507 63.20703125 12.640625 C67.66704573 14.55649283 67.66704573 14.55649283 72.1640625 16.3828125 C78.34885559 18.83642398 84.25835197 21.67574705 90.14453125 24.765625 C90.84989014 25.13333008 91.55524902 25.50103516 92.28198242 25.87988281 C96.91882352 28.35446924 101.08890474 31.16607283 105.33203125 34.265625 C107.06332477 35.24144499 108.79471131 36.21713874 110.53125 37.18359375 C113.21083159 38.79366772 115.64641621 40.68015135 118.12109375 42.5859375 C120.52699639 44.41374339 122.98964857 46.14681495 125.45703125 47.890625 C130.76969669 51.73003028 135.71827082 55.91849044 140.64892578 60.22900391 C143.14287639 62.40757028 145.57212571 64.42568797 148.33203125 66.265625 C148.33203125 66.925625 148.33203125 67.585625 148.33203125 68.265625 C148.88890625 68.513125 149.44578125 68.760625 150.01953125 69.015625 C152.75614038 70.49487318 155.00853994 72.20029939 157.33203125 74.265625 C157.33203125 74.925625 157.33203125 75.585625 157.33203125 76.265625 C158.32203125 76.595625 159.31203125 76.925625 160.33203125 77.265625 C160.33203125 77.925625 160.33203125 78.585625 160.33203125 79.265625 C160.99203125 79.265625 161.65203125 79.265625 162.33203125 79.265625 C162.33203125 79.925625 162.33203125 80.585625 162.33203125 81.265625 C162.90308594 81.51054687 163.47414063 81.75546875 164.0625 82.0078125 C170.67341911 85.67169538 175.76290969 92.65043582 180.625 98.34375 C182.96475314 100.97798009 185.48721607 103.40129417 188.046875 105.8203125 C189.33203125 107.265625 189.33203125 107.265625 189.33203125 109.265625 C190.32203125 109.595625 191.31203125 109.925625 192.33203125 110.265625 C194.12109375 112.0078125 194.12109375 112.0078125 195.95703125 114.140625 C196.87355469 115.18863281 196.87355469 115.18863281 197.80859375 116.2578125 C199.33203125 118.265625 199.33203125 118.265625 200.33203125 121.265625 C201.32203125 121.595625 202.31203125 121.925625 203.33203125 122.265625 C203.99869792 123.93229167 204.66536458 125.59895833 205.33203125 127.265625 C206.32203125 127.595625 207.31203125 127.925625 208.33203125 128.265625 C208.33203125 128.925625 208.33203125 129.585625 208.33203125 130.265625 C208.99203125 130.265625 209.65203125 130.265625 210.33203125 130.265625 C211.98828125 131.875 211.98828125 131.875 213.83203125 134.015625 C214.44046875 134.71171875 215.04890625 135.4078125 215.67578125 136.125 C217.21180088 138.11023292 218.30442785 139.98434545 219.33203125 142.265625 C219.99203125 142.265625 220.65203125 142.265625 221.33203125 142.265625 C222.78605467 143.9032522 224.17051803 145.60296696 225.51953125 147.328125 C228.20283515 150.68976813 230.8524151 153.91272788 233.95703125 156.890625 C237.32340502 160.12359934 240.07704755 163.69939987 242.8515625 167.4453125 C244.21740721 169.37986563 244.21740721 169.37986563 246.33203125 170.265625 C246.33203125 170.925625 246.33203125 171.585625 246.33203125 172.265625 C246.99203125 172.265625 247.65203125 172.265625 248.33203125 172.265625 C249.66224215 173.77789567 250.92230716 175.35231524 252.14453125 176.953125 C255.54217354 181.31097055 258.87815218 185.30252175 263.20703125 188.765625 C264.33203125 190.265625 264.33203125 190.265625 264.33203125 192.640625 C263.02065241 196.08299446 261.11133343 197.89304997 258.33203125 200.265625 C257.67203125 200.265625 257.01203125 200.265625 256.33203125 200.265625 C256.33203125 200.925625 256.33203125 201.585625 256.33203125 202.265625 C252.87049279 205.265625 252.87049279 205.265625 250.33203125 205.265625 C250.33203125 205.925625 250.33203125 206.585625 250.33203125 207.265625 C249.01203125 207.595625 247.69203125 207.925625 246.33203125 208.265625 C246.33203125 208.925625 246.33203125 209.585625 246.33203125 210.265625 C244.85424805 211.55908203 244.85424805 211.55908203 242.78125 213.0234375 C242.02497314 213.56299072 241.26869629 214.10254395 240.48950195 214.65844727 C239.67441162 215.23006592 238.85932129 215.80168457 238.01953125 216.390625 C236.36050558 217.56876895 234.70165098 218.74715383 233.04296875 219.92578125 C232.23311523 220.49828613 231.42326172 221.07079102 230.58886719 221.66064453 C227.74721438 223.6815257 224.9462654 225.75233037 222.14453125 227.828125 C218.31966724 230.61672448 214.46624944 232.96883712 210.33203125 235.265625 C208.97142035 236.17269893 207.61783999 237.09036359 206.26953125 238.015625 C182.66149726 253.83380266 156.27101582 263.53676836 128.33203125 268.265625 C127.40036133 268.4406958 126.46869141 268.6157666 125.50878906 268.79614258 C120.07564302 269.59908908 114.6107147 269.52949699 109.12915039 269.56079102 C107.72800594 269.57230372 106.3269051 269.59274486 104.92602539 269.62231445 C96.63654629 269.7967785 89.60553095 269.64645753 82.33203125 265.265625 C81.38328125 264.729375 80.43453125 264.193125 79.45703125 263.640625 C76.17631026 259.97393683 74.97406461 256.11194134 74.33203125 251.265625 C74.67784176 247.05728692 75.43581873 243.05805004 77.33203125 239.265625 C77.99203125 239.265625 78.65203125 239.265625 79.33203125 239.265625 C79.33203125 238.605625 79.33203125 237.945625 79.33203125 237.265625 C80.7578125 236.01171875 80.7578125 236.01171875 82.64453125 234.703125 C83.56685547 234.05150391 83.56685547 234.05150391 84.5078125 233.38671875 C88.22035539 231.10513458 91.27405483 231.18887062 95.51953125 231.265625 C98.45705092 231.27809854 101.39449733 231.27144651 104.33203125 231.265625 C105.22245117 231.2665918 106.11287109 231.26755859 107.03027344 231.26855469 C138.28070787 231.15103169 167.44233754 220.44036533 192.80078125 202.2265625 C194.33203125 201.265625 194.33203125 201.265625 196.33203125 201.265625 C196.33203125 200.605625 196.33203125 199.945625 196.33203125 199.265625 C198.30859375 197.93359375 198.30859375 197.93359375 200.95703125 196.453125 C205.14788439 194.03028803 208.73046089 191.48808269 212.33203125 188.265625 C209.39359348 184.62755919 206.44861983 181.2458873 202.83203125 178.265625 C200.39457836 176.25579542 198.34186083 174.20307789 196.33203125 171.765625 C194.33957782 169.35036978 192.31328918 167.31592383 189.89453125 165.328125 C187.37358655 163.25299483 185.24008762 161.09297897 183.13671875 158.59765625 C178.6057535 153.34909284 173.64910413 148.56510897 168.67773438 143.73828125 C167.98744141 143.05894531 167.29714844 142.37960937 166.5859375 141.6796875 C165.64729858 140.76630615 165.64729858 140.76630615 164.68969727 139.83447266 C163.33203125 138.265625 163.33203125 138.265625 163.33203125 136.265625 C162.53152344 135.95818359 162.53152344 135.95818359 161.71484375 135.64453125 C158.33265691 133.68729854 155.90165637 131.0059285 153.20703125 128.203125 C149.63649759 124.2611356 149.63649759 124.2611356 145.33203125 121.265625 C145.33203125 120.605625 145.33203125 119.945625 145.33203125 119.265625 C144.34203125 119.265625 143.35203125 119.265625 142.33203125 119.265625 C142.120625 120.48378906 141.90921875 121.70195312 141.69140625 122.95703125 C140.24705762 129.43506157 137.40330659 135.22683808 134.58203125 141.203125 C134.06898438 142.31880859 133.5559375 143.43449219 133.02734375 144.58398438 C129.84171926 151.41546804 126.30665893 157.8665577 122.33203125 164.265625 C121.69265625 165.4 121.05328125 166.534375 120.39453125 167.703125 C114.83038819 177.4516846 108.37277632 186.48761649 101.66796875 195.46826172 C100.46137319 197.09160903 99.27071724 198.72677432 98.08203125 200.36328125 C93.78312604 206.23476392 89.24581002 211.86102394 84.51953125 217.390625 C83.96797363 218.04289063 83.41641602 218.69515625 82.84814453 219.3671875 C82.32075684 219.975625 81.79336914 220.5840625 81.25 221.2109375 C80.78360107 221.75250488 80.31720215 222.29407227 79.83666992 222.85205078 C78.14093481 224.44515581 76.40781359 225.24296324 74.33203125 226.265625 C73.63051973 227.5809591 72.966772 228.91680092 72.33203125 230.265625 C70.33203125 232.515625 70.33203125 232.515625 68.33203125 234.265625 C67.67203125 234.265625 67.01203125 234.265625 66.33203125 234.265625 C66.33203125 234.925625 66.33203125 235.585625 66.33203125 236.265625 C62.87049279 239.265625 62.87049279 239.265625 60.33203125 239.265625 C60.33203125 239.925625 60.33203125 240.585625 60.33203125 241.265625 C58.94604492 242.57495117 58.94604492 242.57495117 57 244.05859375 C56.28972656 244.60290039 55.57945312 245.14720703 54.84765625 245.70800781 C54.079375 246.28389648 53.31109375 246.85978516 52.51953125 247.453125 C51.73707031 248.04319336 50.95460938 248.63326172 50.1484375 249.24121094 C35.22354757 260.40409272 19.19916377 269.74305677 1.33203125 275.265625 C0.21441406 275.63300781 0.21441406 275.63300781 -0.92578125 276.0078125 C-7.46679167 277.94098562 -14.62004694 278.39448493 -21.04296875 276.015625 C-26.22318153 272.56214982 -29.22630962 270.11730664 -31.66796875 264.265625 C-32.06640625 260.79296875 -32.06640625 260.79296875 -32.04296875 257.203125 C-32.05070312 256.01589844 -32.0584375 254.82867188 -32.06640625 253.60546875 C-31.49407489 248.80798527 -29.42030565 245.30756802 -25.66796875 242.265625 C-23.49609375 241.2734375 -23.49609375 241.2734375 -20.91796875 240.390625 C-19.45037109 239.87628906 -19.45037109 239.87628906 -17.953125 239.3515625 C-15.67833417 238.59961024 -13.39352005 237.87756724 -11.1015625 237.1796875 C7.4640633 231.41059836 23.39070866 220.31498434 37.37890625 206.9453125 C39.33203125 205.265625 39.33203125 205.265625 42.33203125 204.265625 C42.66203125 203.275625 42.99203125 202.285625 43.33203125 201.265625 C43.99203125 201.265625 44.65203125 201.265625 45.33203125 201.265625 C45.58984375 200.69328125 45.84765625 200.1209375 46.11328125 199.53125 C47.44569067 197.05433505 48.98259243 195.1315084 50.83203125 193.015625 C51.44046875 192.30921875 52.04890625 191.6028125 52.67578125 190.875 C54.33203125 189.265625 54.33203125 189.265625 56.33203125 189.265625 C56.60015625 188.70359375 56.86828125 188.1415625 57.14453125 187.5625 C58.41242915 185.11011854 59.82175467 182.82634817 61.33203125 180.515625 C62.10546875 179.31679688 62.10546875 179.31679688 62.89453125 178.09375 C63.36890625 177.49046875 63.84328125 176.8871875 64.33203125 176.265625 C64.99203125 176.265625 65.65203125 176.265625 66.33203125 176.265625 C66.59757813 175.5334375 66.863125 174.80125 67.13671875 174.046875 C68.32454805 171.28303689 69.67783219 169.18202558 71.45703125 166.765625 C85.22335436 147.40231631 109.33203125 112.91827925 109.33203125 88.265625 C107.92755217 86.81285986 107.92755217 86.81285986 105.9921875 85.515625 C105.26708984 84.99484375 104.54199219 84.4740625 103.79492188 83.9375 C103.00279297 83.38578125 102.21066406 82.8340625 101.39453125 82.265625 C100.58564453 81.69328125 99.77675781 81.1209375 98.94335938 80.53125 C82.27954583 68.81321035 82.27954583 68.81321035 64.33203125 59.265625 C63.37683594 58.79898438 62.42164063 58.33234375 61.4375 57.8515625 C43.12590338 49.04573922 23.33219542 42.75900118 3.14331055 40.34106445 C-1.96586449 39.69424739 -6.02545557 38.5154105 -10.66796875 36.265625 C-10.66796875 35.605625 -10.66796875 34.945625 -10.66796875 34.265625 C-11.26609375 34.018125 -11.86421875 33.770625 -12.48046875 33.515625 C-16.02554879 31.48986498 -17.39461594 29.08568344 -18.66796875 25.265625 C-19.23857324 18.98897559 -18.9640775 13.79458161 -15.66796875 8.265625 C-11.16157576 3.55241688 -6.7083109 0.01887956 0 0 Z " fill="#E47858" transform="translate(523.66796875,368.734375)"/>
<path d="M0 0 C0.96421875 -0.0309375 1.9284375 -0.061875 2.921875 -0.09375 C11.12436442 1.36960492 17.51104753 7.03812149 23.6875 12.3125 C25.16749712 13.55524939 26.64796391 14.79743966 28.12890625 16.0390625 C28.83418457 16.63364258 29.53946289 17.22822266 30.26611328 17.84082031 C33.579599 20.61198065 36.97075026 23.28058949 40.3671875 25.94921875 C42.1195446 27.39255022 43.75353095 28.79176646 45.25 30.5 C45.25 31.16 45.25 31.82 45.25 32.5 C45.889375 32.768125 46.52875 33.03625 47.1875 33.3125 C49.25 34.5 49.25 34.5 50.25 37.5 C51.24 37.83 52.23 38.16 53.25 38.5 C57.25 42.95714286 57.25 42.95714286 57.25 45.5 C58.24 45.83 59.23 46.16 60.25 46.5 C70.91978558 58.55383796 79.82339585 74.41994698 85.25 89.5 C85.75660156 90.84771484 85.75660156 90.84771484 86.2734375 92.22265625 C90.62275921 106.08861309 90.23283004 124.27011095 84.25 137.5 C83.775625 138.57121094 83.30125 139.64242187 82.8125 140.74609375 C74.28287601 158.15390809 59.4369215 170.22987689 41.2421875 176.546875 C40.25476563 176.86140625 39.26734375 177.1759375 38.25 177.5 C37.36570312 177.79390625 36.48140625 178.0878125 35.5703125 178.390625 C33.14335098 179.16180903 30.70938277 179.84030561 28.25 180.5 C27.58258789 180.68449707 26.91517578 180.86899414 26.22753906 181.05908203 C18.40106912 182.92057999 10.59075832 182.76890898 2.59692383 182.70581055 C0.16151696 182.68730254 -2.2735138 182.68530306 -4.70898438 182.68554688 C-6.25521165 182.68063968 -7.80143635 182.67481488 -9.34765625 182.66796875 C-10.0767067 182.66685593 -10.80575714 182.6657431 -11.55690002 182.66459656 C-16.63386477 182.61613523 -16.63386477 182.61613523 -17.75 181.5 C-19.72655577 181.26820107 -21.70664568 181.0666237 -23.6875 180.875 C-61.73765432 176.33438617 -95.65076219 157.13495065 -125.96337891 134.79345703 C-127.53215132 133.65771554 -129.13853624 132.57430917 -130.75 131.5 C-130.75 130.84 -130.75 130.18 -130.75 129.5 C-131.74 129.17 -132.73 128.84 -133.75 128.5 C-133.75 127.84 -133.75 127.18 -133.75 126.5 C-134.348125 126.21125 -134.94625 125.9225 -135.5625 125.625 C-137.75 124.5 -137.75 124.5 -140.75 122.5 C-141.25 120.1875 -141.25 120.1875 -140.75 117.5 C-137.03456232 113.42971715 -132.82876123 109.92385948 -128.625 106.375 C-127.39224083 105.33189608 -126.16043649 104.28766245 -124.9296875 103.2421875 C-124.39069824 102.7869873 -123.85170898 102.33178711 -123.29638672 101.86279297 C-121.70305957 100.50125655 -121.70305957 100.50125655 -120.2019043 98.85546875 C-118.75 97.5 -118.75 97.5 -116.33984375 97.0703125 C-112.92531103 97.63682622 -111.74644873 98.93683299 -109.3125 101.375 C-91.83077097 117.87402829 -68.86947943 131.03023615 -45.78515625 137.58984375 C-42.75 138.5 -42.75 138.5 -41.75 139.5 C-39.55000167 140.0160854 -37.33948324 140.48761025 -35.125 140.9375 C-31.41666716 141.70229701 -27.85568939 142.46602841 -24.25 143.625 C-15.41417733 145.83395567 -5.82974177 145.78586893 3.25 145.5 C4.30574219 145.48324219 5.36148438 145.46648437 6.44921875 145.44921875 C19.31374419 144.94501003 32.71854596 141.68184472 42.25 132.5 C47.67996986 125.35868893 50.30829749 116.46245688 49.25 107.5 C48.50473438 104.06479129 47.42713509 100.80948636 46.25 97.5 C45.95609375 96.59507812 45.6621875 95.69015625 45.359375 94.7578125 C42.07313503 85.70839049 36.4669302 78.65884647 30.49926758 71.23242188 C29.25 69.5 29.25 69.5 28.2722168 67.34570312 C27.32824934 65.15014234 27.32824934 65.15014234 24.25 64.5 C24.25 63.84 24.25 63.18 24.25 62.5 C23.26 62.17 22.27 61.84 21.25 61.5 C21.25 60.84 21.25 60.18 21.25 59.5 C20.59 59.5 19.93 59.5 19.25 59.5 C19.25 58.84 19.25 58.18 19.25 57.5 C18.65316406 57.23445312 18.05632812 56.96890625 17.44140625 56.6953125 C15.18482913 55.46445225 13.90638538 54.2653343 12.1875 52.375 C6.94095701 46.97150914 0.72607912 42.83710852 -5.50390625 38.6484375 C-16.79460387 31.00912793 -16.79460387 31.00912793 -18.37109375 25.21875 C-19.27834995 19.15790443 -18.56305857 13.9638253 -15.75 8.5 C-11.3820089 3.21243182 -6.95587563 0.07360715 0 0 Z " fill="#EBA795" transform="translate(919.75,473.5)"/>
<path d="M0 0 C6.01905414 0.12848244 9.62159607 1.40861594 14.06005859 5.65893555 C15.94284371 7.86395772 17.469926 9.87497188 18.65771484 12.5300293 C19.04958984 13.3137793 19.44146484 14.0975293 19.84521484 14.9050293 C21.19473106 19.26500476 21.60973335 22.64828033 19.48974609 26.83862305 C15.26422863 33.45389332 11.30310474 37.34322911 3.65771484 39.5300293 C-0.09976015 40.22211728 -3.87701954 40.77349595 -7.65478516 41.3425293 C-17.8615583 42.97025398 -27.57462588 45.16022269 -37.34228516 48.5300293 C-38.03821777 48.77011719 -38.73415039 49.01020508 -39.45117188 49.25756836 C-47.69589981 52.14708461 -55.62021411 55.42341554 -63.34228516 59.5300293 C-64.23431641 59.96573242 -65.12634766 60.40143555 -66.04541016 60.8503418 C-81.65655969 68.80388954 -96.33360235 78.24596419 -110.12353516 89.0300293 C-113.15569734 91.39890601 -116.24452385 93.68496834 -119.34228516 95.9675293 C-124.80888799 100.05127608 -130.0007057 104.3965123 -135.17822266 108.8347168 C-138.08784965 111.32640589 -141.05071664 113.74659926 -144.02978516 116.1550293 C-149.29635225 120.44034371 -154.31730818 124.9665298 -159.34228516 129.5300293 C-166.00895182 135.5300293 -166.00895182 135.5300293 -168.34228516 135.5300293 C-168.34228516 136.1900293 -168.34228516 136.8500293 -168.34228516 137.5300293 C-169.00228516 137.5300293 -169.66228516 137.5300293 -170.34228516 137.5300293 C-170.67228516 138.5200293 -171.00228516 139.5100293 -171.34228516 140.5300293 C-173.08447266 142.0300293 -173.08447266 142.0300293 -175.21728516 143.5300293 C-177.30452434 145.0088113 -179.19469039 146.37749117 -180.97509766 148.2175293 C-182.34228516 149.5300293 -182.34228516 149.5300293 -184.34228516 149.5300293 C-184.67228516 150.5200293 -185.00228516 151.5100293 -185.34228516 152.5300293 C-187.11962891 154.35424805 -187.11962891 154.35424805 -189.27978516 156.2175293 C-190.34519531 157.15145508 -190.34519531 157.15145508 -191.43212891 158.10424805 C-193.34228516 159.5300293 -193.34228516 159.5300293 -195.34228516 159.5300293 C-195.34228516 160.1900293 -195.34228516 160.8500293 -195.34228516 161.5300293 C-196.80322266 163.0378418 -196.80322266 163.0378418 -198.71728516 164.6550293 C-199.34376953 165.19385742 -199.97025391 165.73268555 -200.61572266 166.2878418 C-202.34228516 167.5300293 -202.34228516 167.5300293 -204.34228516 167.5300293 C-204.34228516 168.1900293 -204.34228516 168.8500293 -204.34228516 169.5300293 C-207.80382362 172.5300293 -207.80382362 172.5300293 -210.34228516 172.5300293 C-210.67228516 173.5200293 -211.00228516 174.5100293 -211.34228516 175.5300293 C-212.00228516 175.8600293 -212.66228516 176.1900293 -213.34228516 176.5300293 C-213.67228516 177.5200293 -214.00228516 178.5100293 -214.34228516 179.5300293 C-219.71371373 183.5300293 -219.71371373 183.5300293 -222.34228516 183.5300293 C-222.34228516 184.1900293 -222.34228516 184.8500293 -222.34228516 185.5300293 C-226.63035389 185.05357722 -228.60876002 183.87100446 -231.34228516 180.5300293 C-231.34228516 179.8700293 -231.34228516 179.2100293 -231.34228516 178.5300293 C-232.33228516 178.2000293 -233.32228516 177.8700293 -234.34228516 177.5300293 C-234.34228516 176.8700293 -234.34228516 176.2100293 -234.34228516 175.5300293 C-235.33228516 175.2000293 -236.32228516 174.8700293 -237.34228516 174.5300293 C-237.34228516 173.8700293 -237.34228516 173.2100293 -237.34228516 172.5300293 C-238.00228516 172.5300293 -238.66228516 172.5300293 -239.34228516 172.5300293 C-239.34228516 171.8700293 -239.34228516 171.2100293 -239.34228516 170.5300293 C-240.33228516 170.2000293 -241.32228516 169.8700293 -242.34228516 169.5300293 C-242.34228516 168.8700293 -242.34228516 168.2100293 -242.34228516 167.5300293 C-242.94041016 167.2619043 -243.53853516 166.9937793 -244.15478516 166.7175293 C-246.41801876 165.48891677 -247.85769093 164.63971583 -249.34228516 162.5300293 C-249.34228516 159.0367208 -248.55159409 157.75202362 -246.15087891 155.20581055 C-243.27048846 152.46162772 -240.35333071 149.76291902 -237.40478516 147.0925293 C-234.09345471 144.08540393 -230.82338572 141.06367062 -227.71728516 137.8425293 C-225.34228516 135.5300293 -225.34228516 135.5300293 -223.34228516 135.5300293 C-223.34228516 134.8700293 -223.34228516 134.2100293 -223.34228516 133.5300293 C-221.96728516 131.9050293 -221.96728516 131.9050293 -220.34228516 130.5300293 C-219.68228516 130.5300293 -219.02228516 130.5300293 -218.34228516 130.5300293 C-218.34228516 129.8700293 -218.34228516 129.2100293 -218.34228516 128.5300293 C-217.68228516 128.5300293 -217.02228516 128.5300293 -216.34228516 128.5300293 C-216.01550781 127.69665039 -216.01550781 127.69665039 -215.68212891 126.84643555 C-213.92363759 123.80624501 -211.51743943 121.75175437 -208.90478516 119.4675293 C-204.6704439 115.68457754 -200.57983405 111.8233481 -196.59228516 107.7800293 C-184.99314108 96.0803146 -184.99314108 96.0803146 -180.34228516 94.5300293 C-180.34228516 93.8700293 -180.34228516 93.2100293 -180.34228516 92.5300293 C-178.64954232 90.96570143 -176.88658663 89.47674358 -175.09228516 88.0300293 C-174.11775391 87.2359668 -173.14322266 86.4419043 -172.13916016 85.6237793 C-169.89333754 83.94254896 -167.89570486 82.64867031 -165.34228516 81.5300293 C-165.34228516 80.8700293 -165.34228516 80.2100293 -165.34228516 79.5300293 C-163.76806641 78.19799805 -163.76806641 78.19799805 -161.65478516 76.7175293 C-159.21467449 74.95025892 -157.10528601 73.29303015 -154.96728516 71.1550293 C-144.23994308 60.42768723 -130.72717408 50.99169942 -117.81494141 43.06518555 C-114.53264207 41.02735989 -111.37579472 38.82016562 -108.21728516 36.59643555 C-106.34228516 35.5300293 -106.34228516 35.5300293 -103.34228516 35.5300293 C-103.34228516 34.8700293 -103.34228516 34.2100293 -103.34228516 33.5300293 C-93.75917825 28.67202903 -84.10431435 24.01650461 -74.34228516 19.5300293 C-73.55595703 19.16135742 -72.76962891 18.79268555 -71.95947266 18.4128418 C-53.63020042 9.97998271 -33.33534209 3.12498589 -13.13525391 1.7409668 C-8.87456419 1.23970918 -4.73490997 0.06070397 0 0 Z " fill="#EBA694" transform="translate(1023.34228515625,368.469970703125)"/>
<path d="M0 0 C1.03125 0.515625 2.0625 1.03125 3.125 1.5625 C10.88221267 8.13926726 16.19442009 16.67840031 17.30859375 26.8046875 C17.72429201 36.50431363 15.63902446 45.30491375 9.375 52.875 C2.41592098 60.01550752 -6.10485451 64.86076857 -16.1875 65.3125 C-26.43835439 64.99816375 -34.6690376 62.26060767 -42 55 C-50.26635487 46.1696638 -52.57371685 38.32877047 -52.2890625 26.30859375 C-51.48351679 17.08836115 -46.6731859 10.19652977 -40 4 C-38.63875 2.700625 -38.63875 2.700625 -37.25 1.375 C-26.86499254 -6.91731074 -11.21790635 -6.04367355 0 0 Z " fill="#E57858" transform="translate(788,390)"/>
<path d="M0 0 C0.66 0.33 1.32 0.66 2 1 C-0.97 3.97 -3.94 6.94 -7 10 C-7 7 -7 7 -4.625 4.4375 C-3.75875 3.633125 -2.8925 2.82875 -2 2 C-1.34 1.34 -0.68 0.68 0 0 Z " fill="#F0BCAF" transform="translate(911,475)"/>
</svg>
