<?xml version="1.0" encoding="UTF-8"?>
<svg version="1.1" xmlns="http://www.w3.org/2000/svg" width="1536" height="1024">
<path d="M0 0 C506.88 0 1013.76 0 1536 0 C1536 337.92 1536 675.84 1536 1024 C1029.12 1024 522.24 1024 0 1024 C0 686.08 0 348.16 0 0 Z " fill="#BE5D43" transform="translate(0,0)"/>
<path d="M0 0 C0.79994385 0.00008057 1.5998877 0.00016113 2.42407227 0.00024414 C10.85550723 0.07952617 19.77098985 0.50699662 27.8125 3.1875 C27.8125 3.8475 27.8125 4.5075 27.8125 5.1875 C28.84375 5.249375 29.875 5.31125 30.9375 5.375 C39.36917723 6.41576159 47.61497206 9.77725003 54.8125 14.1875 C56.48466385 14.91150315 58.1726611 15.60011173 59.875 16.25 C62.94426801 17.4275774 65.89440513 18.67116895 68.8125 20.1875 C68.8125 20.8475 68.8125 21.5075 68.8125 22.1875 C69.59625 22.373125 70.38 22.55875 71.1875 22.75 C75.29659952 24.3794705 78.40190826 26.54403148 81.96484375 29.12890625 C84.52767147 30.98159515 87.12724872 32.7670032 89.74633789 34.53881836 C94.69477674 37.89992775 99.40082837 41.37140851 103.82421875 45.41015625 C106.06329766 47.41169044 108.39697479 49.25880759 110.75 51.125 C132.41172716 68.796409 151.71038007 89.90748064 168.5390625 112.19140625 C170.65190371 114.97585507 172.80944384 117.71399244 175 120.4375 C175.63164063 121.22898437 176.26328125 122.02046875 176.9140625 122.8359375 C178.22478972 124.4595132 179.55421272 126.06811023 180.8984375 127.6640625 C181.55070313 128.45554687 182.20296875 129.24703125 182.875 130.0625 C183.46410156 130.76117188 184.05320312 131.45984375 184.66015625 132.1796875 C185.8125 134.1875 185.8125 134.1875 185.67578125 136.21875 C180.54146586 147.92777695 165.96060957 157.19292669 155.8125 164.1875 C154.94753906 164.79078125 154.08257813 165.3940625 153.19140625 166.015625 C147.09929907 170.1875 147.09929907 170.1875 144.8125 170.1875 C144.8125 170.8475 144.8125 171.5075 144.8125 172.1875 C141.8425 173.1775 138.8725 174.1675 135.8125 175.1875 C135.8125 175.8475 135.8125 176.5075 135.8125 177.1875 C135.16023437 177.44144531 134.50796875 177.69539062 133.8359375 177.95703125 C130.03450481 179.45405563 126.31532041 180.92603339 122.6875 182.8125 C117.8523259 185.12497457 113.2064759 186.1875 107.8125 186.1875 C107.8125 186.8475 107.8125 187.5075 107.8125 188.1875 C96.24780181 190.83704901 85.36318294 192.26463223 73.5 192.4375 C72.62714355 192.45901123 71.75428711 192.48052246 70.85498047 192.50268555 C66.00317062 192.52749222 62.74358373 192.36142947 58.8125 189.1875 C55.94859255 185.73105997 55.25997462 182.68393708 55.47265625 178.18359375 C56.07469191 174.64749922 57.35930439 172.7633554 59.8125 170.1875 C65.46634835 168.41530675 70.79189742 167.83677642 76.6875 167.625 C78.26570181 167.5537651 79.84382909 167.48085863 81.421875 167.40625 C82.17404297 167.37144531 82.92621094 167.33664062 83.70117188 167.30078125 C87.75630092 167.08320726 91.77835785 166.64296766 95.8125 166.1875 C95.8125 165.5275 95.8125 164.8675 95.8125 164.1875 C96.68390625 163.95675781 97.5553125 163.72601563 98.453125 163.48828125 C105.74457389 161.4918131 112.56589708 159.21139327 119.484375 156.140625 C121.8125 155.1875 121.8125 155.1875 123.8125 155.1875 C123.8125 154.5275 123.8125 153.8675 123.8125 153.1875 C125.51887126 152.09530138 127.28154914 151.09082335 129.0625 150.125 C136.43979408 145.9544632 143.79580735 141.20419265 149.8125 135.1875 C149.48904223 131.6219423 147.72826067 129.51593841 145.5 126.8125 C144.778125 125.9359375 144.05625 125.059375 143.3125 124.15625 C142.4875 123.1765625 141.6625 122.196875 140.8125 121.1875 C140.35875 120.64738281 139.905 120.10726562 139.4375 119.55078125 C129.80428419 108.11133748 119.80158305 97.10097744 109.25 86.5 C108.54649414 85.79182129 107.84298828 85.08364258 107.11816406 84.35400391 C106.45913086 83.69706543 105.80009766 83.04012695 105.12109375 82.36328125 C104.23635376 81.48023315 104.23635376 81.48023315 103.33374023 80.5793457 C101.84491169 79.08961468 101.84491169 79.08961468 99.8125 78.1875 C99.71066406 79.321875 99.60882812 80.45625 99.50390625 81.625 C98.90578854 86.40994167 97.43079299 90.68718652 95.75 95.1875 C95.46833984 95.96222656 95.18667969 96.73695313 94.89648438 97.53515625 C94.20929702 99.42200967 93.51195987 101.30516151 92.8125 103.1875 C92.1525 103.1875 91.4925 103.1875 90.8125 103.1875 C90.60109375 104.4559375 90.3896875 105.724375 90.171875 107.03125 C88.86830437 112.87673514 86.10891787 117.5828925 83.0625 122.6875 C82.29292969 124.01587891 82.29292969 124.01587891 81.5078125 125.37109375 C76.87241827 133.3025095 71.87514122 140.92762506 66.30078125 148.23046875 C65.3249986 149.51358452 64.36342145 150.80765609 63.41796875 152.11328125 C53.83818831 165.28218053 42.32007841 177.08785684 28.8125 186.1875 C27.89210938 186.81785156 26.97171875 187.44820312 26.0234375 188.09765625 C19.22233664 192.60937246 12.16934018 197.1875 3.8125 197.1875 C3.8125 197.8475 3.8125 198.5075 3.8125 199.1875 C-0.21206027 200.12503961 -4.058323 200.41545866 -8.1875 200.5 C-9.981875 200.55607422 -9.981875 200.55607422 -11.8125 200.61328125 C-15.82106377 200.10757124 -17.34896479 199.00069114 -20.1875 196.1875 C-22.67457739 192.45688392 -22.59200596 189.50223022 -22.1875 185.1875 C-21.37942816 182.08989128 -20.93685203 180.71204642 -18.3125 178.875 C-16.1875 178.1875 -16.1875 178.1875 -12.1875 178.1875 C-12.1875 177.5275 -12.1875 176.8675 -12.1875 176.1875 C-11.30191406 175.96578125 -10.41632812 175.7440625 -9.50390625 175.515625 C16.61564585 168.01406789 36.41399504 145.37937175 50.1953125 122.828125 C51.29998603 121.02435856 52.44273808 119.24350703 53.6171875 117.484375 C57.93433596 110.99938805 60.99608679 104.43801829 63.8125 97.1875 C64.1425 96.5275 64.4725 95.8675 64.8125 95.1875 C65.4725 95.1875 66.1325 95.1875 66.8125 95.1875 C66.94527344 94.57261719 67.07804688 93.95773437 67.21484375 93.32421875 C67.39144531 92.51597656 67.56804687 91.70773437 67.75 90.875 C67.92402344 90.07449219 68.09804688 89.27398437 68.27734375 88.44921875 C68.8125 86.1875 68.8125 86.1875 69.8125 83.1875 C70.4725 83.1875 71.1325 83.1875 71.8125 83.1875 C71.94527344 82.51203125 72.07804688 81.8365625 72.21484375 81.140625 C72.39144531 80.24859375 72.56804687 79.3565625 72.75 78.4375 C72.92402344 77.55578125 73.09804688 76.6740625 73.27734375 75.765625 C73.73618488 73.55514947 74.24586074 71.37237932 74.8125 69.1875 C75.4725 69.1875 76.1325 69.1875 76.8125 69.1875 C77.16286606 65.78765156 77.35533543 62.57223858 76.8125 59.1875 C73.96519289 56.62069686 73.96519289 56.62069686 70.8125 55.1875 C70.8125 54.5275 70.8125 53.8675 70.8125 53.1875 C70.23000488 53.06673096 69.64750977 52.94596191 69.04736328 52.8215332 C66.74122041 52.1672779 65.08766337 51.30059529 63.0546875 50.04296875 C62.35077881 49.61483887 61.64687012 49.18670898 60.92163086 48.74560547 C60.18436768 48.29330566 59.44710449 47.84100586 58.6875 47.375 C52.58639717 43.69753373 46.61051654 40.42566761 39.8125 38.1875 C39.8125 37.5275 39.8125 36.8675 39.8125 36.1875 C38.554375 35.94 37.29625 35.6925 36 35.4375 C31.31745325 34.40675071 26.95572779 32.83135218 22.4765625 31.140625 C18.96358454 29.88378245 15.4491929 29.01090217 11.8125 28.1875 C11.8125 27.5275 11.8125 26.8675 11.8125 26.1875 C10.58273437 26.07792969 9.35296875 25.96835937 8.0859375 25.85546875 C6.45306405 25.69593514 4.82025474 25.53574407 3.1875 25.375 C2.37925781 25.30474609 1.57101562 25.23449219 0.73828125 25.16210938 C-4.75641475 24.60370531 -9.69985814 23.81153998 -13.68359375 19.609375 C-15.51460011 16.35762926 -16.18292442 14.44830822 -16.25 10.625 C-14.92550766 6.33987772 -13.30634645 4.38241588 -10.1875 1.1875 C-6.98329579 -0.4146021 -3.51756795 -0.00325935 0 0 Z " fill="#FEFAFA" transform="translate(589.1875,300.8125)"/>
<path d="M0 0 C0.96808594 -0.00257813 1.93617188 -0.00515625 2.93359375 -0.0078125 C5.5625 0.125 5.5625 0.125 8.5625 1.125 C8.5625 1.785 8.5625 2.445 8.5625 3.125 C9.42488281 3.36089844 10.28726563 3.59679687 11.17578125 3.83984375 C14.90342986 5.25437246 17.68485096 7.21326258 20.75 9.6875 C21.31243408 10.13222656 21.87486816 10.57695312 22.4543457 11.03515625 C23.60818943 11.95055953 24.75884716 12.86999332 25.90625 13.79345703 C27.42890897 15.01759943 28.9638973 16.2263641 30.5 17.43359375 C48.2376493 31.56828303 66.19374488 51.07206235 70.5625 74.125 C70.84121777 76.88252692 70.8955228 79.60474244 70.875 82.375 C70.87306641 83.4721936 70.87306641 83.4721936 70.87109375 84.59155273 C70.75823281 91.04226092 69.55078746 96.98261196 67.5625 103.125 C66.9025 103.125 66.2425 103.125 65.5625 103.125 C65.35625 103.970625 65.15 104.81625 64.9375 105.6875 C61.62517694 113.96830765 54.86952658 118.44665018 47.5625 123.125 C46.88316406 123.56328125 46.20382812 124.0015625 45.50390625 124.453125 C42.16682349 126.49125727 40.57902971 127.125 36.5625 127.125 C36.5625 127.785 36.5625 128.445 36.5625 129.125 C17.31296407 134.46150501 -6.48168522 134.61867962 -25.4375 128.125 C-28.05260076 127.37870304 -30.68161905 126.68831188 -33.3125 126 C-34.00085938 125.81824219 -34.68921875 125.63648438 -35.3984375 125.44921875 C-37.0776708 125.00608774 -38.75752206 124.56529956 -40.4375 124.125 C-40.4375 123.465 -40.4375 122.805 -40.4375 122.125 C-41.01757812 122.02703125 -41.59765625 121.9290625 -42.1953125 121.828125 C-47.53401522 120.80619511 -50.94214897 119.2813103 -55.4375 116.125 C-58.07142283 114.98795135 -60.72204292 114.06136451 -63.4375 113.125 C-63.4375 112.465 -63.4375 111.805 -63.4375 111.125 C-64.55125 110.939375 -64.55125 110.939375 -65.6875 110.75 C-68.26680049 110.16379534 -70.1857162 109.49215445 -72.4375 108.125 C-72.9325 107.135 -72.9325 107.135 -73.4375 106.125 C-74.571875 105.609375 -75.70625 105.09375 -76.875 104.5625 C-81.68020568 102.27184639 -85.1685421 98.93458422 -89.02734375 95.3203125 C-92.00034023 92.61233191 -95.10662039 90.36972321 -98.4375 88.125 C-97.94811681 83.85038761 -95.48007174 81.79948934 -92.5 78.875 C-91.60410156 77.98296875 -90.70820312 77.0909375 -89.78515625 76.171875 C-87.4375 74.125 -87.4375 74.125 -85.4375 74.125 C-85.4375 73.465 -85.4375 72.805 -85.4375 72.125 C-83.75 70.4375 -83.75 70.4375 -81.4375 69.125 C-77.1900127 69.45922851 -75.23677399 70.87055564 -72.25 73.8125 C-68.24078999 77.57197807 -64.12413784 80.27444239 -59.30859375 82.8984375 C-58.69113281 83.30320312 -58.07367187 83.70796875 -57.4375 84.125 C-57.4375 84.785 -57.4375 85.445 -57.4375 86.125 C-56.61507812 86.36347656 -55.79265625 86.60195313 -54.9453125 86.84765625 C-50.79413239 88.35927752 -47.15473891 90.40533931 -43.3125 92.5625 C-36.53765131 96.27683604 -30.11618321 98.83782189 -22.4375 100.125 C-22.4375 100.785 -22.4375 101.445 -22.4375 102.125 C-12.57629236 103.62561855 -2.85436564 104.33815311 7.125 104.375 C8.13498047 104.38402344 9.14496094 104.39304687 10.18554688 104.40234375 C17.68995177 104.37246556 24.58729595 103.93218323 30.9375 99.5 C34.38330925 97.125 34.38330925 97.125 36.5625 97.125 C37.25024405 95.80241528 37.90961373 94.46513497 38.5625 93.125 C39.09875 92.155625 39.635 91.18625 40.1875 90.1875 C43.6168413 82.0928619 41.78416313 72.31738278 39.5625 64.125 C38.9025 64.125 38.2425 64.125 37.5625 64.125 C37.15 63.073125 36.7375 62.02125 36.3125 60.9375 C28.51130774 45.4446059 11.3148765 33.68466093 -2.7019043 24.27124023 C-6.61065693 21.60753503 -9.83521901 19.17372652 -12.4375 15.125 C-13.35575498 8.69721516 -13.35575498 8.69721516 -11.37890625 5.3125 C-7.72449273 0.80141387 -5.61255438 -0.01490718 0 0 Z " fill="#FDFAF9" transform="translate(870.4375,375.875)"/>
<path d="M0 0 C5.68361738 4.41269738 10.12431572 8.29007002 13 15 C13 15.66 13 16.32 13 17 C13.66 17 14.32 17 15 17 C17.10404157 23.02824609 17.30172205 28.52180769 17.25 34.875 C17.26160156 36.28845703 17.26160156 36.28845703 17.2734375 37.73046875 C17.25669481 43.78295227 16.5162578 49.13954326 15 55 C14.34 55 13.68 55 13 55 C12.79375 55.845625 12.5875 56.69125 12.375 57.5625 C9.19749579 65.50626052 3.09842928 69.65618506 -4 74 C-4.845625 74.5775 -5.69125 75.155 -6.5625 75.75 C-13.18887779 79.14814246 -20.08759443 79.33890364 -27.375 79.3125 C-28.25671875 79.32861328 -29.1384375 79.34472656 -30.046875 79.36132812 C-37.08436172 79.36648757 -43.65910272 78.17044864 -50 75 C-50 74.34 -50 73.68 -50 73 C-52.33214148 71.79371992 -54.49642139 70.8345262 -57 70 C-56.96072388 71.748573 -56.96072388 71.748573 -56.9206543 73.5324707 C-56.83021038 77.85405309 -56.77277234 82.17555176 -56.7253418 86.49780273 C-56.70018422 88.36903954 -56.66605407 90.24017795 -56.62280273 92.11108398 C-56.56220323 94.79956303 -56.53380397 97.48674436 -56.51171875 100.17578125 C-56.48591232 101.01337479 -56.4601059 101.85096832 -56.43351746 102.71394348 C-56.43237305 105.0793457 -56.43237305 105.0793457 -57 109 C-61.28891461 112.62646321 -64.62467793 112.42661286 -70 112 C-72.81009519 110.99124788 -73.66697708 110.66604583 -75 108 C-75.10831415 105.62229021 -75.1573016 103.27342457 -75.16113281 100.89501953 C-75.16609772 100.16297806 -75.17106262 99.43093658 -75.17617798 98.67671204 C-75.19082452 96.24540268 -75.19760976 93.81415881 -75.203125 91.3828125 C-75.20887945 89.68805948 -75.21463715 87.99330647 -75.22039795 86.29855347 C-75.23091845 82.73581642 -75.23675258 79.17310197 -75.24023438 75.61035156 C-75.24568655 71.07363843 -75.26963908 66.5372304 -75.29820633 62.00061226 C-75.31696509 58.49328791 -75.32204554 54.98603464 -75.32357025 51.4786644 C-75.32657337 49.80833158 -75.33452148 48.13799931 -75.34775543 46.46771622 C-75.43212158 34.98941401 -75.39973771 23.9953788 -69 14 C-68.38125 13.01 -67.7625 12.02 -67.125 11 C-64.97791649 7.96882328 -62.76654965 5.4753339 -60 3 C-59.34 3 -58.68 3 -58 3 C-57.67 2.01 -57.34 1.02 -57 0 C-40.2787184 -11.64271054 -16.73864472 -11.19872395 0 0 Z " fill="#FBFAF9" transform="translate(1052,575)"/>
<path d="M0 0 C6.47612325 -0.11874415 10.01269932 0.8350637 14.73046875 5.32421875 C16.31974961 7.30914337 17.60633171 9.242047 18.92578125 11.40625 C21.52840591 15.67020851 24.52995634 19.47766047 27.70703125 23.32421875 C36.58203125 34.10723472 36.58203125 34.10723472 36.58203125 37.63671875 C37.24203125 37.63671875 37.90203125 37.63671875 38.58203125 37.63671875 C39.96455373 39.60303749 41.2892543 41.61026729 42.58203125 43.63671875 C43.9846784 45.54294787 45.4017603 47.43862773 46.83203125 49.32421875 C50.62634772 54.34149673 54.31782044 59.42119682 57.953125 64.5546875 C59.41759877 66.73320316 59.41759877 66.73320316 61.58203125 67.63671875 C61.65292969 67.10175781 61.72382812 66.56679688 61.796875 66.015625 C62.89535971 62.68738027 64.97719594 60.26811793 67.14453125 57.57421875 C68.0598265 56.41242847 68.97387148 55.2496522 69.88671875 54.0859375 C70.57072754 53.21654541 70.57072754 53.21654541 71.26855469 52.32958984 C73.16100791 49.89050608 74.96694174 47.39267162 76.76953125 44.88671875 C79.68490982 40.84374887 82.69294346 36.89622995 85.78125 32.984375 C88.59638209 29.3143221 91.23514159 25.51860983 93.8828125 21.7265625 C94.44355469 21.03691406 95.00429688 20.34726562 95.58203125 19.63671875 C96.24203125 19.63671875 96.90203125 19.63671875 97.58203125 19.63671875 C97.87078125 18.87359375 98.15953125 18.11046875 98.45703125 17.32421875 C99.58203125 14.63671875 99.58203125 14.63671875 101.58203125 11.63671875 C102.24203125 11.63671875 102.90203125 11.63671875 103.58203125 11.63671875 C103.85015625 10.72921875 104.11828125 9.82171875 104.39453125 8.88671875 C105.49177295 5.88374147 106.42822361 3.962831 108.58203125 1.63671875 C111.66501176 0.60905858 113.91333551 0.47073137 117.14453125 0.44921875 C118.11519531 0.43503906 119.08585938 0.42085937 120.0859375 0.40625 C122.58203125 0.63671875 122.58203125 0.63671875 124.58203125 2.63671875 C125.5633929 5.55358165 125.70941529 8.24896397 125.71574402 11.3115387 C125.72214149 12.71424011 125.72214149 12.71424011 125.72866821 14.14527893 C125.72821503 15.16411667 125.72776184 16.18295441 125.72729492 17.23266602 C125.73065353 18.31107758 125.73401215 19.38948914 125.73747253 20.50057983 C125.74697804 24.06810657 125.74892524 27.63558638 125.75 31.203125 C125.75321209 33.67886881 125.75657613 36.15461243 125.76008606 38.63035583 C125.76607578 43.81957439 125.76792604 49.00877628 125.76733398 54.19799805 C125.7672322 60.85864132 125.78090235 67.51914127 125.79810619 74.17976475 C125.80920297 79.29172764 125.81125393 84.40366464 125.81072426 89.51563835 C125.81190719 91.97211003 125.81634641 94.42858232 125.82405663 96.88504219 C125.83381265 100.31349351 125.83099616 103.74171123 125.82495117 107.17016602 C125.83057068 108.19102798 125.83619019 109.21188995 125.84197998 110.26368713 C125.83778549 111.19600159 125.833591 112.12831604 125.82926941 113.08888245 C125.82981418 113.89947396 125.83035894 114.71006548 125.83092022 115.54522038 C125.58203125 117.63671875 125.58203125 117.63671875 123.58203125 120.63671875 C121.12109375 121.03515625 121.12109375 121.03515625 118.20703125 121.01171875 C117.25054688 121.01945313 116.2940625 121.0271875 115.30859375 121.03515625 C111.99724306 120.5512626 110.86213318 120.09971345 108.58203125 117.63671875 C108.20109016 114.67519297 108.07609261 112.0870868 108.12792969 109.1262207 C108.12734558 108.25771484 108.12676147 107.38920898 108.12615967 106.49438477 C108.1289486 103.62085131 108.16007853 100.74835245 108.19140625 97.875 C108.19886577 95.88389147 108.20456006 93.8927756 108.20855713 91.9016571 C108.22383621 86.65880088 108.26313774 81.41638729 108.30737305 76.17370605 C108.34827666 70.82484933 108.36655765 65.47592114 108.38671875 60.12695312 C108.42962968 49.63001376 108.49790861 39.13340305 108.58203125 28.63671875 C107.92203125 28.63671875 107.26203125 28.63671875 106.58203125 28.63671875 C106.30101562 29.38308594 106.02 30.12945313 105.73046875 30.8984375 C102.40785552 38.82072279 96.40534662 45.5952544 91.25732422 52.40820312 C86.63582395 58.5321547 82.17443594 64.76009518 77.73583984 71.01708984 C74.72067891 75.24954385 71.65663441 79.44730567 68.58203125 83.63671875 C68.11152344 84.38179687 67.64101563 85.126875 67.15625 85.89453125 C65.58203125 87.63671875 65.58203125 87.63671875 63.34765625 88.30859375 C59.60253459 88.42490188 56.75738848 88.49563365 53.65234375 86.2265625 C51.78107415 84.1267738 50.18033155 81.95111665 48.58203125 79.63671875 C47.99292969 78.83878906 47.40382813 78.04085937 46.796875 77.21875 C45.47801842 75.42867978 44.17292087 73.62842207 42.87890625 71.8203125 C40.17928631 68.07849234 37.41766472 64.38670614 34.64453125 60.69921875 C34.13253174 60.01819092 33.62053223 59.33716309 33.09301758 58.63549805 C32.07537786 57.28225203 31.05755844 55.92914112 30.03955078 54.57617188 C28.67459886 52.75989414 27.31299058 50.94118152 25.953125 49.12109375 C25.17066406 48.074375 24.38820313 47.02765625 23.58203125 45.94921875 C22.90140625 45.03785156 22.22078125 44.12648438 21.51953125 43.1875 C20.16430938 41.40330669 18.76418101 39.65274268 17.33203125 37.9296875 C15.58203125 35.63671875 15.58203125 35.63671875 15.58203125 33.63671875 C14.92203125 33.63671875 14.26203125 33.63671875 13.58203125 33.63671875 C13.25203125 61.68671875 12.92203125 89.73671875 12.58203125 118.63671875 C8.71939561 120.56803657 7.16604637 120.9322942 3.01953125 120.94921875 C2.06949219 120.96597656 1.11945313 120.98273438 0.140625 121 C-2.89800303 120.56856121 -3.57132878 120.02816238 -5.41796875 117.63671875 C-5.79549217 115.51398563 -5.79549217 115.51398563 -5.79891968 113.01295471 C-5.80737915 112.06381195 -5.81583862 111.11466919 -5.82455444 110.13676453 C-5.81848175 109.09720108 -5.81240906 108.05763763 -5.80615234 106.98657227 C-5.8114093 105.89040588 -5.81666626 104.7942395 -5.82208252 103.66485596 C-5.83531518 100.03163516 -5.82653197 96.39885047 -5.81640625 92.765625 C-5.81842618 90.24600643 -5.82133694 87.72638842 -5.82510376 85.20677185 C-5.82953168 79.92155868 -5.82336666 74.63650254 -5.80908203 69.35131836 C-5.79276352 63.24312838 -5.79803735 57.13523894 -5.81456125 51.02705628 C-5.82982299 45.15000506 -5.82819786 39.27304713 -5.81941605 33.39597893 C-5.81741214 30.89567968 -5.81987997 28.39537279 -5.82685471 25.89508247 C-5.83445929 22.40193393 -5.82287772 18.90936505 -5.80615234 15.41625977 C-5.81222504 14.37872055 -5.81829773 13.34118134 -5.82455444 12.27220154 C-5.81609497 11.32023895 -5.8076355 10.36827637 -5.79891968 9.38746643 C-5.7977886 8.5617492 -5.79665752 7.73603197 -5.79549217 6.88529301 C-5.17157945 3.16919489 -3.67133547 0.96676524 0 0 Z " fill="#FAF9F9" transform="translate(462.41796875,533.36328125)"/>
<path d="M0 0 C0.93900146 -0.03432129 1.87800293 -0.06864258 2.84545898 -0.10400391 C9.40822307 -0.14492983 12.75475218 0.96763644 17.625 5.4375 C18.8719288 9.1782864 19.26289184 12.5588243 18.625 16.4375 C16.19175689 20.41917054 14.52729814 22.07658074 10.1875 23.8125 C6.90116627 24.38904978 3.95119885 24.5997536 0.625 24.4375 C0.625 25.0975 0.625 25.7575 0.625 26.4375 C-2.45752089 26.94259639 -5.54113525 27.44067999 -8.625 27.9375 C-9.49769531 28.08058594 -10.37039063 28.22367187 -11.26953125 28.37109375 C-12.11386719 28.50644531 -12.95820312 28.64179688 -13.828125 28.78125 C-14.60317383 28.90693359 -15.37822266 29.03261719 -16.17675781 29.16210938 C-18.375 29.4375 -18.375 29.4375 -22.375 29.4375 C-22.375 30.0975 -22.375 30.7575 -22.375 31.4375 C-24.47751861 32.10934618 -26.58207763 32.77480968 -28.6875 33.4375 C-29.85925781 33.80875 -31.03101563 34.18 -32.23828125 34.5625 C-35.375 35.4375 -35.375 35.4375 -38.375 35.4375 C-38.375 36.0975 -38.375 36.7575 -38.375 37.4375 C-39.53 37.9325 -40.685 38.4275 -41.875 38.9375 C-79.50279232 55.70059231 -109.66013428 82.14422775 -138.20581055 111.39282227 C-138.97965088 112.17842529 -139.75349121 112.96402832 -140.55078125 113.7734375 C-141.24083252 114.48032715 -141.93088379 115.1872168 -142.6418457 115.91552734 C-144.375 117.4375 -144.375 117.4375 -146.375 117.4375 C-146.6225 118.035625 -146.87 118.63375 -147.125 119.25 C-148.59918254 121.82981944 -149.76213283 123.0190864 -152.375 124.4375 C-155.51946631 124.21105725 -157.03614437 123.73078981 -159.4375 121.65234375 C-168.66133857 110.81061414 -168.66133857 110.81061414 -170.375 106.4375 C-169.91000073 102.92412479 -168.56207307 101.2533931 -166.08374023 98.78979492 C-165.38889023 98.09194382 -164.69404022 97.39409271 -163.97813416 96.6750946 C-162.84233665 95.55781731 -162.84233665 95.55781731 -161.68359375 94.41796875 C-160.90492447 93.64117264 -160.12625519 92.86437653 -159.32398987 92.06404114 C-157.67220379 90.41898134 -156.01682202 88.77752528 -154.3581543 87.1394043 C-151.83981015 84.6519749 -149.33206382 82.15426414 -146.82617188 79.65429688 C-145.21676184 78.05406772 -143.60675423 76.4544393 -141.99609375 74.85546875 C-141.25306503 74.11668991 -140.51003632 73.37791107 -139.74449158 72.616745 C-135.1034148 68.03786435 -130.3204247 63.68434351 -125.375 59.4375 C-124.26826923 58.46497596 -123.16258846 57.49125387 -122.05859375 56.515625 C-69.39443729 10.4375 -69.39443729 10.4375 -44.375 10.4375 C-44.375 9.7775 -44.375 9.1175 -44.375 8.4375 C-43.35019531 8.17195313 -42.32539062 7.90640625 -41.26953125 7.6328125 C-39.90881011 7.27620972 -38.54813547 6.91942949 -37.1875 6.5625 C-36.51396484 6.38847656 -35.84042969 6.21445312 -35.14648438 6.03515625 C-32.27214756 5.27801387 -29.48705442 4.48245399 -26.7265625 3.375 C-18.41988668 0.06336845 -8.82201601 0.17113088 0 0 Z " fill="#FEFBFA" transform="translate(943.375,301.5625)"/>
<path d="M0 0 C0.495 1.485 0.495 1.485 1 3 C2.9979959 3.67264912 4.99832829 4.33836959 7 5 C9.66796875 6.953125 9.66796875 6.953125 12.1875 9.25 C13.02667969 9.99765625 13.86585938 10.7453125 14.73046875 11.515625 C17.47124548 14.51585563 20 17.79130714 20 22 C20.66 22 21.32 22 22 22 C25.24409877 33.37597302 25.49609337 44.36926687 25.44604492 56.11743164 C25.43740895 59.22021238 25.46659908 62.32122252 25.49804688 65.42382812 C25.49965613 67.40104112 25.49908665 69.37825737 25.49609375 71.35546875 C25.50732773 72.2803862 25.51856171 73.20530365 25.53013611 74.1582489 C25.46070889 80.48983953 25.46070889 80.48983953 23.12353516 83.07788086 C20.58702963 84.17932733 18.70081782 84.4000074 15.9375 84.375 C14.65166016 84.38660156 14.65166016 84.38660156 13.33984375 84.3984375 C10.49545426 83.91408403 9.77792961 83.22759686 8 81 C7.59936523 79.07055664 7.59936523 79.07055664 7.55859375 76.91015625 C7.51895508 75.73356445 7.51895508 75.73356445 7.47851562 74.53320312 C7.46498047 73.71787109 7.45144531 72.90253906 7.4375 72.0625 C7.40289792 70.44901762 7.36020006 68.8356843 7.30859375 67.22265625 C7.29010376 66.15156616 7.29010376 66.15156616 7.27124023 65.05883789 C6.96100825 62.70403473 6.16162969 61.05634771 5 59 C4.34 59 3.68 59 3 59 C3 58.01 3 57.02 3 56 C3.66 56 4.32 56 5 56 C6.89004929 46.33636089 8.08680697 33.74294948 3 25 C-0.83880844 20.37182619 -4.24521193 16.98510111 -10 15 C-10 14.34 -10 13.68 -10 13 C-17.01805857 11.89912807 -23.90565767 11.90266908 -31 12 C-31 12.66 -31 13.32 -31 14 C-31.845625 14.20625 -32.69125 14.4125 -33.5625 14.625 C-40.34882869 17.33953148 -44.27939182 21.56805066 -47.2734375 28.16796875 C-50.46463622 36.21459348 -50.25623134 47.03639876 -46.9609375 55.078125 C-46.64382813 55.71234375 -46.32671875 56.3465625 -46 57 C-45.68289063 57.63421875 -45.36578125 58.2684375 -45.0390625 58.921875 C-41.74280547 64.392259 -37.09988274 67.32494107 -31 69 C-27.95443809 69.39430739 -24.94426122 69.52260683 -21.875 69.5625 C-21.12323486 69.57724365 -20.37146973 69.5919873 -19.59692383 69.60717773 C-13.97898658 69.50445185 -8.120483 68.120483 -4 64 C-2.33382885 63.95936168 -0.66611905 63.957279 1 64 C3.49410507 67.74115761 3.70758606 71.65595899 3 76 C-0.32157593 80.91593238 -6.35795032 82.84233838 -12 84 C-15.85046036 84.27451901 -19.70329326 84.2773524 -23.5625 84.3125 C-25.11420898 84.35600586 -25.11420898 84.35600586 -26.69726562 84.40039062 C-34.20579364 84.46151202 -40.13314353 83.01324303 -47 80 C-47 79.34 -47 78.68 -47 78 C-47.89460937 77.77570313 -48.78921875 77.55140625 -49.7109375 77.3203125 C-56.55864115 74.57147184 -61.15420898 67.02352005 -64.5 60.625 C-69.34376946 48.9192238 -68.49985278 32.67818936 -64 21 C-63.34 21 -62.68 21 -62 21 C-61.77699219 20.12859375 -61.55398438 19.2571875 -61.32421875 18.359375 C-59.81036035 14.51890827 -57.71011655 12.08095961 -54.8125 9.25 C-53.89082031 8.30640625 -52.96914063 7.3628125 -52.01953125 6.390625 C-48.55097797 3.64450003 -46.26182667 2.91286947 -42 2 C-42 1.34 -42 0.68 -42 0 C-29.02217148 -4.70901769 -13.03270254 -4.82766268 0 0 Z " fill="#FAF9F9" transform="translate(928,570)"/>
<path d="M0 0 C0.71285156 0.56847656 1.42570313 1.13695312 2.16015625 1.72265625 C2.94519531 2.32207031 3.73023438 2.92148437 4.5390625 3.5390625 C13.03286723 10.46564132 16.73774937 19.20702734 19.16015625 29.72265625 C19.52705158 33.48513601 19.51302381 37.20308451 19.453125 40.98046875 C19.44888016 42.00953339 19.44463531 43.03859802 19.44026184 44.09884644 C19.42362264 47.34872891 19.38599856 50.59796484 19.34765625 53.84765625 C19.33259032 56.06639722 19.31890528 58.28514803 19.30664062 60.50390625 C19.27376775 65.91037258 19.22371833 71.3164682 19.16015625 76.72265625 C17.67515625 77.21765625 17.67515625 77.21765625 16.16015625 77.72265625 C16.16015625 78.38265625 16.16015625 79.04265625 16.16015625 79.72265625 C14.76533546 79.80470453 13.36906897 79.86231829 11.97265625 79.91015625 C10.80669922 79.96236328 10.80669922 79.96236328 9.6171875 80.015625 C6.25653756 79.61491157 4.67721972 79.03289807 2.16015625 76.72265625 C1.48852856 73.72881671 1.55198995 70.77989515 1.59765625 67.72265625 C1.66781469 63.20135866 1.66781469 63.20135866 1.16015625 58.72265625 C-0.7452521 56.81867636 -0.7452521 56.81867636 -2.83984375 55.72265625 C-2.83984375 54.73265625 -2.83984375 53.74265625 -2.83984375 52.72265625 C-2.17984375 52.72265625 -1.51984375 52.72265625 -0.83984375 52.72265625 C-0.69546875 52.12453125 -0.55109375 51.52640625 -0.40234375 50.91015625 C0.04740015 49.16115221 0.58907966 47.43588602 1.16015625 45.72265625 C1.82288482 35.09350952 1.81360471 25.92654838 -5.08984375 17.34765625 C-8.36504828 13.84200023 -11.30618067 12.20303603 -15.83984375 10.72265625 C-15.83984375 10.06265625 -15.83984375 9.40265625 -15.83984375 8.72265625 C-18.36075153 8.69541955 -20.88135832 8.67570418 -23.40234375 8.66015625 C-24.10681641 8.65177734 -24.81128906 8.64339844 -25.53710938 8.63476562 C-33.12706944 8.59978885 -38.52235094 9.16818469 -44.83984375 13.72265625 C-45.49984375 13.72265625 -46.15984375 13.72265625 -46.83984375 13.72265625 C-47.08734375 14.27953125 -47.33484375 14.83640625 -47.58984375 15.41015625 C-48.83984375 17.72265625 -48.83984375 17.72265625 -50.83984375 19.97265625 C-56.08536574 27.18524899 -55.87626732 37.17892105 -54.83984375 45.72265625 C-52.24954731 52.41064573 -47.63599476 58.95111911 -41.02734375 62.03515625 C-40.30546875 62.26203125 -39.58359375 62.48890625 -38.83984375 62.72265625 C-38.83984375 63.38265625 -38.83984375 64.04265625 -38.83984375 64.72265625 C-35.63152984 64.75190455 -32.42325068 64.76953814 -29.21484375 64.78515625 C-28.31121094 64.79353516 -27.40757812 64.80191406 -26.4765625 64.81054688 C-21.81080086 64.8275752 -17.4297109 64.69095048 -12.83984375 63.72265625 C-12.83984375 63.06265625 -12.83984375 62.40265625 -12.83984375 61.72265625 C-10.42263182 60.200708 -9.10472117 59.71004304 -6.21484375 59.84765625 C-3.83984375 60.72265625 -3.83984375 60.72265625 -2.52734375 62.41015625 C-1.33049834 66.43590899 -1.35323799 69.49182991 -2.90234375 73.41015625 C-6.48273421 77.68352551 -11.51838878 78.83123993 -16.83984375 79.72265625 C-20.54590242 79.96110417 -24.25182604 79.95361513 -27.96484375 79.97265625 C-28.94710937 79.99328125 -29.929375 80.01390625 -30.94140625 80.03515625 C-38.00941583 80.0723563 -44.12574635 78.90848811 -50.83984375 76.72265625 C-50.83984375 76.06265625 -50.83984375 75.40265625 -50.83984375 74.72265625 C-51.54109375 74.49578125 -52.24234375 74.26890625 -52.96484375 74.03515625 C-60.82980833 70.44462894 -66.99734943 63.04879179 -71.015625 55.51953125 C-75.21235354 44.14261787 -74.04890956 28.87166986 -69.83984375 17.72265625 C-69.17984375 17.72265625 -68.51984375 17.72265625 -67.83984375 17.72265625 C-67.56140625 16.48515625 -67.56140625 16.48515625 -67.27734375 15.22265625 C-63.82010228 6.80502485 -55.78143786 -0.26796492 -47.734375 -4.34375 C-33.25136394 -10.14255714 -12.7410875 -9.4112933 0 0 Z " fill="#FBFAF9" transform="translate(816.83984375,574.27734375)"/>
<path d="M0 0 C0.95003906 -0.00257813 1.90007812 -0.00515625 2.87890625 -0.0078125 C5.4375 0.125 5.4375 0.125 8.4375 1.125 C8.4375 1.785 8.4375 2.445 8.4375 3.125 C9.2625 3.16625 10.0875 3.2075 10.9375 3.25 C17.34180401 4.851076 21.81842447 8.75067078 25.375 14.25 C29.81170543 21.73976035 29.74354435 32.6274645 27.765625 40.953125 C26.9375 43.125 26.9375 43.125 25.4375 46.125 C24.7775 46.125 24.1175 46.125 23.4375 46.125 C23.210625 46.681875 22.98375 47.23875 22.75 47.8125 C20.67503357 51.46839324 18.15886865 54.5201948 14.125 55.9375 C13.568125 55.999375 13.01125 56.06125 12.4375 56.125 C12.4375 56.785 12.4375 57.445 12.4375 58.125 C8.52066136 59.43061288 4.77067352 59.34874165 0.6875 59.375 C-0.09882812 59.395625 -0.88515625 59.41625 -1.6953125 59.4375 C-9.42268142 59.48884464 -15.54321921 57.11972236 -21.5625 52.125 C-28.4161795 42.67717078 -29.24250916 34.64666457 -28.5625 23.125 C-27.25956342 15.06830958 -22.65916501 9.55059226 -16.51171875 4.41015625 C-14.05958432 2.79341832 -12.44161927 2.88507339 -9.5625 3.125 C-9.5625 2.465 -9.5625 1.805 -9.5625 1.125 C-6.31934218 0.15895299 -3.37741334 -0.00919024 0 0 Z " fill="#BE6046" transform="translate(1023.5625,580.875)"/>
<path d="M0 0 C3.27052444 0.82828924 4.76817113 2.07221778 7.09765625 4.53125 C7.84340595 7.58651169 7.75719156 10.58667557 7.70947266 13.71850586 C7.71513748 14.64740128 7.72080231 15.57629669 7.72663879 16.53334045 C7.74014606 19.60466812 7.71919107 22.67481751 7.69921875 25.74609375 C7.70471756 27.88075063 7.71284092 30.01540223 7.72348022 32.15003967 C7.74639198 37.77228825 7.74213578 43.39414844 7.72967529 49.01641846 C7.71138592 58.0120882 7.72129825 67.00752992 7.75553513 76.00314522 C7.76164531 79.14582149 7.74837016 82.28801077 7.73355103 85.4306488 C7.73649904 87.35863369 7.74015374 89.28661767 7.74462891 91.21459961 C7.73533859 92.08800995 7.72604828 92.96142029 7.71647644 93.86129761 C7.75042835 99.0307742 8.25756043 102.69115418 12.09765625 106.53125 C15.16749277 106.77539016 18.23622355 106.91535674 21.3125 107.0546875 C22.23160156 107.21195313 23.15070312 107.36921875 24.09765625 107.53125 C26.23352303 110.73505017 26.328978 111.55064967 26.22265625 115.21875 C26.20460938 116.02699219 26.1865625 116.83523438 26.16796875 117.66796875 C26.14476562 118.28285156 26.1215625 118.89773438 26.09765625 119.53125 C25.43765625 119.53125 24.77765625 119.53125 24.09765625 119.53125 C24.09765625 120.19125 24.09765625 120.85125 24.09765625 121.53125 C16.90049101 123.69738711 7.73866013 123.72347688 0.8125 120.6484375 C-3.56576647 117.79608167 -6.992347 113.37267656 -8.90234375 108.53125 C-9.81336232 102.61685917 -10.06071434 96.85113155 -10.0793457 90.87402344 C-10.0859169 89.94293762 -10.0924881 89.01185181 -10.09925842 88.05255127 C-10.11883116 84.99857486 -10.13061099 81.94464697 -10.140625 78.890625 C-10.14470053 77.8438282 -10.14877605 76.7970314 -10.15297508 75.71851349 C-10.17375603 70.18962303 -10.18809838 64.66075688 -10.19750977 59.13183594 C-10.20862573 53.41965554 -10.24310763 47.70785915 -10.28268147 41.99581528 C-10.30877095 37.60011045 -10.3171942 33.2044989 -10.32079124 28.80872345 C-10.32566818 26.70194115 -10.33731351 24.59516331 -10.35582924 22.48845673 C-10.38008246 19.54895375 -10.37928231 16.61047005 -10.37231445 13.67089844 C-10.38512451 12.800177 -10.39793457 11.92945557 -10.41113281 11.03234863 C-10.37803099 7.21058827 -10.35742611 5.17943737 -8.11906433 1.99127197 C-5.44066571 0.22717014 -3.17671166 0.05052424 0 0 Z " fill="#FAF9F9" transform="translate(698.90234375,531.46875)"/>
<path d="M0 0 C7.4496787 4.56102777 12.2784413 9.37300909 15.0625 17.875 C15.70244181 22.94304494 15.38140649 27.92910067 14.0625 32.875 C13.4025 32.875 12.7425 32.875 12.0625 32.875 C11.8975 33.720625 11.7325 34.56625 11.5625 35.4375 C9.4783362 40.21370871 6.40977325 43.04966263 2.0625 45.875 C-0.4324481 46.67076206 -2.289951 46.81984273 -4.9375 46.875 C-4.9375 47.535 -4.9375 48.195 -4.9375 48.875 C-6.83301022 48.92941656 -8.7289792 48.96798035 -10.625 49 C-11.68074219 49.02320313 -12.73648438 49.04640625 -13.82421875 49.0703125 C-19.925308 48.6875591 -25.14651319 45.5286307 -29.9375 41.875 C-32.25 38.9375 -32.25 38.9375 -33.9375 35.875 C-34.515 35.029375 -35.0925 34.18375 -35.6875 33.3125 C-37.9135388 27.1908933 -38.11782458 20.50886966 -36.09375 14.27734375 C-32.85166556 7.89175176 -27.77779267 2.47068948 -21.1171875 -0.296875 C-14.61615269 -1.9900192 -6.38062024 -2.45073823 0 0 Z " fill="#FDFAF9" transform="translate(773.9375,302.125)"/>
<path d="M0 0 C1.43859375 -0.02126953 1.43859375 -0.02126953 2.90625 -0.04296875 C5.5 0.1875 5.5 0.1875 8.5 2.1875 C8.78640158 4.84980033 8.87839379 7.27866553 8.84057617 9.94189453 C8.84123329 11.14202179 8.84123329 11.14202179 8.84190369 12.36639404 C8.83980923 15.01794618 8.81644771 17.66887047 8.79296875 20.3203125 C8.78737512 22.15591079 8.78310392 23.99151355 8.78010559 25.82711792 C8.76863844 30.66384191 8.73915527 35.50029663 8.70599365 40.33691406 C8.67533298 45.27014523 8.66160883 50.20341981 8.64648438 55.13671875 C8.61428729 64.82043096 8.56306845 74.50394311 8.5 84.1875 C3.62908125 85.65576737 -0.38771879 86.5807524 -5.5 86.1875 C-6.49 85.5275 -7.48 84.8675 -8.5 84.1875 C-8.7863593 81.49545852 -8.87835144 79.03430444 -8.84057617 76.34130859 C-8.84101425 75.53147018 -8.84145233 74.72163177 -8.84190369 73.88725281 C-8.83980914 71.20323806 -8.81644717 68.51984348 -8.79296875 65.8359375 C-8.78737515 63.97791892 -8.78310394 62.11989592 -8.78010559 60.26187134 C-8.76863819 55.36596511 -8.7391548 50.47032488 -8.70599365 45.57452393 C-8.67533352 40.58096923 -8.66160895 35.58737165 -8.64648438 30.59375 C-8.61428685 20.79154964 -8.56306771 10.98954692 -8.5 1.1875 C-5.43301363 0.16517121 -3.21335122 0.0215951 0 0 Z " fill="#FBFBFB" transform="translate(637.5,567.8125)"/>
<path d="M0 0 C4.13787177 1.74710141 6.79711191 4.0837545 9 8 C9.66265885 12.88894973 9.67245012 17.33657077 7.8125 21.9375 C2.76496808 27.68124322 2.76496808 27.68124322 -1.3359375 28.421875 C-5.67612426 28.65647969 -8.98801371 28.53925103 -12.5 25.8125 C-16.64468372 21.14973082 -17.46290779 17.33625566 -17.3203125 11.21484375 C-16.69393228 6.88365369 -14.13659462 4.26288291 -11.3125 1.125 C-7.61416024 -0.67419232 -4.03003258 -0.52722648 0 0 Z " fill="#FBF6F5" transform="translate(770,699)"/>
<path d="M0 0 C5.31907895 1.93421053 5.31907895 1.93421053 7.16796875 4.828125 C8.60797793 8.5870222 7.99399534 12.16501089 7 16 C5.09936318 18.45243461 3.74145145 19.62927427 1 21 C-3.23660902 21.43281664 -6.91394711 21.44858706 -10.875 19.8125 C-14.26173842 16.92381135 -15.75118724 14.46177499 -16.5 10.0625 C-15.79589925 5.74988288 -14.03907145 4.11143029 -11 1 C-7.54371521 -0.72814239 -3.78603795 -0.35633298 0 0 Z " fill="#FAF9F9" transform="translate(640,533)"/>
<path d="M0 0 C2.16015625 0.47265625 2.16015625 0.47265625 5.22265625 2.41015625 C7.82987325 6.53124118 8.19961479 9.72207302 7.16015625 14.47265625 C5.13010387 17.68144872 3.73716178 19.10193162 0 19.98046875 C-4.5043027 20.32637513 -6.32530335 19.89268923 -9.90234375 16.97265625 C-12.55549898 13.06225674 -12.57286273 10.0906758 -11.83984375 5.47265625 C-8.69040553 0.59610675 -5.54616529 -0.36110258 0 0 Z " fill="#FBF6F5" transform="translate(866.83984375,707.52734375)"/>
<path d="M0 0 C2.16015625 0.47265625 2.16015625 0.47265625 5.22265625 2.41015625 C7.82987325 6.53124118 8.19961479 9.72207302 7.16015625 14.47265625 C5.13010387 17.68144872 3.73716178 19.10193162 0 19.98046875 C-4.5043027 20.32637513 -6.32530335 19.89268923 -9.90234375 16.97265625 C-12.55549898 13.06225674 -12.57286273 10.0906758 -11.83984375 5.47265625 C-8.69040553 0.59610675 -5.54616529 -0.36110258 0 0 Z " fill="#FBF7F6" transform="translate(645.83984375,707.52734375)"/>
<path d="M0 0 C2.8100346 1.79363911 4.50940468 3.01880935 6 6 C6.39447548 10.18144011 6.45035186 12.30946048 4.125 15.875 C1.21289342 18.78710658 0.3997223 18.96068305 -3.8125 19.375 C-7.11983012 19.30270863 -8.04807509 18.96995307 -11 17.125 C-13.79631782 12.75575341 -14.0396698 9.05347698 -13 4 C-9.60672696 -0.45367086 -5.28127177 -1.08826206 0 0 Z " fill="#FAF5F4" transform="translate(577,708)"/>
<path d="M0 0 C3.1821583 2.77418928 3.9241358 4.29193417 4.375 8.5 C4.02137264 11.80052201 3.57686625 14.09524638 2 17 C-1.17701329 19.11800886 -3.19030808 19.55293856 -6.98828125 19.43359375 C-9.86074575 18.81448004 -11.54851871 17.29107281 -13.22265625 14.91796875 C-14.71910593 11.22572355 -14.06799309 7.74509578 -13 4 C-9.90629174 -1.62492411 -5.87084731 -1.4419625 0 0 Z " fill="#BF6047" transform="translate(771,704)"/>
<path d="M0 0 C2.475 0.495 2.475 0.495 5 1 C5.99 3.97 6.98 6.94 8 10 C9.32 6.7 10.64 3.4 12 0 C13.65 0.33 15.3 0.66 17 1 C17.99 3.97 18.98 6.94 20 10 C21.32 6.7 22.64 3.4 24 0 C25.32 0 26.64 0 28 0 C27.39124245 4.60416626 26.15277044 8.56483324 24.4375 12.875 C23.98246094 14.02742187 23.52742187 15.17984375 23.05859375 16.3671875 C22.70925781 17.23601563 22.35992188 18.10484375 22 19 C20.68 19 19.36 19 18 19 C17.79503906 18.28972656 17.59007812 17.57945312 17.37890625 16.84765625 C17.10949219 15.92855469 16.84007812 15.00945313 16.5625 14.0625 C16.29566406 13.14597656 16.02882813 12.22945312 15.75390625 11.28515625 C15.20973949 9.0597507 15.20973949 9.0597507 14 8 C12.68 11.63 11.36 15.26 10 19 C8.68 19 7.36 19 6 19 C4.99619084 16.20964954 3.9968055 13.41785145 3 10.625 C2.57074219 9.43390625 2.57074219 9.43390625 2.1328125 8.21875 C1.86210938 7.45820312 1.59140625 6.69765625 1.3125 5.9140625 C1.06113281 5.2123291 0.80976562 4.5105957 0.55078125 3.78759766 C0 2 0 2 0 0 Z " fill="#F8F1EF" transform="translate(532,708)"/>
<path d="M0 0 C2.09375 0.453125 2.09375 0.453125 4.65625 2.078125 C6.09375 4.453125 6.09375 4.453125 6.09375 10.453125 C1.47375 10.453125 -3.14625 10.453125 -7.90625 10.453125 C-6.91625 12.103125 -5.92625 13.753125 -4.90625 15.453125 C-1.28025578 15.87038178 -1.28025578 15.87038178 2.09375 15.453125 C2.09375 14.793125 2.09375 14.133125 2.09375 13.453125 C3.41375 13.453125 4.73375 13.453125 6.09375 13.453125 C4.34375 18.328125 4.34375 18.328125 2.09375 19.453125 C-2.10366246 19.94741488 -5.68786011 20.15369919 -9.40625 18.015625 C-11.6180078 14.23720542 -12.3210746 10.82009666 -11.90625 6.453125 C-9.72118903 0.83603109 -5.60837841 -0.41128108 0 0 Z " fill="#FBF6F5" transform="translate(819.90625,707.546875)"/>
<path d="M0 0 C3.21284151 0.08277853 4.41061379 0.23904777 7.1875 2 C8.625 4.375 8.625 4.375 8.625 10.375 C4.005 10.375 -0.615 10.375 -5.375 10.375 C-4.385 12.025 -3.395 13.675 -2.375 15.375 C1.25099422 15.79225678 1.25099422 15.79225678 4.625 15.375 C4.625 14.715 4.625 14.055 4.625 13.375 C5.945 13.375 7.265 13.375 8.625 13.375 C8.3125 15.25 8.3125 15.25 7.625 17.375 C3.59486952 20.06175365 0.35681437 20.04241686 -4.375 19.375 C-7.11837994 17.72897204 -8.02302249 16.5540016 -8.93359375 13.50390625 C-9.59717069 9.8850176 -9.61528169 7.90133133 -8.0625 4.5 C-5.38346027 1.12639441 -4.30208648 0.07146323 0 0 Z " fill="#FAF5F4" transform="translate(694.375,707.625)"/>
<path d="M0 0 C2.12890625 0.41796875 2.12890625 0.41796875 4.69140625 2.04296875 C6.12890625 4.41796875 6.12890625 4.41796875 6.12890625 10.41796875 C1.83890625 10.41796875 -2.45109375 10.41796875 -6.87109375 10.41796875 C-6.21109375 12.06796875 -5.55109375 13.71796875 -4.87109375 15.41796875 C0.67943911 14.67437202 0.67943911 14.67437202 6.12890625 13.41796875 C5.81640625 15.29296875 5.81640625 15.29296875 5.12890625 17.41796875 C1.43170478 19.88276973 -1.58265341 20.20223605 -5.87109375 19.41796875 C-8.87109375 17.48046875 -8.87109375 17.48046875 -10.87109375 14.41796875 C-11.79067437 9.91772024 -11.38072646 6.503708 -9.43359375 2.35546875 C-6.16719368 -0.11424837 -4.01900964 -0.24498082 0 0 Z " fill="#FBF7F7" transform="translate(953.87109375,707.58203125)"/>
<path d="M0 0 C6.93 0 13.86 0 21 0 C21 1.65 21 3.3 21 5 C18.36 5 15.72 5 13 5 C13 12.59 13 20.18 13 28 C11.35 28 9.7 28 8 28 C8 20.08 8 12.16 8 4 C5.36 4 2.72 4 0 4 C0 2.68 0 1.36 0 0 Z " fill="#F3E6E3" transform="translate(510,699)"/>
<path d="M0 0 C2.475 0.495 2.475 0.495 5 1 C5.33 0.67 5.66 0.34 6 0 C13.14332539 -0.58551847 13.14332539 -0.58551847 16.24609375 1.53515625 C18.63075368 4.88642667 18.44391781 7.80451831 18.25 11.75 C18.23195313 12.44738281 18.21390625 13.14476562 18.1953125 13.86328125 C18.14838554 15.57611539 18.07664605 17.28823824 18 19 C16.35 19 14.7 19 13 19 C12.67 14.38 12.34 9.76 12 5 C10.35 4.67 8.7 4.34 7 4 C5.05909174 5.94090826 5.60080565 9.47293902 5.4375 12.0625 C5.35371094 13.35285156 5.26992188 14.64320313 5.18359375 15.97265625 C5.12300781 16.97167969 5.06242188 17.97070312 5 19 C3.35 19 1.7 19 0 19 C0 12.73 0 6.46 0 0 Z " fill="#F4E7E4" transform="translate(785,708)"/>
<path d="M0 0 C2.475 0.495 2.475 0.495 5 1 C5.99 4.63 6.98 8.26 8 12 C8.66 12 9.32 12 10 12 C10.20496094 11.30132813 10.40992188 10.60265625 10.62109375 9.8828125 C10.89050781 8.97273437 11.15992188 8.06265625 11.4375 7.125 C11.70433594 6.22007812 11.97117187 5.31515625 12.24609375 4.3828125 C13 2 13 2 14 0 C15.32 0 16.64 0 18 0 C16.35041996 6.14975013 14.27847456 12.08494787 11.9375 18 C11.6801709 18.6587915 11.4228418 19.31758301 11.15771484 19.99633789 C10.02894163 22.80367786 9.16207286 24.83792714 7 27 C3.375 27.125 3.375 27.125 0 27 C0 26.01 0 25.02 0 24 C1.65 23.67 3.3 23.34 5 23 C6.63249634 18.16781085 5.03836389 14.80231864 3.0625 10.375 C0 3.34007761 0 3.34007761 0 0 Z " fill="#F9F3F1" transform="translate(964,708)"/>
<path d="M0 0 C0.99 0 1.98 0 3 0 C3 0.66 3 1.32 3 2 C3.99 1.34 4.98 0.68 6 0 C7.9375 -0.3359375 7.9375 -0.3359375 10 -0.375 C10.680625 -0.40335938 11.36125 -0.43171875 12.0625 -0.4609375 C14 0 14 0 15.73828125 1.5390625 C17.47475219 4.92598725 17.32414108 8.04317265 17.1875 11.75 C17.16719727 12.79607422 17.16719727 12.79607422 17.14648438 13.86328125 C17.1112945 15.57585541 17.05749155 17.28802941 17 19 C15.68 19 14.36 19 13 19 C12.67 14.38 12.34 9.76 12 5 C7.52297636 3.93462795 7.52297636 3.93462795 5 4 C4.67 8.95 4.34 13.9 4 19 C2.68 19 1.36 19 0 19 C0 12.73 0 6.46 0 0 Z " fill="#FBF6F5" transform="translate(920,708)"/>
<path d="M0 0 C1.32 0 2.64 0 4 0 C4.33 4.62 4.66 9.24 5 14 C6.65 14.33 8.3 14.66 10 15 C11.94090826 13.05909174 11.39919435 9.52706098 11.5625 6.9375 C11.64628906 5.64714844 11.73007812 4.35679687 11.81640625 3.02734375 C11.87699219 2.02832031 11.93757812 1.02929688 12 0 C13.32 0 14.64 0 16 0 C16 6.27 16 12.54 16 19 C3.6966325 19.36544656 3.6966325 19.36544656 1.09375 18 C-0.67520732 14.76533518 -0.30953066 11.39519494 -0.1875 7.8125 C-0.17396484 7.06291016 -0.16042969 6.31332031 -0.14648438 5.54101562 C-0.11118539 3.69370233 -0.05737917 1.84675934 0 0 Z " fill="#F8F1EF" transform="translate(880,708)"/>
<path d="M0 0 C1.19109375 0.00773438 1.19109375 0.00773438 2.40625 0.015625 C3.2003125 0.01046875 3.994375 0.0053125 4.8125 0 C6.90625 0.265625 6.90625 0.265625 8.90625 2.265625 C8.90625 3.585625 8.90625 4.905625 8.90625 6.265625 C7.58625 6.265625 6.26625 6.265625 4.90625 6.265625 C4.57625 5.605625 4.24625 4.945625 3.90625 4.265625 C2.58625 4.265625 1.26625 4.265625 -0.09375 4.265625 C-0.09375 4.925625 -0.09375 5.585625 -0.09375 6.265625 C0.54433594 6.49636719 1.18242188 6.72710938 1.83984375 6.96484375 C8.56739036 9.62017806 8.56739036 9.62017806 10.21875 12.765625 C9.90625 15.265625 9.90625 15.265625 8.46875 17.578125 C4.68318031 20.07106113 2.40123457 19.76506773 -2.09375 19.265625 C-4.09375 17.953125 -4.09375 17.953125 -5.09375 16.265625 C-5.09375 15.275625 -5.09375 14.285625 -5.09375 13.265625 C-3.77375 13.265625 -2.45375 13.265625 -1.09375 13.265625 C-0.76375 13.925625 -0.43375 14.585625 -0.09375 15.265625 C1.55625 15.265625 3.20625 15.265625 4.90625 15.265625 C5.23625 14.275625 5.56625 13.285625 5.90625 12.265625 C5.27976562 12.15605469 4.65328125 12.04648437 4.0078125 11.93359375 C3.19054687 11.77503906 2.37328125 11.61648438 1.53125 11.453125 C0.31308594 11.22689453 0.31308594 11.22689453 -0.9296875 10.99609375 C-3.09375 10.265625 -3.09375 10.265625 -5.09375 7.265625 C-4.72557193 3.4917998 -4.25258712 0.53950732 0 0 Z " fill="#F8F0EF" transform="translate(713.09375,707.734375)"/>
<path d="M0 0 C4.23998029 0.08180026 4.23998029 0.08180026 6.625 2.25 C7.5625 4.375 7.5625 4.375 7.5625 6.375 C5.9125 6.375 4.2625 6.375 2.5625 6.375 C2.5625 5.385 2.5625 4.395 2.5625 3.375 C0.9125 3.705 -0.7375 4.035 -2.4375 4.375 C-2.4375 5.035 -2.4375 5.695 -2.4375 6.375 C-1.79941406 6.65214844 -1.16132812 6.92929687 -0.50390625 7.21484375 C0.32238281 7.57707031 1.14867187 7.93929687 2 8.3125 C2.82371094 8.67214844 3.64742187 9.03179688 4.49609375 9.40234375 C6.5625 10.375 6.5625 10.375 7.5625 11.375 C8.02421829 15.76132379 8.02421829 15.76132379 6.328125 18.015625 C4.10270654 19.72900028 2.84627657 19.77783777 0.0625 19.75 C-0.7109375 19.75773438 -1.484375 19.76546875 -2.28125 19.7734375 C-4.94164788 19.28184224 -5.85081254 18.54143864 -7.4375 16.375 C-7.4375 15.385 -7.4375 14.395 -7.4375 13.375 C-6.1175 13.375 -4.7975 13.375 -3.4375 13.375 C-3.1075 14.035 -2.7775 14.695 -2.4375 15.375 C-0.7875 15.375 0.8625 15.375 2.5625 15.375 C2.8925 14.385 3.2225 13.395 3.5625 12.375 C2.469375 12.271875 1.37625 12.16875 0.25 12.0625 C-3.4375 11.375 -3.4375 11.375 -5.375 10.1875 C-6.94795744 7.50421967 -6.76128803 5.41860748 -6.4375 2.375 C-4.03403621 -0.02846379 -3.29849805 0.05416253 0 0 Z " fill="#F9F2F0" transform="translate(607.4375,707.625)"/>
<path d="M0 0 C1.65 0 3.3 0 5 0 C5 1.98 5 3.96 5 6 C5.99 6 6.98 6 8 6 C8 7.32 8 8.64 8 10 C7.01 10 6.02 10 5 10 C5 14.95 5 19.9 5 25 C3.35 25 1.7 25 0 25 C0 20.05 0 15.1 0 10 C-0.99 10 -1.98 10 -3 10 C-3 8.68 -3 7.36 -3 6 C-2.01 6 -1.02 6 0 6 C0 4.02 0 2.04 0 0 Z " fill="#F2E3E0" transform="translate(622,702)"/>
<path d="M0 0 C2.475 0.495 2.475 0.495 5 1 C5.33 0.67 5.66 0.34 6 0 C7.99958364 -0.04080783 10.00045254 -0.04254356 12 0 C12 1.32 12 2.64 12 4 C10.02 4.66 8.04 5.32 6 6 C5.67 10.29 5.34 14.58 5 19 C3.35 19 1.7 19 0 19 C0 12.73 0 6.46 0 0 Z " fill="#F3E5E2" transform="translate(903,708)"/>
<path d="M0 0 C1.8125 1.0625 1.8125 1.0625 3 3 C3.4375 6.5 3.4375 6.5 3 10 C1.3125 12 1.3125 12 -1 13 C-3.625 12.875 -3.625 12.875 -6 12 C-8.31282587 8.53076119 -8.42478586 7.07794425 -8 3 C-5.90534242 -0.30735407 -3.75951639 -0.56392746 0 0 Z " fill="#C1664E" transform="translate(646,711)"/>
<path d="M0 0 C1.32 0 2.64 0 4 0 C4.05797565 3.93743833 4.09358789 7.87476719 4.125 11.8125 C4.14175781 12.93205078 4.15851562 14.05160156 4.17578125 15.20507812 C4.18222656 16.27822266 4.18867187 17.35136719 4.1953125 18.45703125 C4.20578613 19.44678955 4.21625977 20.43654785 4.22705078 21.45629883 C4 24 4 24 2 27 C-1.125 27.1875 -1.125 27.1875 -4 27 C-4 26.01 -4 25.02 -4 24 C-3.01 23.67 -2.02 23.34 -1 23 C-0.67 15.41 -0.34 7.82 0 0 Z " fill="#FDFBFB" transform="translate(845,708)"/>
<path d="M0 0 C1.8125 1.0625 1.8125 1.0625 3 3 C3.4375 6.5 3.4375 6.5 3 10 C1.3125 12 1.3125 12 -1 13 C-3.625 12.875 -3.625 12.875 -6 12 C-8.31282587 8.53076119 -8.42478586 7.07794425 -8 3 C-5.90534242 -0.30735407 -3.75951639 -0.56392746 0 0 Z " fill="#C0654D" transform="translate(867,711)"/>
<path d="M0 0 C2 3 2 3 1.8125 6.5625 C1 10 1 10 -2 12 C-5.32240324 11.6758631 -6.60776303 11.39223697 -9 9 C-9.54782609 2.97391304 -9.54782609 2.97391304 -7.875 0 C-4.98192987 -1.54297074 -3.06359725 -0.91256088 0 0 Z " fill="#C0654D" transform="translate(577,712)"/>
<path d="M0 0 C2.475 0.495 2.475 0.495 5 1 C5.33 0.67 5.66 0.34 6 0 C7.66617115 -0.04063832 9.33388095 -0.042721 11 0 C11 1.32 11 2.64 11 4 C9.02 4.66 7.04 5.32 5 6 C4.67 10.29 4.34 14.58 4 19 C2.68 19 1.36 19 0 19 C0 12.73 0 6.46 0 0 Z " fill="#FAF4F2" transform="translate(659,708)"/>
<path d="M0 0 C1.65 0 3.3 0 5 0 C5 6.27 5 12.54 5 19 C3.35 19 1.7 19 0 19 C0 12.73 0 6.46 0 0 Z " fill="#F1E0DC" transform="translate(675,708)"/>
<path d="M0 0 C0.66 0 1.32 0 2 0 C2 29.37 2 58.74 2 89 C1.67 89 1.34 89 1 89 C1 60.95 1 32.9 1 4 C0.34 4 -0.32 4 -1 4 C-0.67 2.68 -0.34 1.36 0 0 Z " fill="#CBAFA5" transform="translate(569,562)"/>
<path d="M0 0 C0.33 0 0.66 0 1 0 C1 2.97 1 5.94 1 9 C0.67 8.34 0.34 7.68 0 7 C-0.886875 7.495 -1.77375 7.99 -2.6875 8.5 C-5.8901227 9.95024424 -7.56542556 10.47702423 -11 10 C-11.66 9.34 -12.32 8.68 -13 8 C-13 6.68 -13 5.36 -13 4 C-8.71 4 -4.42 4 0 4 C0 2.68 0 1.36 0 0 Z " fill="#C67662" transform="translate(960,714)"/>
<path d="M0 0 C4.62 0 9.24 0 14 0 C14.33 1.32 14.66 2.64 15 4 C13.35 3.67 11.7 3.34 10 3 C10 3.66 10 4.32 10 5 C7.69 5.33 5.38 5.66 3 6 C0 2.25 0 2.25 0 0 Z " fill="#C5725D" transform="translate(689,718)"/>
<path d="M0 0 C4.62 0 9.24 0 14 0 C14 0.99 14 1.98 14 3 C12.68 3 11.36 3 10 3 C10 3.66 10 4.32 10 5 C3.53104925 6.34261242 3.53104925 6.34261242 1.0625 4.75 C0 3 0 3 0 0 Z " fill="#C5725D" transform="translate(812,718)"/>
<path d="M0 0 C2.00720923 0.28674418 4.0085944 0.61866701 6 1 C6.33 2.32 6.66 3.64 7 5 C3.7 5 0.4 5 -3 5 C-1 1 -1 1 0 0 Z " fill="#C4715B" transform="translate(815,711)"/>
<path d="M0 0 C1.67542976 0.28604898 3.34385343 0.61781233 5 1 C5.36625971 5.51720311 5.36625971 5.51720311 3.625 7.8125 C2 9 2 9 0 9 C-0.87890625 2.84765625 -0.87890625 2.84765625 -1 1 C-0.67 0.67 -0.34 0.34 0 0 Z " fill="#F6ECEA" transform="translate(729,722)"/>
<path d="M0 0 C2.5625 0.1875 2.5625 0.1875 4.5625 2.1875 C4.5625 3.1775 4.5625 4.1675 4.5625 5.1875 C1.5925 5.1875 -1.3775 5.1875 -4.4375 5.1875 C-3.20220588 0.24632353 -3.20220588 0.24632353 0 0 Z " fill="#C46F59" transform="translate(951.4375,710.8125)"/>
<path d="M0 0 C2.00720923 0.28674418 4.0085944 0.61866701 6 1 C6.33 2.32 6.66 3.64 7 5 C4.03 5 1.06 5 -2 5 C-1 1 -1 1 0 0 Z " fill="#C36D57" transform="translate(692,711)"/>
<path d="M0 0 C0.66 0.33 1.32 0.66 2 1 C-1.96 4.96 -5.92 8.92 -10 13 C-10 8.41771462 -7.08388033 6.1816619 -4 3 C-1.625 1.0625 -1.625 1.0625 0 0 Z " fill="#C28675" transform="translate(892,584)"/>
<path d="M0 0 C0.66 0.33 1.32 0.66 2 1 C-1.96 4.96 -5.92 8.92 -10 13 C-10 8.41771462 -7.08388033 6.1816619 -4 3 C-1.625 1.0625 -1.625 1.0625 0 0 Z " fill="#C28776" transform="translate(1009,584)"/>
<path d="M0 0 C1.65 0.33 3.3 0.66 5 1 C4.67 2.32 4.34 3.64 4 5 C2.35 4.67 0.7 4.34 -1 4 C-0.67 2.68 -0.34 1.36 0 0 Z " fill="#FAF4F3" transform="translate(985,722)"/>
<path d="M0 0 C2.125 0.9375 2.125 0.9375 4 2 C3.67 2.99 3.34 3.98 3 5 C1.35 4.67 -0.3 4.34 -2 4 C-2 3.01 -2 2.02 -2 1 C-1.34 0.67 -0.68 0.34 0 0 Z " fill="#F4E7E4" transform="translate(846,699)"/>
<path d="M0 0 C1.98 0.495 1.98 0.495 4 1 C3.67 2.32 3.34 3.64 3 5 C1.68 4.67 0.36 4.34 -1 4 C-0.67 2.68 -0.34 1.36 0 0 Z " fill="#F9F3F1" transform="translate(676,699)"/>
</svg>
