<?xml version="1.0" encoding="UTF-8"?>
<svg version="1.1" xmlns="http://www.w3.org/2000/svg" width="1536" height="1024">
<path d="M0 0 C506.88 0 1013.76 0 1536 0 C1536 337.92 1536 675.84 1536 1024 C1029.12 1024 522.24 1024 0 1024 C0 686.08 0 348.16 0 0 Z " fill="#F7EEE5" transform="translate(0,0)"/>
<path d="M0 0 C1.45599609 0.00773437 1.45599609 0.00773437 2.94140625 0.015625 C10.09567274 0.09567274 10.09567274 0.09567274 11.25 1.25 C12.9362694 1.54745107 14.6238713 1.83858552 16.31616211 2.09960938 C26.72216633 3.70966078 36.6865175 6.45464666 46.75439453 9.49902344 C48.46066933 10.01247494 50.17018352 10.51525045 51.88232422 11.00878906 C59.04970227 13.09037722 65.53687643 15.99398039 72.25 19.25 C73.30703125 19.74113281 74.3640625 20.23226563 75.453125 20.73828125 C82.96599457 24.32558745 90.04354665 28.44342119 97.125 32.8125 C98.44467773 33.62569702 98.44467773 33.62569702 99.79101562 34.45532227 C104.46701052 37.37959163 108.96574682 40.43156772 113.34228516 43.78735352 C115.24452016 45.2457986 117.17151579 46.66355323 119.109375 48.07421875 C126.81532981 53.72909581 134.06821166 59.57415525 140.9921875 66.16796875 C143.06613746 68.27372483 143.06613746 68.27372483 145.25 69.25 C145.25 69.91 145.25 70.57 145.25 71.25 C145.84233932 71.51734955 146.43467865 71.7846991 147.04496765 72.06015015 C149.28279079 73.26769413 150.74174968 74.49409602 152.53051758 76.28759766 C153.14828568 76.90228912 153.76605377 77.51698059 154.40254211 78.15029907 C155.38857674 79.14711197 155.38857674 79.14711197 156.39453125 80.1640625 C157.08254318 80.85253265 157.77055511 81.54100281 158.47941589 82.25033569 C159.93502068 83.70895983 161.38819597 85.17001191 162.83911133 86.63330078 C165.03878304 88.85108772 167.24620887 91.06090877 169.45507812 93.26953125 C170.87286572 94.69224022 172.29019781 96.11540331 173.70703125 97.5390625 C174.35831497 98.19145905 175.00959869 98.84385559 175.68061829 99.51602173 C180.05933637 103.93927821 184.19854681 108.52613893 188.25 113.25 C188.93449219 114.03890625 189.61898437 114.8278125 190.32421875 115.640625 C190.85660156 116.25421875 191.38898438 116.8678125 191.9375 117.5 C193.79887124 119.63806156 195.65423026 121.64386538 197.6875 123.625 C199.25 125.25 199.25 125.25 199.25 127.25 C200.24 127.58 201.23 127.91 202.25 128.25 C202.25 128.91 202.25 129.57 202.25 130.25 C202.91 130.25 203.57 130.25 204.25 130.25 C209.25 135.72619048 209.25 135.72619048 209.25 138.25 C210.24 138.58 211.23 138.91 212.25 139.25 C213.7578125 140.74609375 213.7578125 140.74609375 215.375 142.6875 C218.0321243 145.82268432 220.730955 148.9004829 223.5 151.9375 C227.50318231 156.37032539 231.37252413 160.90210054 235.20922852 165.47851562 C238.66751426 169.59485078 242.23389479 173.59733325 245.88671875 177.54296875 C247.25 179.25 247.25 179.25 247.25 181.25 C247.91 181.25 248.57 181.25 249.25 181.25 C250.94140625 182.82421875 250.94140625 182.82421875 252.8125 184.9375 C253.43253906 185.62199219 254.05257813 186.30648437 254.69140625 187.01171875 C256.53762662 189.66305778 257.35256435 190.99236086 257.25 194.25 C255.35180334 196.55540057 253.61011064 198.31784022 251.375 200.25 C250.74585693 200.81251465 250.11671387 201.3750293 249.46850586 201.95458984 C242.05817545 208.47568061 234.18099059 214.38431453 226.25 220.25 C224.86033592 221.28990883 223.47100673 222.33026535 222.08203125 223.37109375 C220.7636602 224.35242204 219.44467708 225.33292874 218.125 226.3125 C217.53404541 226.75352051 216.94309082 227.19454102 216.33422852 227.64892578 C213.04100192 230.06792317 209.70375921 232.17661047 206.12084961 234.15795898 C204.01320753 235.38821907 202.02339319 236.74358592 200.01171875 238.125 C194.89829496 241.5707442 189.53904255 244.42776907 184.0625 247.25 C183.04655762 247.774729 182.03061523 248.29945801 180.98388672 248.84008789 C155.04736232 262.12228158 127.84168318 269.35953518 98.625 269.5 C97.00464844 269.5309375 97.00464844 269.5309375 95.3515625 269.5625 C87.5584265 269.6005153 81.31342306 268.77964269 74.9375 263.9375 C70.48690023 259.48690023 69.07408412 255.97738971 68.8125 249.75 C68.95322266 244.81130484 69.92306168 242.03901309 73.25 238.25 C73.86875 237.528125 74.4875 236.80625 75.125 236.0625 C79.70472073 232.15626761 83.66480868 230.88881526 89.625 231.125 C126.83554648 231.74578439 159.83775515 222.97534284 189.85546875 200.05859375 C192.85900251 197.79001931 195.99535541 195.77336 199.1796875 193.76953125 C201.80512085 191.84256224 203.96679344 189.56636126 206.25 187.25 C205.65531418 186.65531418 205.06062836 186.06062836 204.44792175 185.44792175 C189.0486145 170.0486145 173.64930725 154.64930725 158.25 139.25 C157.36064507 138.42252007 157.36064507 138.42252007 156.45332336 137.57832336 C155.25 136.25 155.25 136.25 155.25 134.25 C154.69570313 134.02441406 154.14140625 133.79882812 153.5703125 133.56640625 C150.56493845 131.86133714 148.52012997 129.67200049 146.125 127.1875 C143.00894235 123.78546517 143.00894235 123.78546517 139.25 121.25 C139.25 120.59 139.25 119.93 139.25 119.25 C138.26 119.25 137.27 119.25 136.25 119.25 C136.16492188 120.05308594 136.07984375 120.85617187 135.9921875 121.68359375 C135.04717706 126.22461759 133.30923735 130.11308778 131.375 134.3125 C130.9720874 135.190271 130.5691748 136.06804199 130.15405273 136.97241211 C128.8691681 139.73972347 127.56443053 142.49660878 126.25 145.25 C125.85022949 146.09046875 125.45045898 146.9309375 125.03857422 147.796875 C115.66192437 167.23002956 103.35145355 184.97635128 90.75 202.4375 C90.31171875 203.04899902 89.8734375 203.66049805 89.421875 204.29052734 C88.41657718 205.65037216 87.34089345 206.95781073 86.25 208.25 C85.59 208.25 84.93 208.25 84.25 208.25 C83.940625 208.86875 83.63125 209.4875 83.3125 210.125 C82.625 211.5 81.9375 212.875 81.25 214.25 C80.59 214.25 79.93 214.25 79.25 214.25 C79.0025 214.806875 78.755 215.36375 78.5 215.9375 C77.02075182 218.67410913 75.31532561 220.92650869 73.25 223.25 C72.59 223.25 71.93 223.25 71.25 223.25 C70.92 224.24 70.59 225.23 70.25 226.25 C69.59 226.25 68.93 226.25 68.25 226.25 C68.25 226.91 68.25 227.57 68.25 228.25 C66.875 229.875 66.875 229.875 65.25 231.25 C64.59 231.25 63.93 231.25 63.25 231.25 C63.25 231.91 63.25 232.57 63.25 233.25 C61.70111498 234.66706502 60.08238466 236.00809496 58.4375 237.3125 C53.98314313 240.86030507 53.98314313 240.86030507 49.59765625 244.4921875 C30.81708836 260.36388548 6.12453159 276.21169737 -19.0625 277.6875 C-26.49209123 276.80602307 -31.00322979 273.5988304 -35.62109375 267.8359375 C-39.07153275 262.98860797 -38.11208736 256.95983919 -37.75 251.25 C-36.23983017 245.9644056 -33.56418485 244.20549609 -29.09082031 241.48095703 C-25.11716074 239.3913459 -20.91459255 238.2117336 -16.625 236.9375 C-7.52112805 234.04563529 0.27003303 230.5714201 8.25 225.25 C9.28664795 224.56647461 9.28664795 224.56647461 10.34423828 223.86914062 C19.10604197 218.03948965 27.15990059 212.09402401 34.25 204.25 C38.84743291 199.38418903 38.84743291 199.38418903 42.25 198.25 C42.95394612 196.93596724 43.61345658 195.5979743 44.25 194.25 C46.25 191.5 46.25 191.5 48.25 189.25 C48.91 189.25 49.57 189.25 50.25 189.25 C50.559375 188.63125 50.86875 188.0125 51.1875 187.375 C51.875 186 52.5625 184.625 53.25 183.25 C53.91 183.25 54.57 183.25 55.25 183.25 C55.48589844 182.54617188 55.72179687 181.84234375 55.96484375 181.1171875 C57.48643199 177.72251952 59.46588881 175.26144193 61.8125 172.375 C66.94879601 165.90405377 71.15818813 159.06328651 75.27880859 151.91601562 C76.57839678 149.68665671 77.94887442 147.50312223 79.3125 145.3125 C95.64200156 118.72273187 95.64200156 118.72273187 103.265625 89.6875 C101.7710313 86.10047511 99.09945289 84.39110621 96 82.25 C95.34757324 81.78577637 94.69514648 81.32155273 94.02294922 80.84326172 C85.04663078 74.56046231 75.67624882 68.82849117 66.25 63.25 C65.49686523 62.80366211 64.74373047 62.35732422 63.96777344 61.89746094 C58.57482166 58.795153 53.05903622 56.45658508 47.25 54.25 C45.58010064 53.58490927 43.91083026 52.91823715 42.2421875 52.25 C27.62560475 46.49696506 13.48500243 42.43890913 -2.10595703 40.37573242 C-7.35077034 39.6426775 -11.84597245 38.26176585 -16.75 36.25 C-16.75 35.59 -16.75 34.93 -16.75 34.25 C-18.235 33.755 -18.235 33.755 -19.75 33.25 C-19.75 32.59 -19.75 31.93 -19.75 31.25 C-20.41 31.25 -21.07 31.25 -21.75 31.25 C-24.51425694 25.83666349 -25.69068651 21.33310607 -24.75 15.25 C-22.99158995 9.89913932 -20.50191173 6.37930773 -15.75 3.25 C-15.09386719 2.72535156 -14.43773437 2.20070313 -13.76171875 1.66015625 C-9.23156067 -0.46096835 -4.93439446 -0.10654563 0 0 Z " fill="#E47858" transform="translate(529.75,368.75)"/>
<path d="M0 0 C5.66388666 3.31372622 10.52281085 7.98911033 15.44726562 12.29443359 C17.79295038 14.31748033 20.20877528 16.24963191 22.625 18.1875 C46.75976255 37.89579955 67.79128605 63.14763311 76.0625 93.6875 C76.239021 94.297146 76.41554199 94.90679199 76.59741211 95.53491211 C77.56684939 100.02180371 77.29029443 104.67842868 77.3125 109.25 C77.3434375 110.80170898 77.3434375 110.80170898 77.375 112.38476562 C77.45858638 129.07069758 70.54347306 144.20762401 58.9453125 156.125 C44.06306898 169.35366091 27.35918468 174.99479589 8.00097656 178.30200195 C5.85807824 178.68613148 5.85807824 178.68613148 3.0625 179.6875 C-10.06876959 180.96931181 -23.12841861 179.52221249 -36.0625 177.3125 C-37.36034424 177.09126465 -38.65818848 176.8700293 -39.99536133 176.64208984 C-45.23564801 175.69949522 -50.01631267 174.74135407 -54.9375 172.6875 C-56.071875 172.419375 -57.20625 172.15125 -58.375 171.875 C-68.3239954 169.46255563 -77.73094666 165.47098827 -86.94140625 161.0703125 C-89.48336776 159.8970995 -91.98865569 158.92835372 -94.625 158 C-109.19606639 152.27060011 -122.39633524 141.88299689 -134.9375 132.6875 C-135.948125 131.94757813 -136.95875 131.20765625 -138 130.4453125 C-142.49560321 127.05956133 -142.49560321 127.05956133 -143.9375 125.6875 C-143.9375 125.0275 -143.9375 124.3675 -143.9375 123.6875 C-144.535625 123.419375 -145.13375 123.15125 -145.75 122.875 C-147.98343283 121.66256504 -149.43688199 120.74097727 -150.9375 118.6875 C-150.73877798 114.26593504 -147.36786537 111.7465024 -144.375 108.875 C-143.56180298 108.08258911 -143.56180298 108.08258911 -142.73217773 107.27416992 C-141.14325765 105.7352055 -139.54236887 104.20980327 -137.9375 102.6875 C-137.14601563 101.92695312 -136.35453125 101.16640625 -135.5390625 100.3828125 C-129.2844249 94.60745747 -129.2844249 94.60745747 -124.9375 94.6875 C-122.1071664 96.37249697 -119.71619376 98.51542074 -117.25 100.6875 C-115.81442447 101.902018 -114.37693168 103.11427351 -112.9375 104.32421875 C-112.2465625 104.90993652 -111.555625 105.4956543 -110.84375 106.09912109 C-100.37780553 114.81984788 -88.23119505 121.8975662 -75.9375 127.6875 C-75.15890625 128.08453125 -74.3803125 128.4815625 -73.578125 128.890625 C-54.43106135 138.28576803 -32.63721923 142.88866666 -11.4375 142.8125 C-10.36113281 142.81636719 -9.28476562 142.82023438 -8.17578125 142.82421875 C1.12923096 142.812885 9.49698094 142.5261215 18.0625 138.6875 C18.90296875 138.31367187 19.7434375 137.93984375 20.609375 137.5546875 C28.03054666 134.06366296 33.02108817 129.9620413 37.0625 122.6875 C41.64338407 109.92366918 40.0912123 101.01012346 34.49780273 89.00756836 C29.17462349 77.9639577 22.35037034 68.24673683 13.2421875 59.95703125 C12.0625 58.6875 12.0625 58.6875 12.0625 56.6875 C11.4025 56.6875 10.7425 56.6875 10.0625 56.6875 C8.35589656 55.06175087 6.69565176 53.38702078 5.0625 51.6875 C-1.31208808 45.5143207 -7.81347026 40.23894352 -15.26953125 35.42578125 C-20.55521465 31.98196117 -25.18333068 28.51362741 -27.9375 22.6875 C-28.81997847 16.84004923 -28.83874722 11.42803317 -25.875 6.1875 C-19.70132992 -2.0440601 -9.48470428 -4.07922663 0 0 Z " fill="#EBA694" transform="translate(929.9375,476.3125)"/>
<path d="M0 0 C6.04033363 0.0674555 10.71033284 0.35308621 15.4375 4.3125 C20.60960925 9.96203472 22.70963254 14.44874579 22.5859375 22.10546875 C22.21938573 27.55551487 19.43513312 31.70366411 15.4375 35.3125 C9.45154168 39.50971313 2.27261366 40.0912717 -4.76806641 41.1027832 C-17.49992127 42.96499214 -30.64446848 45.28305564 -42.1953125 51.1484375 C-44.61483224 52.33823433 -47.00030491 53.16670251 -49.5625 54 C-77.47079048 63.99817459 -103.21331089 83.22228624 -125.37109375 102.5546875 C-128.94852061 105.66875037 -132.64517953 108.62060678 -136.37109375 111.5546875 C-138.48856722 113.25319563 -140.52794925 115.01607942 -142.5625 116.8125 C-145.5625 119.3125 -145.5625 119.3125 -147.5625 119.3125 C-147.5625 119.9725 -147.5625 120.6325 -147.5625 121.3125 C-149.7354233 123.16097311 -151.91652668 124.9046349 -154.1875 126.625 C-155.43035997 127.57855123 -156.67255302 128.53297237 -157.9140625 129.48828125 C-158.52467529 129.9575 -159.13528809 130.42671875 -159.7644043 130.91015625 C-164.91583223 134.92778043 -169.58493683 139.26159784 -174.1484375 143.9375 C-177.72287467 147.56045894 -181.40386462 150.9744651 -185.26171875 154.29296875 C-187.54452555 156.29672276 -189.77336256 158.35250187 -191.99755859 160.42089844 C-196.46710051 164.57387686 -200.94697508 168.5707964 -205.94140625 172.09375 C-208.89757139 174.31621632 -210.37270168 175.74310504 -211.5625 179.3125 C-213.54496398 180.34682904 -215.54663316 181.34488392 -217.5625 182.3125 C-219.37804159 183.87352491 -219.37804159 183.87352491 -220.5625 185.3125 C-223.50129484 183.96013423 -225.85482911 182.41307341 -228.3125 180.3125 C-228.92609375 179.796875 -229.5396875 179.28125 -230.171875 178.75 C-231.5625 177.3125 -231.5625 177.3125 -231.5625 175.3125 C-232.2225 175.3125 -232.8825 175.3125 -233.5625 175.3125 C-234.91636936 173.66247172 -236.24928142 171.9950613 -237.5625 170.3125 C-238.2225 169.9825 -238.8825 169.6525 -239.5625 169.3125 C-239.5625 168.6525 -239.5625 167.9925 -239.5625 167.3125 C-240.5525 166.9825 -241.5425 166.6525 -242.5625 166.3125 C-242.5625 165.6525 -242.5625 164.9925 -242.5625 164.3125 C-243.5525 163.9825 -244.5425 163.6525 -245.5625 163.3125 C-246.46484375 161.51953125 -246.46484375 161.51953125 -246.5625 159.3125 C-242.54083807 153.11387008 -235.30354579 145.42841118 -228.453125 142.37109375 C-226.05150543 141.02638527 -225.75660228 139.75841209 -224.5625 137.3125 C-223.01135276 135.77782512 -221.40024686 134.30257487 -219.75 132.875 C-216.21641843 129.80115824 -212.84631836 126.65258316 -209.5625 123.3125 C-204.04947224 117.72530595 -198.56564909 112.21702591 -192.58984375 107.12109375 C-190.14821366 104.94291508 -187.86201968 102.64001992 -185.5625 100.3125 C-180.44560945 95.14902167 -175.08215738 90.4365355 -169.52734375 85.75390625 C-168.98376221 85.2954834 -168.44018066 84.83706055 -167.88012695 84.36474609 C-166.74776187 83.40992043 -165.61478191 82.45582352 -164.48120117 81.50244141 C-161.10670619 78.65425274 -157.8125691 75.74069876 -154.5625 72.75 C-148.84219079 67.56395478 -142.74278782 62.9269111 -136.5625 58.3125 C-135.94648926 57.85020996 -135.33047852 57.38791992 -134.69580078 56.91162109 C-126.84931674 51.03427769 -118.92678377 45.43987395 -110.5625 40.3125 C-109.27033726 39.50078916 -107.97863955 38.68833739 -106.6875 37.875 C-106.05457031 37.483125 -105.42164063 37.09125 -104.76953125 36.6875 C-103.0507369 35.61667591 -101.34171754 34.5301561 -99.63671875 33.4375 C-92.17905395 28.72175507 -84.65552086 24.81373597 -76.5625 21.3125 C-75.45132813 20.82007813 -74.34015625 20.32765625 -73.1953125 19.8203125 C-52.93454956 10.95335729 -31.71327015 3.25694265 -9.49609375 1.55859375 C-6.16772216 1.13498282 -3.80973479 0.0767603 0 0 Z " fill="#EBA694" transform="translate(1020.5625,368.6875)"/>
<path d="M0 0 C8.45970083 6.47062748 14.72005378 13.41453539 17 24 C18.28567667 33.97796897 15.96574364 43.03213336 10.390625 51.421875 C4.3686764 58.76975723 -3.58142561 63.51634271 -13 65 C-23.16809466 65.19577559 -31.88479737 63.28928204 -40 57 C-40 56.34 -40 55.68 -40 55 C-40.5775 54.773125 -41.155 54.54625 -41.75 54.3125 C-47.17530994 51.14773587 -49.28234397 45.89279828 -51.23828125 40.171875 C-53.22410273 31.9027107 -53.3453906 22.52654447 -49 15 C-43.90707025 6.82910025 -37.09837397 -0.06668045 -27.90234375 -3.33984375 C-18.49154621 -5.48038855 -8.32210075 -5.19265854 0 0 Z " fill="#E57858" transform="translate(788,390)"/>
</svg>
