<?xml version="1.0" encoding="UTF-8"?>
<svg version="1.1" xmlns="http://www.w3.org/2000/svg" width="1536" height="1024">
<path d="M0 0 C506.88 0 1013.76 0 1536 0 C1536 337.92 1536 675.84 1536 1024 C1029.12 1024 522.24 1024 0 1024 C0 686.08 0 348.16 0 0 Z " fill="#BE5D43" transform="translate(0,0)"/>
<path d="M0 0 C0.93005859 0.00193359 1.86011719 0.00386719 2.81835938 0.00585938 C3.78193359 0.01810547 4.74550781 0.03035156 5.73828125 0.04296875 C6.71345703 0.04361328 7.68863281 0.04425781 8.69335938 0.04492188 C15.91043527 0.09012277 15.91043527 0.09012277 17.05078125 1.23046875 C19.50698469 1.68148377 21.95988443 2.08971014 24.42578125 2.48046875 C43.08014883 5.6091382 61.03342042 10.94908177 78.05078125 19.23046875 C79.23285156 19.80152344 80.41492188 20.37257813 81.6328125 20.9609375 C98.57902888 29.23118621 114.1700072 39.68684996 129.05078125 51.23046875 C129.91316406 51.89820313 130.77554688 52.5659375 131.6640625 53.25390625 C136.76594864 57.26876533 141.64470019 61.47646031 146.43359375 65.859375 C147.80818517 67.1047138 149.18763955 68.34575967 150.60620117 69.54077148 C157.4644771 75.3580343 163.74291747 81.77220835 170.0871582 88.13647461 C172.10842393 90.16309855 174.13497699 92.18432422 176.16210938 94.20507812 C182.33398484 100.37367601 188.46144349 106.51959689 194.05078125 113.23046875 C194.73527344 114.019375 195.41976562 114.80828125 196.125 115.62109375 C196.65738281 116.2346875 197.18976563 116.84828125 197.73828125 117.48046875 C199.59965249 119.61853031 201.45501151 121.62433413 203.48828125 123.60546875 C205.05078125 125.23046875 205.05078125 125.23046875 205.05078125 127.23046875 C206.04078125 127.56046875 207.03078125 127.89046875 208.05078125 128.23046875 C208.05078125 128.89046875 208.05078125 129.55046875 208.05078125 130.23046875 C208.71078125 130.23046875 209.37078125 130.23046875 210.05078125 130.23046875 C215.05078125 135.70665923 215.05078125 135.70665923 215.05078125 138.23046875 C216.04078125 138.56046875 217.03078125 138.89046875 218.05078125 139.23046875 C219.55859375 140.7265625 219.55859375 140.7265625 221.17578125 142.66796875 C223.83290555 145.80315307 226.53173625 148.88095165 229.30078125 151.91796875 C233.23939879 156.27715054 237.03158388 160.74179587 240.79907227 165.24804688 C244.61831865 169.78789311 248.60357084 174.1564117 252.69873047 178.44873047 C256.05078125 182.01696335 256.05078125 182.01696335 256.05078125 184.23046875 C256.91703125 184.57078125 256.91703125 184.57078125 257.80078125 184.91796875 C260.70307525 186.61097358 262.2388682 188.41193734 264.05078125 191.23046875 C263.70475661 194.60420901 262.55018631 196.04524742 259.98828125 198.16796875 C259.26253906 198.77253906 258.53679687 199.37710938 257.7890625 200 C256.43361328 201.10408203 256.43361328 201.10408203 255.05078125 202.23046875 C253.89795052 203.19212484 252.74564671 204.15441281 251.59375 205.1171875 C239.23478095 215.37374387 226.4044329 225.16215945 212.703125 233.5703125 C211.16333986 234.53409554 209.63414401 235.51615982 208.13598633 236.54345703 C202.26139993 240.56789835 196.19005862 243.97008564 189.86328125 247.23046875 C188.84733887 247.75519775 187.83139648 248.27992676 186.78466797 248.82055664 C161.29703561 261.872871 134.29088821 269.35537579 105.55078125 269.48046875 C104.36613281 269.50109375 103.18148437 269.52171875 101.9609375 269.54296875 C93.71426332 269.57974322 86.63248055 269.0707289 80.17578125 263.35546875 C79.62148438 262.88367188 79.0671875 262.411875 78.49609375 261.92578125 C74.68565587 257.45624061 74.61758982 252.50250726 74.73828125 246.8828125 C75.34913379 241.69820156 78.29886471 238.77529901 82.05078125 235.48046875 C86.78617896 231.92892047 89.33094026 230.99759658 95.30078125 231.16796875 C96.64579163 231.18475383 97.99085627 231.19748501 99.3359375 231.20703125 C100.08117676 231.21250977 100.82641602 231.21798828 101.59423828 231.22363281 C136.3102895 231.3202388 167.82253061 221.28846117 195.65625 200.0390625 C198.65978376 197.77048806 201.79613666 195.75382875 204.98046875 193.75 C207.6059021 191.82303099 209.76757469 189.54683001 212.05078125 187.23046875 C211.45609543 186.63578293 210.86140961 186.04109711 210.248703 185.4283905 C194.84939575 170.02908325 179.4500885 154.629776 164.05078125 139.23046875 C163.16142632 138.40298882 163.16142632 138.40298882 162.25410461 137.55879211 C161.05078125 136.23046875 161.05078125 136.23046875 161.05078125 134.23046875 C160.49648438 134.00488281 159.9421875 133.77929688 159.37109375 133.546875 C156.3657197 131.84180589 154.32091122 129.65246924 151.92578125 127.16796875 C148.8097236 123.76593392 148.8097236 123.76593392 145.05078125 121.23046875 C145.05078125 120.57046875 145.05078125 119.91046875 145.05078125 119.23046875 C144.06078125 119.23046875 143.07078125 119.23046875 142.05078125 119.23046875 C141.96570313 120.03355469 141.880625 120.83664062 141.79296875 121.6640625 C140.84795831 126.20508634 139.1100186 130.09355653 137.17578125 134.29296875 C136.77286865 135.17073975 136.36995605 136.04851074 135.95483398 136.95288086 C134.66994935 139.72019222 133.36521178 142.47707753 132.05078125 145.23046875 C131.65101074 146.0709375 131.25124023 146.91140625 130.83935547 147.77734375 C121.46270562 167.21049831 109.1522348 184.95682003 96.55078125 202.41796875 C96.1125 203.02946777 95.67421875 203.6409668 95.22265625 204.27099609 C94.21735843 205.63084091 93.1416747 206.93827948 92.05078125 208.23046875 C91.39078125 208.23046875 90.73078125 208.23046875 90.05078125 208.23046875 C89.81359375 208.771875 89.57640625 209.31328125 89.33203125 209.87109375 C87.70730368 212.86297012 85.70059355 215.34206274 83.55078125 217.98046875 C82.75671875 218.9653125 81.96265625 219.95015625 81.14453125 220.96484375 C80.108125 222.08632813 80.108125 222.08632813 79.05078125 223.23046875 C78.39078125 223.23046875 77.73078125 223.23046875 77.05078125 223.23046875 C76.72078125 224.22046875 76.39078125 225.21046875 76.05078125 226.23046875 C75.39078125 226.23046875 74.73078125 226.23046875 74.05078125 226.23046875 C74.05078125 226.89046875 74.05078125 227.55046875 74.05078125 228.23046875 C72.67578125 229.85546875 72.67578125 229.85546875 71.05078125 231.23046875 C70.39078125 231.23046875 69.73078125 231.23046875 69.05078125 231.23046875 C69.05078125 231.89046875 69.05078125 232.55046875 69.05078125 233.23046875 C67.52240856 234.62646271 65.92428026 235.94634524 64.30078125 237.23046875 C61.24126497 239.66408653 58.22012863 242.08190166 55.28125 244.66015625 C37.29894632 260.40410325 11.28032718 276.14888572 -13.01171875 277.60546875 C-20.22254473 276.91872342 -25.25981518 273.74741413 -29.94921875 268.23046875 C-33.19885159 263.09946952 -32.37914832 257.06730924 -31.94921875 251.23046875 C-30.74020648 246.48077771 -28.53581584 244.71009021 -24.57421875 242.10546875 C-19.59731623 239.31549712 -14.51408728 237.71257743 -9.046875 236.15234375 C-4.7998073 234.88839926 -0.90781391 233.20628778 3.05078125 231.23046875 C3.87707031 230.823125 4.70335937 230.41578125 5.5546875 229.99609375 C11.93894529 226.68780296 17.70340343 222.7701332 23.45581055 218.48193359 C27.852324 215.23046875 27.852324 215.23046875 30.05078125 215.23046875 C30.05078125 214.57046875 30.05078125 213.91046875 30.05078125 213.23046875 C31.625 211.6796875 31.625 211.6796875 33.73828125 209.91796875 C36.24880419 207.79402191 38.65901546 205.67545531 40.92578125 203.29296875 C43.05078125 201.23046875 43.05078125 201.23046875 45.05078125 201.23046875 C45.29828125 200.67359375 45.54578125 200.11671875 45.80078125 199.54296875 C47.89240829 195.67345873 50.71383591 192.11237609 54.05078125 189.23046875 C54.71078125 189.23046875 55.37078125 189.23046875 56.05078125 189.23046875 C56.36015625 188.61171875 56.66953125 187.99296875 56.98828125 187.35546875 C57.67578125 185.98046875 58.36328125 184.60546875 59.05078125 183.23046875 C59.71078125 183.23046875 60.37078125 183.23046875 61.05078125 183.23046875 C61.28667969 182.52664063 61.52257812 181.8228125 61.765625 181.09765625 C63.28721324 177.70298827 65.26667006 175.24191068 67.61328125 172.35546875 C72.74957726 165.88452252 76.95896938 159.04375526 81.07958984 151.89648438 C82.37917803 149.66712546 83.74965567 147.48359098 85.11328125 145.29296875 C101.23229724 118.76389738 101.23229724 118.76389738 109.171875 89.73828125 C107.32006075 85.59589537 103.78154581 83.62202035 100.11328125 81.10546875 C99.31656006 80.54504883 98.51983887 79.98462891 97.69897461 79.40722656 C84.09257571 69.47288943 84.09257571 69.47288943 69.05078125 62.23046875 C69.05078125 61.57046875 69.05078125 60.91046875 69.05078125 60.23046875 C68.34566406 60.12089844 67.64054688 60.01132812 66.9140625 59.8984375 C63.73592377 59.15701632 61.16921472 57.97645482 58.23828125 56.54296875 C40.80003504 48.36206312 22.6759237 42.7767257 3.54370117 40.3059082 C-1.65570234 39.5996754 -6.08882712 38.22306419 -10.94921875 36.23046875 C-10.94921875 35.57046875 -10.94921875 34.91046875 -10.94921875 34.23046875 C-12.43421875 33.73546875 -12.43421875 33.73546875 -13.94921875 33.23046875 C-13.94921875 32.57046875 -13.94921875 31.91046875 -13.94921875 31.23046875 C-14.60921875 31.23046875 -15.26921875 31.23046875 -15.94921875 31.23046875 C-19.03862 25.1803913 -20.37173044 19.70696035 -18.2578125 13.0546875 C-14.83671352 5.45383578 -8.57730101 -0.04134225 0 0 Z " fill="#FEFEFE" transform="translate(523.94921875,368.76953125)"/>
<path d="M0 0 C1.36511719 -0.05607422 1.36511719 -0.05607422 2.7578125 -0.11328125 C10.36540121 0.92585054 16.04688746 5.74104496 21.75 10.5625 C23.14282919 11.72053333 24.53605829 12.87808583 25.9296875 14.03515625 C26.59967773 14.59477051 27.26966797 15.15438477 27.95996094 15.73095703 C31.32577486 18.51062845 34.78829095 21.16530736 38.25 23.82421875 C39.054375 24.56091797 39.054375 24.56091797 39.875 25.3125 C39.875 25.9725 39.875 26.6325 39.875 27.3125 C40.41253906 27.52777344 40.95007813 27.74304688 41.50390625 27.96484375 C62.59737888 39.95372029 79.71057122 71.08954659 86.83203125 93.296875 C91.44702881 110.23960575 89.57124958 127.29599244 81.8125 143 C71.75098628 160.5320797 55.20277577 171.60195755 36.1875 177.625 C34.08479202 178.19292847 31.9804707 178.75490089 29.875 179.3125 C28.9274585 179.58054443 27.97991699 179.84858887 27.00366211 180.12475586 C18.64698208 182.30800792 10.84579913 182.71952549 2.27734375 182.59375 C0.08576855 182.5619304 -2.10508919 182.55269905 -4.296875 182.546875 C-14.96050542 182.47699458 -14.96050542 182.47699458 -16.125 181.3125 C-18.18430972 181.05624407 -20.24789819 180.8343871 -22.3125 180.625 C-60.00539618 176.09131545 -94.02465014 157.38283228 -124.125 135.3125 C-125.135625 134.57257813 -126.14625 133.83265625 -127.1875 133.0703125 C-131.68310321 129.68456133 -131.68310321 129.68456133 -133.125 128.3125 C-133.125 127.6525 -133.125 126.9925 -133.125 126.3125 C-133.723125 126.044375 -134.32125 125.77625 -134.9375 125.5 C-137.17093283 124.28756504 -138.62438199 123.36597727 -140.125 121.3125 C-139.92624772 116.89026167 -136.55474175 114.37264268 -133.5625 111.5 C-133.02326904 110.97172607 -132.48403809 110.44345215 -131.9284668 109.89916992 C-127.79496639 105.87893297 -123.52579075 102.03810093 -119.125 98.3125 C-118.795 97.9825 -118.465 97.6525 -118.125 97.3125 C-116.45882885 97.27186168 -114.79111905 97.269779 -113.125 97.3125 C-113.125 97.9725 -113.125 98.6325 -113.125 99.3125 C-112.28388672 99.68375 -112.28388672 99.68375 -111.42578125 100.0625 C-108.72746366 101.528479 -106.64117162 103.30934162 -104.3125 105.3125 C-97.60271161 110.87127416 -90.49411633 115.67297039 -83.125 120.3125 C-82.55410645 120.67230957 -81.98321289 121.03211914 -81.39501953 121.40283203 C-71.47377331 127.56414319 -60.96143437 132.03774366 -50.125 136.3125 C-49.46814209 136.57772461 -48.81128418 136.84294922 -48.13452148 137.11621094 C-35.56755323 142.04889203 -21.60846981 145.08188193 -8.125 145.3125 C-7.38427246 145.33683105 -6.64354492 145.36116211 -5.88037109 145.38623047 C9.83033473 145.88780168 24.37380932 145.36519292 37.875 136.3125 C38.56464844 135.86003906 39.25429688 135.40757812 39.96484375 134.94140625 C46.07983664 130.37778576 48.31829735 123.58187295 49.875 116.3125 C51.65023779 103.66112179 45.98925403 90.24771801 38.90625 79.98046875 C26.2321076 63.33347017 11.73586736 49.26674842 -5.625 37.5625 C-11.27545241 33.64063994 -15.70135003 29.76718165 -17.6875 23 C-18.5496447 17.67285329 -17.65562986 13.06820379 -15.125 8.3125 C-10.66811096 3.31098093 -6.76717222 0.17907559 0 0 Z " fill="#FEFDFD" transform="translate(919.125,473.6875)"/>
<path d="M0 0 C1.58206057 0.00667536 3.16410534 0.0186375 4.74609375 0.03515625 C5.55240234 0.03966797 6.35871094 0.04417969 7.18945312 0.04882812 C9.18753131 0.06065107 11.18557158 0.07858711 13.18359375 0.09765625 C13.18359375 0.75765625 13.18359375 1.41765625 13.18359375 2.09765625 C13.98796875 2.19046875 13.98796875 2.19046875 14.80859375 2.28515625 C19.70178908 3.95914413 22.51229501 6.95644839 25.05859375 11.28515625 C26.83895909 17.31861658 27.52340037 23.23800224 24.49609375 28.97265625 C19.43583749 35.81084039 13.18084517 38.73737112 4.953125 40.0546875 C2.96808254 40.34422852 0.9823652 40.62916996 -1.00390625 40.91015625 C-12.32820484 42.6609979 -22.97909599 45.41546318 -33.81640625 49.09765625 C-34.51137207 49.32678711 -35.20633789 49.55591797 -35.92236328 49.79199219 C-69.92638865 61.10204456 -98.91880401 83.88853 -126.3203125 106.25 C-126.9198877 106.73710449 -127.51946289 107.22420898 -128.13720703 107.72607422 C-129.65328566 108.96441818 -131.1556403 110.21951806 -132.65625 111.4765625 C-134.81640625 113.09765625 -134.81640625 113.09765625 -136.81640625 113.09765625 C-137.31140625 114.58265625 -137.31140625 114.58265625 -137.81640625 116.09765625 C-141.26085069 119.09765625 -141.26085069 119.09765625 -143.81640625 119.09765625 C-143.81640625 119.75765625 -143.81640625 120.41765625 -143.81640625 121.09765625 C-145.36880966 122.49091579 -146.9867061 123.81145753 -148.62890625 125.09765625 C-153.85096783 129.25771826 -158.7444557 133.64819927 -163.6015625 138.2265625 C-165.81640625 140.09765625 -165.81640625 140.09765625 -167.81640625 140.09765625 C-167.81640625 140.75765625 -167.81640625 141.41765625 -167.81640625 142.09765625 C-169.49609375 143.82421875 -169.49609375 143.82421875 -171.69140625 145.72265625 C-172.41070313 146.35429688 -173.13 146.9859375 -173.87109375 147.63671875 C-175.81640625 149.09765625 -175.81640625 149.09765625 -177.81640625 149.09765625 C-177.81640625 149.75765625 -177.81640625 150.41765625 -177.81640625 151.09765625 C-179.45403345 152.55167967 -181.15374821 153.93614303 -182.87890625 155.28515625 C-186.2648385 157.98697431 -189.50387384 160.65954109 -192.50390625 163.78515625 C-195.43012753 166.8241957 -198.58631393 169.29383052 -202.01953125 171.73828125 C-205.04389532 174.02627841 -206.59691863 175.4391934 -207.81640625 179.09765625 C-209.47995415 179.77206756 -211.14707567 180.43768835 -212.81640625 181.09765625 C-215.08832041 183.11806373 -215.08832041 183.11806373 -216.81640625 185.09765625 C-219.76597153 183.72821523 -222.34109436 182.21935216 -224.81640625 180.09765625 C-224.81640625 179.43765625 -224.81640625 178.77765625 -224.81640625 178.09765625 C-225.80640625 177.76765625 -226.79640625 177.43765625 -227.81640625 177.09765625 C-227.81640625 176.43765625 -227.81640625 175.77765625 -227.81640625 175.09765625 C-228.47640625 175.09765625 -229.13640625 175.09765625 -229.81640625 175.09765625 C-231.17027561 173.44762797 -232.50318767 171.78021755 -233.81640625 170.09765625 C-234.47640625 169.76765625 -235.13640625 169.43765625 -235.81640625 169.09765625 C-235.81640625 168.43765625 -235.81640625 167.77765625 -235.81640625 167.09765625 C-236.80640625 166.76765625 -237.79640625 166.43765625 -238.81640625 166.09765625 C-238.81640625 165.43765625 -238.81640625 164.77765625 -238.81640625 164.09765625 C-239.80640625 163.76765625 -240.79640625 163.43765625 -241.81640625 163.09765625 C-242.71875 161.3046875 -242.71875 161.3046875 -242.81640625 159.09765625 C-241.4453125 156.984375 -241.4453125 156.984375 -239.37890625 154.78515625 C-238.26708984 153.60179687 -238.26708984 153.60179687 -237.1328125 152.39453125 C-234.46895854 149.75313812 -231.7086485 147.28633253 -228.83984375 144.87109375 C-225.88309039 142.27965355 -223.19086741 139.44694117 -220.48046875 136.6015625 C-218.81640625 135.09765625 -218.81640625 135.09765625 -216.81640625 135.09765625 C-216.81640625 134.43765625 -216.81640625 133.77765625 -216.81640625 133.09765625 C-215.4609375 131.765625 -215.4609375 131.765625 -213.62890625 130.28515625 C-210.4880358 127.73277133 -207.65475051 124.98359469 -204.81640625 122.09765625 C-199.64806023 116.85342913 -194.47661467 111.72654409 -188.87890625 106.94140625 C-186.42715936 104.74969312 -184.12755052 102.43698521 -181.81640625 100.09765625 C-177.63744966 95.88070915 -173.33230673 91.94592361 -168.81640625 88.09765625 C-167.63591879 87.06601884 -166.45631131 86.03337403 -165.27734375 85 C-163.99889034 83.88649778 -162.72024316 82.773218 -161.44140625 81.66015625 C-160.82168945 81.11504395 -160.20197266 80.56993164 -159.56347656 80.00830078 C-155.04323523 76.09765625 -155.04323523 76.09765625 -152.81640625 76.09765625 C-152.81640625 75.43765625 -152.81640625 74.77765625 -152.81640625 74.09765625 C-150.74786474 72.3310916 -148.67029462 70.67419273 -146.50390625 69.03515625 C-145.21013803 68.0401011 -143.91717824 67.04399402 -142.625 66.046875 C-141.97901855 65.54978027 -141.33303711 65.05268555 -140.66748047 64.54052734 C-138.08843241 62.53021687 -135.57803618 60.44128177 -133.06640625 58.34765625 C-125.55154938 52.17316859 -117.56464305 46.88614691 -109.3359375 41.71875 C-107.26522841 40.3864333 -105.2873612 39.00749252 -103.31640625 37.53515625 C-98.76765185 34.22893571 -93.79356885 31.69241702 -88.81640625 29.09765625 C-87.91148437 28.62457031 -87.0065625 28.15148437 -86.07421875 27.6640625 C-62.08255466 15.40239484 -37.48182788 5.75529679 -10.6940918 1.99731445 C-6.77636717 1.44765606 -3.80786968 0.09743781 0 0 Z " fill="#FEFEFE" transform="translate(1016.81640625,368.90234375)"/>
<path d="M0 0 C8.45970083 6.47062748 14.72005378 13.41453539 17 24 C18.28803367 33.9962613 15.91849333 42.92335172 10.4609375 51.38671875 C5.24432167 57.87658442 -2.47964233 63.1786358 -10.73828125 64.8203125 C-21.54371296 65.67877512 -31.37716778 63.68269497 -40 57 C-40 56.34 -40 55.68 -40 55 C-40.5775 54.773125 -41.155 54.54625 -41.75 54.3125 C-47.17530994 51.14773587 -49.28234397 45.89279828 -51.23828125 40.171875 C-53.22410273 31.9027107 -53.3453906 22.52654447 -49 15 C-43.90707025 6.82910025 -37.09837397 -0.06668045 -27.90234375 -3.33984375 C-18.49154621 -5.48038855 -8.32210075 -5.19265854 0 0 Z " fill="#FEFEFE" transform="translate(788,390)"/>
</svg>
