<?xml version="1.0" encoding="UTF-8"?>
<svg version="1.1" xmlns="http://www.w3.org/2000/svg" width="1536" height="1024">
<path d="M0 0 C506.88 0 1013.76 0 1536 0 C1536 337.92 1536 675.84 1536 1024 C1029.12 1024 522.24 1024 0 1024 C0 686.08 0 348.16 0 0 Z " fill="#FEFEFE" transform="translate(0,0)"/>
<path d="M0 0 C2.33836687 0.85560933 4.70375285 1.51351099 7.1015625 2.18359375 C10.84427122 3.29953901 14.16913439 4.67062461 17.61328125 6.49609375 C21.04216418 8.26298995 24.54032234 9.87294585 28.0390625 11.49609375 C28.72315186 11.81416992 29.40724121 12.13224609 30.11206055 12.45996094 C31.75394617 13.22297075 33.39644069 13.9846701 35.0390625 14.74609375 C35.0390625 15.40609375 35.0390625 16.06609375 35.0390625 16.74609375 C35.8434375 16.95234375 36.6478125 17.15859375 37.4765625 17.37109375 C41.46230463 18.90945036 44.59444175 20.97764156 48.0859375 23.40625 C49.99330199 24.78037452 49.99330199 24.78037452 52.0390625 25.74609375 C52.0390625 26.40609375 52.0390625 27.06609375 52.0390625 27.74609375 C52.76609375 27.99875 53.493125 28.25140625 54.2421875 28.51171875 C57.2385043 29.83411555 59.29042116 31.38939615 61.7890625 33.49609375 C65.04146601 36.18138666 68.28530566 38.62060112 71.8515625 40.87109375 C75.69336589 43.3628928 78.17527269 46.14799886 81.0390625 49.74609375 C82.13646214 50.73720349 83.25647704 51.7035061 84.390625 52.65234375 C89.88098301 57.3970438 95.00916535 62.49367542 100.14672852 67.61352539 C101.83096176 69.28811101 103.52560427 70.9516585 105.22070312 72.61523438 C111.92260117 79.25311108 117.94380486 86.15292437 123.6652832 93.65063477 C126.38999928 97.20372282 129.26201162 100.58157553 132.2265625 103.93359375 C136.52100837 108.8675492 140.51848477 113.91312557 144.2734375 119.27734375 C145.43576669 120.90254739 146.65470268 122.48893232 147.9296875 124.02734375 C149.47090024 125.88790687 150.87261975 127.63100876 152.0390625 129.74609375 C151.51517754 134.2515044 148.27175282 136.8212787 145.0390625 139.74609375 C144.39453125 140.3596875 143.75 140.97328125 143.0859375 141.60546875 C124.61483485 158.82003381 99.9350862 178.17625934 74.0390625 180.74609375 C74.0390625 181.40609375 74.0390625 182.06609375 74.0390625 182.74609375 C62.5145907 185.18928177 51.53270841 186.80763327 39.7265625 186.93359375 C38.94885498 186.94672607 38.17114746 186.9598584 37.36987305 186.97338867 C33.16836489 186.97929797 29.81403335 186.81601271 26.0390625 184.74609375 C23.20599524 181.53017957 21.77203663 178.93336328 21.5390625 174.68359375 C22.09290998 170.32204483 22.92803674 168.76823306 26.0390625 165.74609375 C29.37511672 163.5220576 30.92943635 163.38266748 34.859375 163.0703125 C36.02734619 162.9669458 37.19531738 162.8635791 38.39868164 162.75708008 C39.64125732 162.65032959 40.88383301 162.5435791 42.1640625 162.43359375 C52.20861636 161.48495215 61.47034434 160.00287783 71.01171875 156.734375 C74.0390625 155.74609375 74.0390625 155.74609375 77.0390625 155.74609375 C77.0390625 155.08609375 77.0390625 154.42609375 77.0390625 153.74609375 C78.8292686 153.07551488 80.62127739 152.40974685 82.4140625 151.74609375 C83.41179687 151.37484375 84.40953125 151.00359375 85.4375 150.62109375 C88.0390625 149.74609375 88.0390625 149.74609375 90.0390625 149.74609375 C90.0390625 149.08609375 90.0390625 148.42609375 90.0390625 147.74609375 C90.78736328 147.36130859 90.78736328 147.36130859 91.55078125 146.96875 C100.00904013 142.45869096 109.75617364 137.06345342 116.0390625 129.74609375 C116.0390625 126.5172961 115.48597543 125.20263843 113.2265625 122.89453125 C112.5046875 122.18554688 111.7828125 121.4765625 111.0390625 120.74609375 C109.68643347 119.1371197 108.35460065 117.51053334 107.0390625 115.87109375 C105.80294543 114.35630295 104.56678754 112.84154505 103.32958984 111.32763672 C102.06952293 109.78342305 100.81400009 108.23550498 99.55859375 106.6875 C92.94298121 98.67661686 85.75537642 91.27401967 78.4140625 83.93359375 C77.91685699 83.43548187 77.41965149 82.93737 76.90737915 82.42416382 C71.93528038 76.97590856 71.93528038 76.97590856 66.0390625 72.74609375 C66.0390625 74.39609375 66.0390625 76.04609375 66.0390625 77.74609375 C65.3790625 77.74609375 64.7190625 77.74609375 64.0390625 77.74609375 C63.85730469 78.83277344 63.85730469 78.83277344 63.671875 79.94140625 C62.78966671 85.03106948 61.87463903 89.89492721 60.0390625 94.74609375 C59.3790625 94.74609375 58.7190625 94.74609375 58.0390625 94.74609375 C57.95011719 95.57753906 57.86117187 96.40898437 57.76953125 97.265625 C56.89787843 101.41879432 55.30425383 104.69505781 53.3515625 108.43359375 C52.99143066 109.13621338 52.63129883 109.83883301 52.26025391 110.56274414 C51.19625994 112.6291026 50.11978941 114.68844727 49.0390625 116.74609375 C48.22115234 118.31617188 48.22115234 118.31617188 47.38671875 119.91796875 C41.97355451 130.08380504 35.35373729 139.13847806 28.26318359 148.18115234 C27.14576549 149.60968247 26.03909748 151.04660484 24.93359375 152.484375 C13.08563168 167.69044209 -7.10924144 188.69721069 -27.2109375 191.62109375 C-28.1184375 191.66234375 -29.0259375 191.70359375 -29.9609375 191.74609375 C-29.9609375 192.40609375 -29.9609375 193.06609375 -29.9609375 193.74609375 C-33.60836899 194.8739778 -37.09504817 194.94738439 -40.8984375 194.99609375 C-42.70634766 195.03476562 -42.70634766 195.03476562 -44.55078125 195.07421875 C-49.00757581 194.64538628 -51.49593802 193.05954156 -54.7734375 190.12109375 C-56.64137839 186.38521196 -56.61058646 182.83377261 -55.9609375 178.74609375 C-54.00448574 175.20943095 -52.65556093 174.0499915 -48.9609375 172.43359375 C-45.9609375 171.74609375 -45.9609375 171.74609375 -41.9609375 171.74609375 C-41.9609375 171.08609375 -41.9609375 170.42609375 -41.9609375 169.74609375 C-41.30609375 169.55015625 -40.65125 169.35421875 -39.9765625 169.15234375 C-27.66923221 165.11943326 -18.19417108 157.63845354 -8.9609375 148.74609375 C-7.70990234 147.555 -7.70990234 147.555 -6.43359375 146.33984375 C10.08670295 130.25228209 30.15224131 104.06955853 35.0390625 80.74609375 C35.6990625 80.74609375 36.3590625 80.74609375 37.0390625 80.74609375 C37.16023437 80.10542969 37.28140625 79.46476562 37.40625 78.8046875 C38.39585477 73.69680442 39.52417201 68.72359106 41.0390625 63.74609375 C41.6990625 63.74609375 42.3590625 63.74609375 43.0390625 63.74609375 C43.3690625 60.77609375 43.6990625 57.80609375 44.0390625 54.74609375 C36.49037276 49.04209989 28.81519605 43.84697623 20.5390625 39.24609375 C19.78641113 38.82537598 19.03375977 38.4046582 18.25830078 37.97119141 C14.26822199 35.79405625 10.42657597 34.02347109 6.0390625 32.74609375 C6.0390625 32.08609375 6.0390625 31.42609375 6.0390625 30.74609375 C2.0790625 29.75609375 -1.8809375 28.76609375 -5.9609375 27.74609375 C-5.9609375 27.08609375 -5.9609375 26.42609375 -5.9609375 25.74609375 C-6.65058594 25.62492187 -7.34023438 25.50375 -8.05078125 25.37890625 C-16.49283492 23.87346458 -24.71527844 22.10199634 -32.9609375 19.74609375 C-33.6828125 19.6275 -34.4046875 19.50890625 -35.1484375 19.38671875 C-40.99285021 18.39948687 -45.32599186 16.61413305 -48.9609375 11.74609375 C-50.08005142 8.97862976 -50.3849425 6.7023508 -49.9609375 3.74609375 C-46.07809231 -3.48403177 -46.07809231 -3.48403177 -42.28515625 -4.86328125 C-28.63276159 -7.15780136 -12.88193136 -4.79963852 0 0 Z " fill="#E57C5B" transform="translate(622.9609375,306.25390625)"/>
<path d="M0 0 C0.99 0.33 1.98 0.66 3 1 C3 1.66 3 2.32 3 3 C3.89074219 3.25394531 4.78148437 3.50789063 5.69921875 3.76953125 C9.06389882 5.02382027 11.08642597 6.3863861 13.8125 8.6875 C14.67488281 9.40421875 15.53726563 10.1209375 16.42578125 10.859375 C17.27527344 11.56578125 18.12476563 12.2721875 19 13 C20.49556763 14.15161256 21.99539108 15.29772545 23.5 16.4375 C37.63696623 27.42736774 56.90532829 44.46420589 60 63 C60.66 63 61.32 63 62 63 C65.434703 76.82059066 67.56174939 91.45292903 60.60546875 104.64453125 C59.15986871 106.85135865 57.63072497 108.92771143 56 111 C55.4225 111.86625 54.845 112.7325 54.25 113.625 C48.660653 119.52486628 41.39773832 123.75537793 34 127 C33.01 127 32.02 127 31 127 C31 127.66 31 128.32 31 129 C10.59272431 133.9759395 -9.45335323 132.4198934 -30 129 C-30 128.34 -30 127.68 -30 127 C-31.28003906 126.91234375 -32.56007813 126.8246875 -33.87890625 126.734375 C-39.30425297 126.12743224 -43.93371233 124.358478 -48.9375 122.25 C-49.81051758 121.89164062 -50.68353516 121.53328125 -51.58300781 121.1640625 C-57.51904796 118.70012945 -63.35814771 116.08817178 -69 113 C-69 112.34 -69 111.68 -69 111 C-70.07701172 110.84724609 -70.07701172 110.84724609 -71.17578125 110.69140625 C-83.11566384 107.76836445 -94.04755971 96.00218127 -103 88 C-102.26865161 83.11362831 -100.9619089 81.94839732 -97 79 C-96.360625 78.195625 -95.72125 77.39125 -95.0625 76.5625 C-92.54759656 73.437923 -90.30790367 71.2952801 -87 69 C-83.15335943 69.2795347 -81.21279143 70.33653205 -78.5 73 C-70.35393601 80.46978698 -61.07606848 86.47372996 -51 91 C-51 91.66 -51 92.32 -51 93 C-49.95585938 93.17402344 -49.95585938 93.17402344 -48.890625 93.3515625 C-45.68141146 94.07146716 -42.8047487 95.15752769 -39.75 96.375 C-25.95859888 101.74606194 -13.6609572 104.35298375 1.25 104.1875 C2.36890625 104.18685547 3.4878125 104.18621094 4.640625 104.18554688 C10.51611496 104.15436798 16.19055419 103.88558625 22 103 C22 102.34 22 101.68 22 101 C22.53109375 100.76925781 23.0621875 100.53851563 23.609375 100.30078125 C29.26731837 97.68862856 32.73254606 95.24413302 35.08203125 89.23046875 C37.42080114 80.99998919 36.89521941 71.66656259 33 64 C30.85463406 60.5130874 28.47317022 57.2598543 26 54 C25.45214844 53.22398437 24.90429688 52.44796875 24.33984375 51.6484375 C19.97499423 45.64289987 14.89404449 41.45256622 9 37 C7.8516162 36.09175721 6.70592048 35.18010842 5.5625 34.265625 C0.45067457 30.18447094 -4.60711228 26.15208474 -10.125 22.625 C-13.46633622 20.43477589 -16.0378151 18.58312025 -18 15 C-18.74438537 10.80437338 -18.92772233 8.61741064 -16.8125 4.9296875 C-12.02277333 -0.75811292 -7.09041131 -0.99356082 0 0 Z " fill="#ECA692" transform="translate(876,376)"/>
<path d="M0 0 C1.11084961 0.00737183 1.11084961 0.00737183 2.24414062 0.01489258 C15.31024817 0.29207828 25.97403383 5.09013742 35.5390625 13.93359375 C43.91892097 23.2123825 45.86550382 32.07463925 45.9375 44.125 C45.958125 44.97642578 45.97875 45.82785156 46 46.70507812 C46.05829644 56.27298083 43.10762017 63.54993043 37.6875 71.3125 C37.11 72.17875 36.5325 73.045 35.9375 73.9375 C32.63428702 77.42422481 28.7431725 79.77953486 24.6875 82.3125 C23.841875 82.89 22.99625 83.4675 22.125 84.0625 C15.49862221 87.46064246 8.59990557 87.65140364 1.3125 87.625 C0.43078125 87.64111328 -0.4509375 87.65722656 -1.359375 87.67382812 C-10.87354117 87.68080332 -18.29607903 85.81552431 -25.3125 79.3125 C-26.7975 78.8175 -26.7975 78.8175 -28.3125 78.3125 C-28.27322388 80.061073 -28.27322388 80.061073 -28.2331543 81.8449707 C-28.14271038 86.16655309 -28.08527234 90.48805176 -28.0378418 94.81030273 C-28.01268422 96.68153954 -27.97855407 98.55267795 -27.93530273 100.42358398 C-27.87470323 103.11206303 -27.84630397 105.79924436 -27.82421875 108.48828125 C-27.79841232 109.32587479 -27.7726059 110.16346832 -27.74601746 111.02644348 C-27.74487305 113.3918457 -27.74487305 113.3918457 -28.3125 117.3125 C-31.55836412 120.08521096 -34.21601823 120.74354513 -38.4375 120.75 C-39.28570313 120.76933594 -40.13390625 120.78867187 -41.0078125 120.80859375 C-43.3125 120.3125 -43.3125 120.3125 -44.93228149 118.74647522 C-46.78850619 115.47307692 -46.7325584 112.53491662 -46.70068359 108.87280273 C-46.70594055 108.12910934 -46.71119751 107.38541595 -46.71661377 106.6191864 C-46.72981133 104.16127474 -46.72107056 101.70401201 -46.7109375 99.24609375 C-46.71295981 97.52938208 -46.71587256 95.81267126 -46.71963501 94.09596252 C-46.72405928 90.49382364 -46.71762963 86.89190786 -46.70361328 83.28979492 C-46.68661139 78.69918273 -46.69630434 74.10910025 -46.71433067 69.51850796 C-46.72524307 65.96916314 -46.7216867 62.41994091 -46.7139473 58.87059212 C-46.71196111 57.17991128 -46.71434828 55.48921892 -46.72138596 53.79855156 C-46.77549434 37.13089799 -44.17715697 24.65923868 -32.625 12 C-23.70567674 3.56561082 -12.05051235 -0.09561699 0 0 Z " fill="#47362A" transform="translate(1023.3125,566.6875)"/>
<path d="M0 0 C0.86109375 -0.03738281 1.7221875 -0.07476563 2.609375 -0.11328125 C6.37376893 0.49369943 7.68747828 1.44827934 10.25 4.3125 C11.01161336 7.92613864 10.91186908 11.50288288 10.86523438 15.18383789 C10.87078339 16.29151016 10.8763324 17.39918243 10.88204956 18.54042053 C10.89387102 22.20577092 10.86954495 25.86989212 10.84375 29.53515625 C10.84203966 32.07816003 10.8421038 34.62116557 10.84387207 37.16416931 C10.84221743 42.49480384 10.82407171 47.82500799 10.79199219 53.15551758 C10.75508093 59.31886803 10.7463193 65.48175423 10.7532897 71.64520079 C10.75959353 77.57514534 10.74863115 83.5049519 10.72932434 89.43487358 C10.72227964 91.95831969 10.71917158 94.48177988 10.72001648 97.00523567 C10.71822453 100.52726977 10.69689403 104.04863735 10.66992188 107.57055664 C10.67285248 108.61947083 10.67578308 109.66838501 10.67880249 110.74908447 C10.6617778 112.18541985 10.6617778 112.18541985 10.64440918 113.65077209 C10.63881611 114.89984392 10.63881611 114.89984392 10.63311005 116.17414951 C10.15894147 118.82074835 9.37708853 119.71010363 7.25 121.3125 C4.65625 121.7109375 4.65625 121.7109375 1.75 121.6875 C0.31140625 121.69910156 0.31140625 121.69910156 -1.15625 121.7109375 C-3.75 121.3125 -3.75 121.3125 -5.39082336 120.31376648 C-7.56953407 117.10580911 -7.14030655 113.63806416 -7.09057617 109.89379883 C-7.09123329 108.60567039 -7.09123329 108.60567039 -7.09190369 107.29151917 C-7.08981223 104.45062593 -7.06646443 101.6103215 -7.04296875 98.76953125 C-7.03737406 96.80084048 -7.03310337 94.83214553 -7.03010559 92.8634491 C-7.0186468 87.67986536 -6.98917066 82.49653349 -6.95599365 77.31304932 C-6.92531508 72.02448941 -6.91160499 66.73588885 -6.89648438 61.44726562 C-6.86430201 51.06889971 -6.81309311 40.69072079 -6.75 30.3125 C-7.41 30.3125 -8.07 30.3125 -8.75 30.3125 C-9.06517578 31.30830078 -9.06517578 31.30830078 -9.38671875 32.32421875 C-11.23489465 36.37537797 -13.83782047 39.62278194 -16.5625 43.125 C-20.18125225 47.79940804 -23.5772424 52.45940744 -26.58081055 57.55737305 C-27.80442579 59.39420119 -29.16431707 60.78453551 -30.75 62.3125 C-36.26024755 69.31017634 -41.41809373 76.58601601 -46.56274414 83.85473633 C-50.33531759 89.17836583 -50.33531759 89.17836583 -52.46484375 89.8671875 C-55.28661968 90.27384062 -57.01725819 90.19868324 -59.75 89.3125 C-63.17558647 85.97489007 -65.76560425 82.20189369 -68.43212891 78.24609375 C-70.19349392 75.66180125 -72.05030942 73.15416065 -73.91162109 70.64135742 C-75.31043425 68.75278902 -76.69747464 66.85606926 -78.08203125 64.95703125 C-83.67610005 57.30124651 -89.39312668 49.74572992 -95.25 42.2890625 C-96.60425953 40.50454343 -97.84941107 38.69457179 -99.0625 36.8125 C-100.50886988 34.22842301 -100.50886988 34.22842301 -102.75 33.3125 C-102.74111755 34.35597595 -102.73223511 35.3994519 -102.7230835 36.47454834 C-102.64203117 46.30362581 -102.58205072 56.13263557 -102.54275131 65.96197128 C-102.52186786 71.0154792 -102.49353629 76.06871755 -102.44824219 81.12207031 C-102.40481161 85.99797468 -102.3808686 90.8736196 -102.37049103 95.74970245 C-102.36309465 97.61088394 -102.34865134 99.47205108 -102.32707977 101.33312225 C-102.29808256 103.93821504 -102.29404241 106.54223298 -102.29589844 109.14746094 C-102.28151733 109.91854187 -102.26713623 110.6896228 -102.25231934 111.48406982 C-102.27943053 114.99601245 -102.4726733 116.94319515 -104.61016846 119.78961182 C-107.32741421 121.72343762 -108.99873398 121.8485682 -112.3125 121.8125 C-113.26253906 121.8228125 -114.21257812 121.833125 -115.19140625 121.84375 C-117.75 121.3125 -117.75 121.3125 -119.38610268 119.57384586 C-120.94608178 116.98739582 -121.12681079 115.59514041 -121.13095093 112.59971619 C-121.1394104 111.65616776 -121.14786987 110.71261932 -121.15658569 109.74047852 C-121.150513 108.71229004 -121.14444031 107.68410156 -121.13818359 106.62475586 C-121.14344055 105.53659073 -121.14869751 104.4484256 -121.15411377 103.32728577 C-121.16732751 99.72715949 -121.1585711 96.1274746 -121.1484375 92.52734375 C-121.15045768 90.02917903 -121.15336866 87.53101488 -121.15713501 85.03285217 C-121.16156011 79.79651372 -121.15540623 74.56029036 -121.14111328 69.32397461 C-121.12477854 63.2697066 -121.13008192 57.21574155 -121.1465925 51.16148084 C-121.16184273 45.33620609 -121.1602342 39.51104655 -121.1514473 33.68576241 C-121.14944223 31.20696534 -121.15191524 28.72816056 -121.15888596 26.24937248 C-121.16648028 22.78965453 -121.15492434 19.33052368 -121.13818359 15.87084961 C-121.14425629 14.8406369 -121.15032898 13.81042419 -121.15658569 12.74899292 C-121.14389648 11.33790001 -121.14389648 11.33790001 -121.13095093 9.89830017 C-121.12981985 9.08033431 -121.12868877 8.26236845 -121.12752342 7.41961575 C-120.65837478 4.80110144 -119.80397736 3.94918465 -117.75 2.3125 C-114.21924573 0.54712287 -110.59536095 0.6673901 -106.75 1.3125 C-101.54661749 4.06106092 -98.53204264 8.84499234 -95.47265625 13.69921875 C-93.41989109 16.81327746 -91.16705121 19.74870747 -88.875 22.6875 C-85.06454903 27.58624531 -81.36612759 32.54842217 -77.734375 37.58203125 C-74.93434711 41.43482553 -72.06330584 45.23281664 -69.1953125 49.03515625 C-67.37357862 51.462877 -65.58394169 53.91207913 -63.8046875 56.37109375 C-63.30751221 57.05655273 -62.81033691 57.74201172 -62.2980957 58.44824219 C-61.32178196 59.79663014 -60.34885386 61.14747721 -59.37963867 62.50097656 C-57.04144868 65.92771459 -57.04144868 65.92771459 -53.75 68.3125 C-53.54375 67.65121094 -53.3375 66.98992187 -53.125 66.30859375 C-51.23447779 62.18918883 -48.54927215 58.91893367 -45.75 55.375 C-41.62324949 50.06966547 -37.55807022 44.74546062 -33.6875 39.25 C-29.66159125 33.54669756 -25.50873626 27.94989311 -21.30517578 22.37646484 C-17.19900635 16.92771492 -13.15530366 11.43538054 -9.13891602 5.92016602 C-4.92052494 0.13829878 -4.92052494 0.13829878 0 0 Z " fill="#48372B" transform="translate(577.75,532.6875)"/>
<path d="M0 0 C0.93900146 -0.0427002 1.87800293 -0.08540039 2.84545898 -0.12939453 C8.85648033 -0.18829986 12.03463643 0.77912215 16.36962891 5.00976562 C18.83754895 7.93940078 19.04458675 10.60920752 18.94140625 14.40625 C18.51998685 17.19490186 17.50041226 19.17461323 15.52734375 21.19140625 C5.912773 27.80512535 -10.90654766 29.5 -22.375 29.5 C-22.375 30.16 -22.375 30.82 -22.375 31.5 C-23.220625 31.74234375 -24.06625 31.9846875 -24.9375 32.234375 C-32.5716058 34.45821549 -32.5716058 34.45821549 -39.8125 37.6875 C-43.15022023 39.38563836 -45.67934586 40.13043459 -49.375 40.5 C-49.375 41.16 -49.375 41.82 -49.375 42.5 C-50.26960937 42.93570313 -51.16421875 43.37140625 -52.0859375 43.8203125 C-59.39197361 47.40584182 -66.5049709 51.12085864 -73.375 55.5 C-73.91705078 55.83837891 -74.45910156 56.17675781 -75.01757812 56.52539062 C-84.6528762 62.56463892 -93.17314602 69.39038379 -101.63427734 76.96972656 C-104.12951859 79.16329909 -106.72847491 81.22474463 -109.3125 83.3125 C-117.55042141 90.07970103 -124.8841434 97.90940046 -132.32592773 105.5246582 C-132.84125061 106.04851105 -133.35657349 106.57236389 -133.88751221 107.11209106 C-135.3126268 108.56137047 -136.73203578 110.01625386 -138.15112305 111.47143555 C-140.375 113.5 -140.375 113.5 -142.375 113.5 C-142.62636719 114.08136719 -142.87773438 114.66273438 -143.13671875 115.26171875 C-144.53280723 117.78524777 -146.05586218 119.37650007 -148.1875 121.3125 C-149.18716797 122.25029297 -149.18716797 122.25029297 -150.20703125 123.20703125 C-152.375 124.5 -152.375 124.5 -154.8828125 124.4609375 C-159.61363595 122.63682689 -162.28696536 118.36810184 -165.375 114.5 C-166.06916016 113.64921875 -166.06916016 113.64921875 -166.77734375 112.78125 C-168.4984546 110.47826893 -169.40021732 108.4033336 -170.125 105.625 C-168.90929062 100.55954425 -165.14280485 97.90430605 -161.375 94.5 C-160.4100831 93.50635109 -159.45043084 92.50751377 -158.5 91.5 C-156.375 89.5 -156.375 89.5 -154.375 89.5 C-154.17132812 88.97019531 -153.96765625 88.44039063 -153.7578125 87.89453125 C-151.77428225 84.45977407 -149.07363435 81.94715052 -146.25 79.1875 C-145.65888428 78.60355469 -145.06776855 78.01960938 -144.45874023 77.41796875 C-140.93595811 73.96030721 -137.35075316 70.61921636 -133.58203125 67.4296875 C-131.74555996 65.82399402 -129.96866572 64.18586988 -128.19921875 62.5078125 C-108.14484929 43.5 -108.14484929 43.5 -103.375 43.5 C-103.375 42.84 -103.375 42.18 -103.375 41.5 C-101.28515625 39.984375 -101.28515625 39.984375 -98.4375 38.25 C-94.81397515 36.01084746 -91.21842508 33.75775713 -87.6875 31.375 C-86.25039564 30.41607348 -84.81290577 29.4577244 -83.375 28.5 C-82.66214844 28.02175781 -81.94929687 27.54351562 -81.21484375 27.05078125 C-77.63430819 24.7150674 -74.73884802 22.90911075 -70.375 22.5 C-70.375 21.84 -70.375 21.18 -70.375 20.5 C-68.94070999 19.82645501 -67.50242943 19.16140299 -66.0625 18.5 C-64.86173828 17.943125 -64.86173828 17.943125 -63.63671875 17.375 C-61.375 16.5 -61.375 16.5 -58.375 16.5 C-58.375 15.84 -58.375 15.18 -58.375 14.5 C-56.43941401 13.82779649 -54.50145628 13.16241923 -52.5625 12.5 C-51.48355469 12.12875 -50.40460938 11.7575 -49.29296875 11.375 C-46.375 10.5 -46.375 10.5 -43.375 10.5 C-43.375 9.84 -43.375 9.18 -43.375 8.5 C-42.42238281 8.23445313 -41.46976563 7.96890625 -40.48828125 7.6953125 C-39.23402344 7.34210938 -37.97976563 6.98890625 -36.6875 6.625 C-35.44613281 6.27695312 -34.20476562 5.92890625 -32.92578125 5.5703125 C-29.49696197 4.59663337 -29.49696197 4.59663337 -26.7578125 3.4375 C-18.43169391 0.16165006 -8.8347996 0.2123926 0 0 Z " fill="#ECA692" transform="translate(943.375,301.5)"/>
<path d="M0 0 C6.50564254 4.46557833 12.42030403 8.69944057 14.1875 16.75 C14.8475 16.75 15.5075 16.75 16.1875 16.75 C19.55084959 25.23149027 20.33221124 32.5267148 20.28515625 41.6171875 C20.2837413 42.65191193 20.28232635 43.68663635 20.28086853 44.75271606 C20.27529039 48.04350732 20.26274188 51.33422946 20.25 54.625 C20.24498218 56.86197818 20.24041976 59.09895743 20.23632812 61.3359375 C20.22532812 66.80731508 20.20861177 72.2786526 20.1875 77.75 C14.54957713 80.68420275 12.31938146 81.15731706 6.1875 79.75 C4.47241211 78.43945312 4.47241211 78.43945312 3.1875 76.75 C2.84134077 73.10621861 2.75109731 69.56457761 2.74804688 65.91015625 C2.71063464 61.32489475 2.71063464 61.32489475 0.15234375 57.71875 C-0.49605469 57.3990625 -1.14445313 57.079375 -1.8125 56.75 C-1.39894125 53.85508873 -0.95918395 51.96455826 0.70703125 49.52734375 C4.02857124 43.29616978 3.00644399 33.50857085 1.125 26.8125 C-1.66181587 19.99314873 -6.2869338 15.20992717 -12.75 11.75 C-20.4758195 8.61704699 -29.58796488 8.14810316 -37.58984375 10.6015625 C-44.21704082 13.93215385 -49.68344416 19.67681409 -52.75 26.4375 C-55.45677939 34.97814554 -54.64580953 44.71137199 -50.8125 52.75 C-48.53693879 56.93665308 -48.53693879 56.93665308 -44.8125 59.75 C-44.8125 60.41 -44.8125 61.07 -44.8125 61.75 C-43.905 62.03875 -42.9975 62.3275 -42.0625 62.625 C-38.8125 63.75 -38.8125 63.75 -37.1171875 64.79296875 C-33.70741237 66.20889232 -30.32481878 66.1743904 -26.6875 66.1875 C-25.92920898 66.19209229 -25.17091797 66.19668457 -24.38964844 66.20141602 C-18.71693805 66.0894387 -14.68178291 64.92583704 -9.890625 61.74609375 C-7.14253502 60.42887017 -5.66233367 60.81767668 -2.8125 61.75 C-1.03416147 64.03643526 -0.80208714 65.81991494 -0.375 68.6875 C-0.96100562 72.78953936 -2.72513323 74.10368562 -5.8125 76.75 C-6.4725 77.41 -7.1325 78.07 -7.8125 78.75 C-14.24310212 81.75628669 -20.61487217 82.29816072 -27.625 82.25 C-29.07749146 82.24141968 -29.07749146 82.24141968 -30.55932617 82.23266602 C-43.79815022 81.90272301 -53.07729022 76.54966155 -62.26171875 67.27734375 C-71.67608914 56.74113212 -72.7437355 45.34652873 -72.00292969 31.74609375 C-71.57328944 27.24258268 -70.35028033 22.98804936 -68.8125 18.75 C-68.1525 18.75 -67.4925 18.75 -66.8125 18.75 C-66.56886719 17.86441406 -66.32523438 16.97882812 -66.07421875 16.06640625 C-63.2440312 8.62730647 -55.96124372 1.35867485 -48.8125 -2.25 C-33.5938999 -8.94264997 -14.34265007 -8.64834591 0 0 Z " fill="#48372B" transform="translate(815.8125,573.25)"/>
<path d="M0 0 C0 0.66 0 1.32 0 2 C0.804375 2.165 1.60875 2.33 2.4375 2.5 C11.87018247 6.47165578 18.07224354 14.75181998 22 24 C23.83967833 30.96178583 24.33039428 37.7603592 24.37109375 44.93359375 C24.38012222 45.93334732 24.3891507 46.93310089 24.39845276 47.96315002 C24.41285267 50.0563766 24.42181617 52.14964713 24.42553711 54.24291992 C24.4375607 57.45371034 24.4869508 60.66265356 24.53710938 63.87304688 C24.54656103 65.91405318 24.55380206 67.95507119 24.55859375 69.99609375 C24.57812607 70.9554332 24.59765839 71.91477264 24.61778259 72.90318298 C24.60090159 75.37087162 24.54739748 77.59378585 24 80 C21.42028474 82.28616418 20.05548296 82.93512812 16.6484375 83.14453125 C15.89820313 83.03496094 15.14796875 82.92539062 14.375 82.8125 C13.61960937 82.71582031 12.86421875 82.61914062 12.0859375 82.51953125 C10 82 10 82 7 80 C6.63110352 78.18408203 6.63110352 78.18408203 6.62890625 76.0078125 C6.61150391 75.22019531 6.59410156 74.43257812 6.57617188 73.62109375 C6.56710017 71.9648604 6.56185514 70.30860142 6.56054688 68.65234375 C6.52266549 63.68205812 6.52266549 63.68205812 3.95703125 59.55078125 C3.31121094 59.03902344 2.66539062 58.52726563 2 58 C2.15422523 55.60950899 2.98392384 54.03275897 4.03515625 51.890625 C6.35231182 44.94853947 6.18996342 34.50189811 4 27.4375 C-1.45472958 18.06218353 -8.58189884 13.76450841 -19 11 C-27.38662663 9.66634683 -33.99090673 12.35010972 -40.75 17.1875 C-45.87609837 21.3502454 -47.95544719 25.86634158 -50 32 C-50.67959007 42.05009159 -49.81980244 50.36039511 -45.3125 59.375 C-42.32914839 62.76150723 -39.12459942 64.29810218 -35 66 C-35 66.66 -35 67.32 -35 68 C-27.08 68 -19.16 68 -11 68 C-11 67.34 -11 66.68 -11 66 C-4.68318756 62.96307094 -4.68318756 62.96307094 -1.6875 63.125 C0 64 0 64 2 67 C2.53118133 71.70474891 2.76459182 73.85311227 0.125 77.8125 C-7.30039897 83.01027928 -15.67796866 83.48072341 -24.5 83.375 C-25.46808594 83.38660156 -26.43617188 83.39820313 -27.43359375 83.41015625 C-34.08176155 83.3833851 -39.75135049 82.25341495 -46 80 C-46 79.34 -46 78.68 -46 78 C-46.89589844 77.75636719 -47.79179688 77.51273438 -48.71484375 77.26171875 C-56.18156787 74.3939995 -61.90540779 66.7002418 -66 60 C-69.99008196 49.06942337 -69.85041758 33.2084645 -66.1015625 22.2421875 C-62.23088901 14.3635826 -54.3396387 4.32582786 -46 1 C-45.01 1 -44.02 1 -43 1 C-43 0.34 -43 -0.32 -43 -1 C-28.77523587 -6.204182 -14.09114804 -4.69704935 0 0 Z " fill="#47362A" transform="translate(929,571)"/>
<path d="M0 0 C0 0.66 0 1.32 0 2 C0.825 2.04125 1.65 2.0825 2.5 2.125 C8.93667181 3.73416795 13.39709975 7.6415551 16.9375 13.1875 C19.83923719 18.1745534 20.21111597 22.56321003 20.25 28.25 C20.270625 28.98863281 20.29125 29.72726562 20.3125 30.48828125 C20.36852501 38.42982661 17.43972262 45.17363043 12 51 C2.91723817 58.11589615 -5.72531955 59.2116154 -17 58 C-25.43814851 55.65373177 -30.0824857 50.32596947 -34.8125 43.3125 C-38.4523073 36.2244542 -38.2169541 25.80829146 -36.28125 18.16015625 C-35.34332385 15.94770948 -34.31595033 14.00832942 -33 12 C-32.43925781 11.14341797 -32.43925781 11.14341797 -31.8671875 10.26953125 C-28.85142786 6.22521783 -25.45492132 4.14496212 -21 2 C-20.01 2 -19.02 2 -18 2 C-18 1.34 -18 0.68 -18 0 C-12.14072182 -1.67407948 -5.89014391 -1.52003714 0 0 Z " fill="#FCFBFB" transform="translate(1032,582)"/>
<path d="M0 0 C3.25596733 0.48871245 5.69583031 1.99270531 8.00390625 4.30078125 C8.11855847 7.19576486 8.1687661 10.06785654 8.17749023 12.96386719 C8.18417725 13.87281738 8.19086426 14.78176758 8.19775391 15.71826172 C8.21184086 17.69952788 8.22372318 19.68081063 8.23370171 21.66210175 C8.25006325 24.79727661 8.27330032 27.93232916 8.29859924 31.06744385 C8.3694995 39.98402849 8.42945626 48.90066411 8.48071289 57.81738281 C8.5125119 63.26508027 8.55379483 68.71263943 8.60090828 74.16022491 C8.61692861 76.23821777 8.62925003 78.31624253 8.63781548 80.39427948 C8.64997439 83.30303467 8.67412843 86.2114653 8.70092773 89.12011719 C8.70151688 89.97953918 8.70210602 90.83896118 8.70271301 91.72442627 C8.76839463 97.10664322 9.01462402 101.31149902 13.00390625 105.30078125 C16.09072691 105.60770944 19.15348355 105.67973642 22.25390625 105.76171875 C25.00390625 106.30078125 25.00390625 106.30078125 26.3515625 108.15625 C27.25653569 111.13128161 27.44647844 113.20277592 27.00390625 116.30078125 C25.37890625 119.17578125 25.37890625 119.17578125 22.00390625 121.30078125 C13.98599687 122.45048147 5.73240811 122.19172511 -0.99609375 117.30078125 C-7.64359413 111.06964699 -8.97132143 103.28317748 -9.25679016 94.47389221 C-9.27145127 92.78286355 -9.27564052 91.09171992 -9.27075195 89.40063477 C-9.27586288 88.4676506 -9.28097382 87.53466644 -9.28623962 86.57341003 C-9.30001007 83.52543525 -9.29918989 80.47768945 -9.296875 77.4296875 C-9.30076581 75.29882219 -9.30510127 73.16795766 -9.30986023 71.03709412 C-9.3172931 66.58988925 -9.31705027 62.14276384 -9.31176758 57.69555664 C-9.30594413 51.99010974 -9.32298719 46.28498445 -9.34611225 40.5795908 C-9.36081288 36.18820794 -9.36172687 31.79690351 -9.35860252 27.40550041 C-9.35911651 25.30070287 -9.36436874 23.19590103 -9.37441444 21.0911274 C-9.38670476 18.15892335 -9.38003441 15.22735924 -9.3684082 12.29516602 C-9.37605194 11.42399139 -9.38369568 10.55281677 -9.39157104 9.65524292 C-9.33974071 3.76284476 -9.33974071 3.76284476 -7.71489239 1.57809353 C-5.27463103 -0.23536834 -2.95947474 -0.10355436 0 0 Z " fill="#443328" transform="translate(697.99609375,532.69921875)"/>
<path d="M0 0 C5.42627807 3.34107078 10.94852453 8.05921195 12.5 14.4375 C12.5 15.7575 12.5 17.0775 12.5 18.4375 C13.16 18.4375 13.82 18.4375 14.5 18.4375 C15.22106284 25.93655351 13.17193109 31.89228284 9.5 38.4375 C6.31732504 42.19561396 3.36240255 44.46927542 -1.5 45.4375 C-1.5 46.0975 -1.5 46.7575 -1.5 47.4375 C-4.87902556 48.46095486 -7.97860013 48.5713035 -11.5 48.5625 C-12.53125 48.56507813 -13.5625 48.56765625 -14.625 48.5703125 C-17.09657009 48.45613671 -19.1442958 48.15100656 -21.5 47.4375 C-21.5 46.7775 -21.5 46.1175 -21.5 45.4375 C-22.4075 45.19 -23.315 44.9425 -24.25 44.6875 C-27.62496123 43.38943799 -29.24102121 42.21778159 -31.5 39.4375 C-31.5 38.7775 -31.5 38.1175 -31.5 37.4375 C-32.16 37.4375 -32.82 37.4375 -33.5 37.4375 C-37.76885017 30.14488096 -37.89016135 21.04186115 -35.87890625 12.93359375 C-33.23554064 6.93021675 -27.9866846 2.21642071 -22.203125 -0.734375 C-15.62645639 -2.74919255 -6.35501098 -2.90907182 0 0 Z " fill="#E67D5B" transform="translate(774.5,302.5625)"/>
<path d="M0 0 C1.16273438 -0.01417969 2.32546875 -0.02835938 3.5234375 -0.04296875 C6.625 0.1875 6.625 0.1875 9.625 2.1875 C9.91140158 4.84980033 10.00339379 7.27866553 9.96557617 9.94189453 C9.96623329 11.14202179 9.96623329 11.14202179 9.96690369 12.36639404 C9.96480923 15.01794618 9.94144771 17.66887047 9.91796875 20.3203125 C9.91237512 22.15591079 9.90810392 23.99151355 9.90510559 25.82711792 C9.89363844 30.66384191 9.86415527 35.50029663 9.83099365 40.33691406 C9.80033298 45.27014523 9.78660883 50.20341981 9.77148438 55.13671875 C9.73928729 64.82043096 9.68806845 74.50394311 9.625 84.1875 C4.48844589 86.01061498 -0.3700981 87.56784363 -5.5859375 85.171875 C-6.17632813 84.84703125 -6.76671875 84.5221875 -7.375 84.1875 C-7.39812312 73.38291915 -7.41591493 62.57834414 -7.42681217 51.77374363 C-7.43204107 46.7572753 -7.43913883 41.74082385 -7.45043945 36.72436523 C-7.4612681 31.88740306 -7.46727679 27.05045716 -7.46987724 22.21348381 C-7.47173153 20.36381715 -7.47535222 18.51415143 -7.48073006 16.66449165 C-7.4879402 14.08302986 -7.48899095 11.50163618 -7.48852539 8.92016602 C-7.49212067 8.14764999 -7.49571594 7.37513397 -7.49942017 6.57920837 C-7.48601617 -0.24386771 -6.66643305 0.03679047 0 0 Z " fill="#49372B" transform="translate(636.375,567.8125)"/>
<path d="M0 0 C3.82158012 2.43191462 5.32820787 4.48462362 6.75 8.75 C7.27867716 14.17910777 7.26652211 18.32178697 3.75 22.75 C1.35638331 25.5425528 -0.58711076 26.52828143 -4.30078125 27.0234375 C-8.43440861 27.20905807 -11.34938967 27.18530097 -14.6875 24.5625 C-18.90876808 19.92940089 -19.7197401 16.10841994 -19.56640625 9.96484375 C-18.91313647 5.39195532 -16.41233604 2.69243463 -12.9375 -0.125 C-8.28014967 -2.07458851 -4.66898443 -1.79576324 0 0 Z " fill="#FEFBFA" transform="translate(772.25,700.25)"/>
<path d="M0 0 C0.66 0 1.32 0 2 0 C2 36.96 2 73.92 2 112 C5.96 112 9.92 112 14 112 C14 83.62 14 55.24 14 26 C14.66 26.33 15.32 26.66 16 27 C16.06940417 38.17842605 16.12276241 49.35680114 16.15543652 60.53539848 C16.1711157 65.72566189 16.19239496 70.91577826 16.22631836 76.10595703 C16.25883162 81.1115171 16.27683602 86.11693544 16.28463173 91.12259293 C16.29018972 93.03564817 16.30104261 94.94869535 16.31719017 96.86169052 C16.33885787 99.53410568 16.34197143 102.2059296 16.34057617 104.87841797 C16.351362 105.67539093 16.36214783 106.47236389 16.3732605 107.29348755 C16.36076355 109.49459839 16.36076355 109.49459839 16 113 C12.65418921 115.23054053 11.35990189 115.29683128 7.4375 115.3125 C6.46683594 115.32925781 5.49617188 115.34601563 4.49609375 115.36328125 C3.67238281 115.24339844 2.84867187 115.12351562 2 115 C-0.12645058 111.81032413 -0.24868921 111.0397342 -0.24050903 107.38728333 C-0.24325836 106.44077408 -0.24600769 105.49426483 -0.24884033 104.51907349 C-0.24164978 103.4825766 -0.23445923 102.44607971 -0.22705078 101.37817383 C-0.22734283 100.28533585 -0.22763489 99.19249786 -0.22793579 98.06654358 C-0.22654007 94.44662596 -0.2109673 90.826913 -0.1953125 87.20703125 C-0.19158324 84.70025241 -0.18873586 82.19347211 -0.18673706 79.68669128 C-0.17987545 73.75812501 -0.16410513 67.82962463 -0.14403808 61.90109223 C-0.11949512 54.48941313 -0.10874934 47.07772495 -0.09765625 39.66601562 C-0.07619414 26.44397296 -0.04243322 13.22199114 0 0 Z " fill="#32251E" transform="translate(458,539)"/>
<path d="M0 0 C2.79313985 1.86209323 3.73780239 2.5560886 4.625 5.75 C5.07708548 10.72294029 4.78236025 13.80329969 1.625 17.75 C-1.89310135 20.48630105 -6.11479096 20.14966033 -10.375 19.75 C-13.72620457 18.91219886 -15.1698778 17.94403452 -17.6875 15.5625 C-19.87968298 11.90886171 -20.0383439 9.95117804 -19.375 5.75 C-14.93049272 -1.83280441 -7.83798483 -2.90295734 0 0 Z " fill="#4C392E" transform="translate(643.375,534.25)"/>
<path d="M0 0 C1.4370809 -0.05422947 2.87475462 -0.09289723 4.3125 -0.125 C5.11300781 -0.14820313 5.91351562 -0.17140625 6.73828125 -0.1953125 C9 0 9 0 12 2 C12.28640158 4.66230033 12.37839379 7.09116553 12.34057617 9.75439453 C12.34123329 10.95452179 12.34123329 10.95452179 12.34190369 12.17889404 C12.33980923 14.83044618 12.31644771 17.48137047 12.29296875 20.1328125 C12.28737512 21.96841079 12.28310392 23.80401355 12.28010559 25.63961792 C12.26863844 30.47634191 12.23915527 35.31279663 12.20599365 40.14941406 C12.17533298 45.08264523 12.16160883 50.01591981 12.14648438 54.94921875 C12.11428729 64.63293096 12.06306845 74.31644311 12 84 C7.4260174 85.62344171 3.88284312 86.36169208 -1 86 C-2.32 85.34 -3.64 84.68 -5 84 C-5 56.94 -5 29.88 -5 2 C-4.34 2 -3.68 2 -3 2 C-2.67 28.4 -2.34 54.8 -2 82 C1.96 82.33 5.92 82.66 10 83 C9.67 56.6 9.34 30.2 9 3 C6.36 2.67 3.72 2.34 1 2 C0.67 1.34 0.34 0.68 0 0 Z " fill="#352821" transform="translate(634,568)"/>
<path d="M0 0 C3.03978021 0.68164768 4.80055419 2.23591662 6.93359375 4.43359375 C8.15748295 6.88137214 7.94995775 8.16749916 7.68359375 10.87109375 C7.6165625 11.65355469 7.54953125 12.43601562 7.48046875 13.2421875 C6.82928985 15.85155437 6.03853287 16.79474829 3.93359375 18.43359375 C0.29576743 19.64620252 -2.24376624 19.82903927 -6.06640625 19.43359375 C-9.14145261 17.40537168 -10.73222254 15.93606199 -11.546875 12.2734375 C-11.80598207 8.07870408 -11.39856669 5.94221442 -9.06640625 2.37109375 C-5.72174711 0.21100139 -3.89742861 -0.24312882 0 0 Z " fill="#E68265" transform="translate(575.06640625,707.56640625)"/>
<path d="M0 0 C3.70718433 0.81785983 5.13329673 2.33819937 7.16015625 5.4765625 C7.83111598 9.0811866 7.51936498 12.33906818 6.41015625 15.8515625 C4.75490347 18.00339112 3.77375868 18.65121436 1.16015625 19.4765625 C-3.92708239 20.12256106 -3.92708239 20.12256106 -6.83984375 19.4765625 C-9.93443611 16.89773553 -11.39407609 15.35097899 -12.31640625 11.47265625 C-12.58587414 7.73556213 -11.91946977 5.5998544 -9.90234375 2.4765625 C-6.33149918 0.14458237 -4.19478356 -0.26611315 0 0 Z " fill="#E68062" transform="translate(645.83984375,707.5234375)"/>
<path d="M0 0 C3.57692573 0.098077 4.62734229 0.39821333 7.75 2.4375 C10.41097189 6.55771454 10.22684328 8.58341051 9.6875 13.4375 C8.8502966 16.08864409 8.21534856 17.04650107 6 18.6875 C2.70044404 19.75762626 0.13712955 19.8006189 -3.3125 19.4375 C-6.26105414 17.89912393 -7.85956386 16.7767371 -8.9453125 13.56640625 C-9.58711984 9.95453305 -9.54583646 7.94861797 -8 4.5625 C-5.3561038 1.23314924 -4.24877237 0.1213935 0 0 Z " fill="#E57F61" transform="translate(864.3125,707.5625)"/>
<path d="M0 0 C3.82158012 2.43191462 5.32820787 4.48462362 6.75 8.75 C7.27867716 14.17910777 7.26652211 18.32178697 3.75 22.75 C1.35638331 25.5425528 -0.58711076 26.52828143 -4.30078125 27.0234375 C-8.43440861 27.20905807 -11.34938967 27.18530097 -14.6875 24.5625 C-18.90876808 19.92940089 -19.7197401 16.10841994 -19.56640625 9.96484375 C-18.91313647 5.39195532 -16.41233604 2.69243463 -12.9375 -0.125 C-8.28014967 -2.07458851 -4.66898443 -1.79576324 0 0 Z M-13.1875 5.25 C-15.3889931 8.35110655 -16.00257426 11.00424693 -15.7265625 14.78125 C-14.79374194 18.63486938 -13.32835765 20.18470196 -10.25 22.75 C-7.39089886 23.55124004 -5.11633866 23.50125812 -2.25 22.75 C0.9366503 20.9801177 0.9366503 20.9801177 2.75 17.75 C3.70482759 13.07725969 3.41302995 9.81084792 0.875 5.75 C-1.83774518 3.19682807 -2.82228745 2.80649034 -6.5625 2.3125 C-10.41709688 2.42462684 -10.41709688 2.42462684 -13.1875 5.25 Z " fill="#E68061" transform="translate(772.25,700.25)"/>
<path d="M0 0 C2.475 0.495 2.475 0.495 5 1 C5.99 3.97 6.98 6.94 8 10 C9.32 6.7 10.64 3.4 12 0 C13.65 0.33 15.3 0.66 17 1 C17.99 4.3 18.98 7.6 20 11 C20.474375 9.741875 20.94875 8.48375 21.4375 7.1875 C21.70433594 6.47980469 21.97117187 5.77210938 22.24609375 5.04296875 C22.86225186 3.37327604 23.43719235 1.68842296 24 0 C25.32 0 26.64 0 28 0 C26.3186083 6.48707154 24.46937673 12.7677635 22 19 C20.68 19 19.36 19 18 19 C16.68 15.04 15.36 11.08 14 7 C12.68 10.96 11.36 14.92 10 19 C8.68 19 7.36 19 6 19 C4.99619084 16.20964954 3.9968055 13.41785145 3 10.625 C2.57074219 9.43390625 2.57074219 9.43390625 2.1328125 8.21875 C1.86210938 7.45820312 1.59140625 6.69765625 1.3125 5.9140625 C1.06113281 5.2123291 0.80976562 4.5105957 0.55078125 3.78759766 C0 2 0 2 0 0 Z " fill="#E68365" transform="translate(532,708)"/>
<path d="M0 0 C2.5625 1.625 2.5625 1.625 4 4 C4 5.98 4 7.96 4 10 C-0.62 10 -5.24 10 -10 10 C-9.01 11.65 -8.02 13.3 -7 15 C-1.44946714 14.25640327 -1.44946714 14.25640327 4 13 C3.1875 15.4375 3.1875 15.4375 2 18 C-1.63782632 19.21260877 -4.17735999 19.39544552 -8 19 C-10.9375 17.125 -10.9375 17.125 -13 14 C-13.84581315 9.40738299 -13.82582392 5.50802629 -11.5625 1.375 C-7.72468777 -0.68431388 -4.25670646 -0.76542612 0 0 Z " fill="#E57F61" transform="translate(699,708)"/>
<path d="M0 0 C3 2.1875 3 2.1875 5 5 C5 6.65 5 8.3 5 10 C0.38 10 -4.24 10 -9 10 C-8.01 11.65 -7.02 13.3 -6 15 C-2.37400578 15.41725678 -2.37400578 15.41725678 1 15 C1 14.34 1 13.68 1 13 C2.32 13 3.64 13 5 13 C4.6875 14.875 4.6875 14.875 4 17 C0.27849987 19.48100009 -2.69040685 19.62883168 -7 19 C-10 17.6875 -10 17.6875 -12 15 C-12.83881936 10.10812429 -12.94985574 5.70182488 -10.5 1.3125 C-6.97706372 -0.53704155 -3.83074537 -0.87993359 0 0 Z " fill="#E57F60" transform="translate(821,708)"/>
<path d="M0 0 C2.5 1.625 2.5 1.625 4 4 C4 5.98 4 7.96 4 10 C-0.62 10 -5.24 10 -10 10 C-9.01 11.65 -8.02 13.3 -7 15 C-1.44946714 14.25640327 -1.44946714 14.25640327 4 13 C3.1875 15.4375 3.1875 15.4375 2 18 C-1.63782632 19.21260877 -4.17735999 19.39544552 -8 19 C-11.07504636 16.97177793 -12.66581629 15.50246824 -13.48046875 11.83984375 C-13.73957582 7.64511033 -13.33216044 5.50862067 -11 1.9375 C-6.83994881 -0.74919973 -4.89701312 -0.6995733 0 0 Z " fill="#E57F60" transform="translate(956,708)"/>
<path d="M0 0 C6.27 0 12.54 0 19 0 C19 0.99 19 1.98 19 3 C16.69 3 14.38 3 12 3 C12 10.92 12 18.84 12 27 C10.35 27 8.7 27 7 27 C7 19.08 7 11.16 7 3 C4.69 3 2.38 3 0 3 C0 2.01 0 1.02 0 0 Z " fill="#E78A6E" transform="translate(511,700)"/>
<path d="M0 0 C1.32 0 2.64 0 4 0 C4.67305018 1.60149886 5.33822227 3.20631029 6 4.8125 C6.37125 5.70582031 6.7425 6.59914063 7.125 7.51953125 C8 10 8 10 8 13 C8.66 13 9.32 13 10 13 C10.1546875 12.01 10.1546875 12.01 10.3125 11 C11.19213564 7.16158991 12.56969896 3.66903309 14 0 C15.32 0 16.64 0 18 0 C16.35041996 6.14975013 14.27847456 12.08494787 11.9375 18 C11.6801709 18.6587915 11.4228418 19.31758301 11.15771484 19.99633789 C10.02894163 22.80367786 9.16207286 24.83792714 7 27 C3.375 27.125 3.375 27.125 0 27 C0 26.01 0 25.02 0 24 C1.65 23.67 3.3 23.34 5 23 C6.45229003 17.6555727 5.25323494 14.13001787 3.0625 9.25 C0 2.17433481 0 2.17433481 0 0 Z " fill="#E68164" transform="translate(964,708)"/>
<path d="M0 0 C0.99 0 1.98 0 3 0 C3 0.66 3 1.32 3 2 C3.99 1.34 4.98 0.68 6 0 C12.05307263 -0.6603352 12.05307263 -0.6603352 15.20703125 1.5390625 C17.64317217 4.88278533 17.44480455 7.78647656 17.25 11.75 C17.23195313 12.44738281 17.21390625 13.14476562 17.1953125 13.86328125 C17.14838554 15.57611539 17.07664605 17.28823824 17 19 C15.68 19 14.36 19 13 19 C12.67 14.38 12.34 9.76 12 5 C7.52297636 3.93462795 7.52297636 3.93462795 5 4 C4.67 8.95 4.34 13.9 4 19 C2.68 19 1.36 19 0 19 C0 12.73 0 6.46 0 0 Z " fill="#E68467" transform="translate(920,708)"/>
<path d="M0 0 C-1.71581355 2.12840553 -2.64921893 2.92943893 -5.36914062 3.4765625 C-6.74875977 3.55003906 -6.74875977 3.55003906 -8.15625 3.625 C-9.17976562 3.69203125 -10.20328125 3.7590625 -11.2578125 3.828125 C-12.32773437 3.88484375 -13.39765625 3.9415625 -14.5 4 C-22.72560738 4.4490406 -30.12698545 5.54280685 -38 8 C-39.97916667 8.58333333 -41.95833333 9.16666667 -43.9375 9.75 C-44.81277344 10.01296875 -45.68804688 10.2759375 -46.58984375 10.546875 C-49.15179708 11.02853884 -50.59225402 10.96956214 -53 10 C-53.33 9.34 -53.66 8.68 -54 8 C-53.04738281 7.73445313 -52.09476563 7.46890625 -51.11328125 7.1953125 C-49.85902344 6.84210938 -48.60476563 6.48890625 -47.3125 6.125 C-45.45044922 5.60292969 -45.45044922 5.60292969 -43.55078125 5.0703125 C-40.12196197 4.09663337 -40.12196197 4.09663337 -37.3828125 2.9375 C-25.83114664 -1.60741771 -12.15267575 -0.21271682 0 0 Z " fill="#F1AE97" transform="translate(954,302)"/>
<path d="M0 0 C3.19448727 0.0696979 3.95878065 0.25033549 6.625 2.25 C8.125 4.375 8.125 4.375 8.125 6.375 C6.805 6.375 5.485 6.375 4.125 6.375 C3.795 5.715 3.465 5.055 3.125 4.375 C1.475 4.375 -0.175 4.375 -1.875 4.375 C-1.238603 7.4586385 -1.238603 7.4586385 0.9375 8.2890625 C1.659375 8.52367187 2.38125 8.75828125 3.125 9 C7.05548128 10.30548128 7.05548128 10.30548128 8.125 11.375 C8.4375 13.75 8.4375 13.75 8.125 16.375 C6.33802449 18.53426208 4.95275588 19.25341815 2.18359375 19.66015625 C-0.91437142 19.79137761 -3.24070328 19.79125722 -5.875 18.0625 C-6.875 16.375 -6.875 16.375 -6.875 13.375 C-5.555 13.375 -4.235 13.375 -2.875 13.375 C-2.545 14.035 -2.215 14.695 -1.875 15.375 C-0.225 15.375 1.425 15.375 3.125 15.375 C3.455 14.385 3.785 13.395 4.125 12.375 C2.10677083 11.91927083 0.08854167 11.46354167 -1.9296875 11.0078125 C-3.875 10.375 -3.875 10.375 -5.875 8.375 C-6.125 5.375 -6.125 5.375 -5.875 2.375 C-3.875 0.375 -3.875 0.375 0 0 Z " fill="#E68467" transform="translate(606.875,707.625)"/>
<path d="M0 0 C1.32 0 2.64 0 4 0 C4.33 4.62 4.66 9.24 5 14 C6.65 14.33 8.3 14.66 10 15 C12.18994248 11.71508627 12.35277339 10.16904361 12.625 6.3125 C12.69976563 5.31863281 12.77453125 4.32476563 12.8515625 3.30078125 C12.90054688 2.54152344 12.94953125 1.78226563 13 1 C13.99 1 14.98 1 16 1 C16 6.94 16 12.88 16 19 C15.01 19 14.02 19 13 19 C13 18.34 13 17.68 13 17 C12.01 17.66 11.02 18.32 10 19 C3.91955751 19.54289665 3.91955751 19.54289665 1.29296875 17.9921875 C-0.76381132 14.8231306 -0.31162115 11.45656959 -0.1875 7.8125 C-0.17396484 7.06291016 -0.16042969 6.31332031 -0.14648438 5.54101562 C-0.11118539 3.69370233 -0.05737917 1.84675934 0 0 Z " fill="#E68366" transform="translate(880,708)"/>
<path d="M0 0 C1.9375 1.3125 1.9375 1.3125 3 3 C3 3.99 3 4.98 3 6 C1.68 6 0.36 6 -1 6 C-1 5.01 -1 4.02 -1 3 C-2.65 3.33 -4.3 3.66 -6 4 C-5.35932024 7.08759559 -5.35932024 7.08759559 -3.15234375 7.94921875 C-2.42144531 8.19285156 -1.69054687 8.43648437 -0.9375 8.6875 C-0.20402344 8.93886719 0.52945313 9.19023438 1.28515625 9.44921875 C1.85105469 9.63097656 2.41695312 9.81273437 3 10 C3.1875 13.375 3.1875 13.375 3 17 C-0.79324712 19.52883142 -3.54907942 19.61200158 -8 19 C-10 17.6875 -10 17.6875 -11 16 C-11 15.01 -11 14.02 -11 13 C-9.68 13 -8.36 13 -7 13 C-6.67 13.66 -6.34 14.32 -6 15 C-4.35 15 -2.7 15 -1 15 C-0.67 14.01 -0.34 13.02 0 12 C-3.3 11.01 -6.6 10.02 -10 9 C-10.1875 5.625 -10.1875 5.625 -10 2 C-6.30513897 -0.46324069 -4.36706908 -0.38991688 0 0 Z " fill="#E68164" transform="translate(719,708)"/>
<path d="M0 0 C0.99 0.33 1.98 0.66 3 1 C4.69904533 8.09948335 5.27410091 14.7530951 5.1953125 22.0390625 C5.1924826 23.04593109 5.18965271 24.05279968 5.18673706 25.09017944 C5.17564829 28.26858001 5.15056543 31.44668632 5.125 34.625 C5.11495557 36.79556881 5.1058323 38.9661421 5.09765625 41.13671875 C5.07574616 46.42457755 5.04238336 51.71226774 5 57 C4.34 57 3.68 57 3 57 C2.38221486 48.50874045 1.98009987 40.02140936 1.74609375 31.51171875 C1.72535294 30.76063843 1.70461212 30.00955811 1.6832428 29.23571777 C1.57940381 25.41005472 1.48260843 21.58431835 1.39282227 17.75830078 C1.35569846 16.31412588 1.31851031 14.86995263 1.28125 13.42578125 C1.23581055 11.49859253 1.23581055 11.49859253 1.18945312 9.5324707 C1.01496084 6.27895419 0.6083154 3.19765794 0 0 Z " fill="#3D2F27" transform="translate(948,594)"/>
<path d="M0 0 C2.01259799 3.03094847 1.61977392 6.14862427 1.4921875 9.65234375 C1.47188477 10.70518555 1.47188477 10.70518555 1.45117188 11.77929688 C1.41588932 13.50814204 1.36208333 15.2365914 1.3046875 16.96484375 C0.3146875 16.96484375 -0.6753125 16.96484375 -1.6953125 16.96484375 C-2.0253125 12.34484375 -2.3553125 7.72484375 -2.6953125 2.96484375 C-4.6753125 2.96484375 -6.6553125 2.96484375 -8.6953125 2.96484375 C-10.88525498 6.24975748 -11.04808589 7.79580014 -11.3203125 11.65234375 C-11.39507813 12.64621094 -11.46984375 13.64007812 -11.546875 14.6640625 C-11.59585938 15.42332031 -11.64484375 16.18257812 -11.6953125 16.96484375 C-12.6853125 16.96484375 -13.6753125 16.96484375 -14.6953125 16.96484375 C-14.6953125 11.35484375 -14.6953125 5.74484375 -14.6953125 -0.03515625 C-3.19630064 -1.95165823 -3.19630064 -1.95165823 0 0 Z " fill="#E57C5C" transform="translate(800.6953125,709.03515625)"/>
<path d="M0 0 C1.8125 1.0625 1.8125 1.0625 3 3 C3.6384 8.9584 3.6384 8.9584 1.8125 11.9375 C-0.66049093 13.38718434 -2.17884512 13.42317323 -5 13 C-6.8125 11.9375 -6.8125 11.9375 -8 10 C-8.6384 4.0416 -8.6384 4.0416 -6.8125 1.0625 C-4.33950907 -0.38718434 -2.82115488 -0.42317323 0 0 Z " fill="#FDF8F6" transform="translate(867,711)"/>
<path d="M0 0 C1.8125 1.0625 1.8125 1.0625 3 3 C3.6384 8.9584 3.6384 8.9584 1.8125 11.9375 C-0.66049093 13.38718434 -2.17884512 13.42317323 -5 13 C-6.8125 11.9375 -6.8125 11.9375 -8 10 C-8.6384 4.0416 -8.6384 4.0416 -6.8125 1.0625 C-4.33950907 -0.38718434 -2.82115488 -0.42317323 0 0 Z " fill="#FDF8F7" transform="translate(646,711)"/>
<path d="M0 0 C2.9375 0.8125 2.9375 0.8125 4.9375 3.8125 C4.75 7.375 4.75 7.375 3.9375 10.8125 C0.9375 12.8125 0.9375 12.8125 -1.625 12.5625 C-4.0625 11.8125 -4.0625 11.8125 -6.0625 9.8125 C-6.36328125 7.9375 -6.36328125 7.9375 -6.375 5.8125 C-6.39175781 5.11125 -6.40851562 4.41 -6.42578125 3.6875 C-6.30589844 3.06875 -6.18601562 2.45 -6.0625 1.8125 C-3.0625 -0.1875 -3.0625 -0.1875 0 0 Z " fill="#FDF8F7" transform="translate(574.0625,711.1875)"/>
<path d="M0 0 C1.32 0 2.64 0 4 0 C4.08696177 3.93736123 4.14037835 7.87447628 4.1875 11.8125 C4.21263672 12.93205078 4.23777344 14.05160156 4.26367188 15.20507812 C4.27817383 16.81479492 4.27817383 16.81479492 4.29296875 18.45703125 C4.31653442 19.9416687 4.31653442 19.9416687 4.34057617 21.45629883 C4 24 4 24 2.6496582 25.8347168 C0.38893532 27.431643 -1.29968627 27.21894436 -4 27 C-4 26.01 -4 25.02 -4 24 C-3.01 23.67 -2.02 23.34 -1 23 C-0.67 15.41 -0.34 7.82 0 0 Z " fill="#E57C5D" transform="translate(845,708)"/>
<path d="M0 0 C2.475 0.495 2.475 0.495 5 1 C5.33 0.67 5.66 0.34 6 0 C7.66617115 -0.04063832 9.33388095 -0.042721 11 0 C11 0.99 11 1.98 11 3 C9.5459375 3.3403125 9.5459375 3.3403125 8.0625 3.6875 C4.70618959 5.6898418 4.70618959 5.6898418 4.37890625 9.09375 C4.14507847 12.40331244 4.00946487 15.68256258 4 19 C2.68 19 1.36 19 0 19 C0 12.73 0 6.46 0 0 Z " fill="#E78568" transform="translate(659,708)"/>
<path d="M0 0 C2 1 2 1 2.61790466 2.77593994 C3.01616643 5.09409985 3.12013126 7.23327205 3.11352539 9.58496094 C3.11344986 10.48559265 3.11337433 11.38622437 3.11329651 12.31414795 C3.10813522 13.27782288 3.10297394 14.2414978 3.09765625 15.234375 C3.0962413 16.22753723 3.09482635 17.22069946 3.09336853 18.24395752 C3.08777588 21.41266912 3.0752247 24.58130979 3.0625 27.75 C3.05748405 29.89973856 3.05292131 32.04947823 3.04882812 34.19921875 C3.03780886 39.46616999 3.021078 44.73307993 3 50 C2.34 50 1.68 50 1 50 C0.67 33.5 0.34 17 0 0 Z " fill="#2B1F18" transform="translate(833,599)"/>
<path d="M0 0 C0 3 0 3 -2 5.375 C-11.83280185 13.97870162 -21.62560809 17.17876568 -34.5 17.1875 C-35.45003906 17.19974609 -36.40007813 17.21199219 -37.37890625 17.22460938 C-38.29542969 17.22654297 -39.21195313 17.22847656 -40.15625 17.23046875 C-41.40631836 17.23663208 -41.40631836 17.23663208 -42.68164062 17.24291992 C-45.19784261 16.97926986 -46.82646384 16.26216419 -49 15 C-49 14.67 -49 14.34 -49 14 C-42.56844548 13.87389109 -42.56844548 13.87389109 -39.67578125 14.515625 C-29.56993852 16.34500383 -18.33332809 13.98369541 -9.68359375 8.54296875 C-6.16500454 5.9834057 -2.95595252 3.2022819 0 0 Z " fill="#2C211C" transform="translate(1059,637)"/>
<path d="M0 0 C1.875 0.8125 1.875 0.8125 3.875 3.8125 C4.40618133 8.51724891 4.63959182 10.66561227 2 14.625 C-7.86755913 21.53229139 -19.60545173 20.13947408 -31.125 19.8125 C-31.125 19.4825 -31.125 19.1525 -31.125 18.8125 C-30.29476318 18.74518677 -30.29476318 18.74518677 -29.44775391 18.67651367 C-13.14692432 18.34831357 -13.14692432 18.34831357 0.875 11.8125 C1.11712873 9.83121492 1.11712873 9.83121492 1 7.6875 C0.95875 6.40875 0.9175 5.13 0.875 3.8125 C-1.435 3.8125 -3.745 3.8125 -6.125 3.8125 C-6.125 3.1525 -6.125 2.4925 -6.125 1.8125 C-3.90523089 0.46478304 -2.62352224 -0.23148726 0 0 Z " fill="#2E211B" transform="translate(927.125,634.1875)"/>
<path d="M0 0 C0.99 0 1.98 0 3 0 C3 1.65 3 3.3 3 5 C4.32 5 5.64 5 7 5 C7 5.99 7 6.98 7 8 C5.68 8 4.36 8 3 8 C3 12.95 3 17.9 3 23 C2.01 23 1.02 23 0 23 C0 18.05 0 13.1 0 8 C-1.32 8 -2.64 8 -4 8 C-4 7.01 -4 6.02 -4 5 C-2.68 5 -1.36 5 0 5 C0 3.35 0 1.7 0 0 Z " fill="#E57D5D" transform="translate(623,703)"/>
<path d="M0 0 C4.67859786 2.19793779 7.99174651 5.52178053 11.44140625 9.31640625 C11.11140625 10.30640625 10.78140625 11.29640625 10.44140625 12.31640625 C9.78140625 11.40890625 9.12140625 10.50140625 8.44140625 9.56640625 C4.2711237 4.70491664 0.31944601 2.68900961 -6.05859375 1.86328125 C-14.86637163 1.47261368 -20.61850053 2.8296502 -27.55859375 8.31640625 C-27.18340164 5.8648085 -26.98619253 4.65398423 -25 3.0859375 C-16.96636306 -1.00603974 -8.95121369 -2.39154564 0 0 Z " fill="#EF754C" transform="translate(772.55859375,301.68359375)"/>
<path d="M0 0 C0 1.32 0 2.64 0 4 C-0.804375 4.12375 -1.60875 4.2475 -2.4375 4.375 C-3.7059375 4.684375 -3.7059375 4.684375 -5 5 C-6.28446919 7.56893838 -6.32977144 9.76576337 -6.5625 12.625 C-6.64628906 13.62789062 -6.73007812 14.63078125 -6.81640625 15.6640625 C-6.87699219 16.43492187 -6.93757812 17.20578125 -7 18 C-7.99 18 -8.98 18 -10 18 C-10 12.39 -10 6.78 -10 1 C-6.33418546 0.26683709 -3.63300168 -0.10380005 0 0 Z " fill="#E57D5E" transform="translate(914,708)"/>
<path d="M0 0 C0.66 0.33 1.32 0.66 2 1 C0.77023437 2.21236328 0.77023437 2.21236328 -0.484375 3.44921875 C-1.57305137 4.52850998 -2.6615855 5.60794469 -3.75 6.6875 C-4.28882813 7.21794922 -4.82765625 7.74839844 -5.3828125 8.29492188 C-8.4914979 11.38465187 -11.26534367 14.56872596 -14 18 C-15.27922391 19.22327376 -16.5911912 20.4134721 -17.9375 21.5625 C-18.62714844 22.15289062 -19.31679688 22.74328125 -20.02734375 23.3515625 C-22.32379218 25.27057485 -24.64163497 27.15752732 -27 29 C-25.51840152 23.7650187 -22.17322062 20.79274174 -18.375 17.125 C-17.74489014 16.50584717 -17.11478027 15.88669434 -16.46557617 15.2487793 C-12.60532081 11.4798322 -8.68250153 7.80414208 -4.55078125 4.33203125 C-2.95203945 2.95880466 -1.47187149 1.50744542 0 0 Z " fill="#F0A083" transform="translate(815,364)"/>
<path d="M0 0 C0.88240486 2.43067352 1.19606862 3.54966889 0.14453125 5.96484375 C-1.22177647 7.98826133 -2.59072579 10.00619728 -4 12 C-4.556875 12.845625 -5.11375 13.69125 -5.6875 14.5625 C-11.26790182 20.44454516 -18.55808818 24.86656345 -26 28 C-26.99 27.67 -27.98 27.34 -29 27 C-28.16597656 26.5875 -27.33195313 26.175 -26.47265625 25.75 C-13.14571664 18.98565534 -13.14571664 18.98565534 -5 7 C-3.68671343 5.64691687 -2.35500919 4.31129922 -1 3 C-0.67 2.01 -0.34 1.02 0 0 Z " fill="#F0A281" transform="translate(936,475)"/>
<path d="M0 0 C0.66 0 1.32 0 2 0 C2 1.65 2 3.3 2 5 C2.66 5 3.32 5 4 5 C4.24492188 5.72574219 4.48984375 6.45148438 4.7421875 7.19921875 C6.14051207 10.31287937 7.81296221 12.31400755 10.125 14.8125 C10.84945312 15.60269531 11.57390625 16.39289063 12.3203125 17.20703125 C12.87460937 17.79871094 13.42890625 18.39039063 14 19 C17.78630702 18.24432948 19.4041044 16.87402727 22 14 C22.66 14.33 23.32 14.66 24 15 C22.95732061 16.20494074 21.88995709 17.38855421 20.8125 18.5625 C20.22082031 19.22378906 19.62914062 19.88507813 19.01953125 20.56640625 C17 22 17 22 14.515625 21.9765625 C9.77301848 20.13548854 7.09960527 15.88259533 4 12 C3.53722656 11.4328125 3.07445312 10.865625 2.59765625 10.28125 C0.01576434 6.82647648 -0.40483856 4.25080487 0 0 Z " fill="#EF9675" transform="translate(774,404)"/>
<path d="M0 0 C4.68632561 1.57704265 8.34249667 4.13799966 12.3125 7 C12.95767578 7.45117188 13.60285156 7.90234375 14.26757812 8.3671875 C15.88501255 9.52420937 17.44793244 10.75666577 19 12 C19 12.66 19 13.32 19 14 C19.87398437 14.39832031 19.87398437 14.39832031 20.765625 14.8046875 C23.06174228 16.03302996 24.80356018 17.40314939 26.75 19.125 C27.36359375 19.66382813 27.9771875 20.20265625 28.609375 20.7578125 C29.06828125 21.16773438 29.5271875 21.57765625 30 22 C29.67 22.66 29.34 23.32 29 24 C28.44054687 23.55011719 27.88109375 23.10023438 27.3046875 22.63671875 C23.35228704 19.46590231 19.3975275 16.30202035 15.39453125 13.1953125 C14.7804541 12.71747314 14.16637695 12.23963379 13.53369141 11.74731445 C12.32854622 10.81070532 11.12127842 9.87681919 9.91162109 8.94604492 C6.34520487 6.17030125 3.1311912 3.26043361 0 0 Z " fill="#EFA385" transform="translate(866,397)"/>
<path d="M0 0 C0 0.33 0 0.66 0 1 C-0.57105469 0.9278125 -1.14210938 0.855625 -1.73046875 0.78125 C-12.20081559 -0.41726347 -22.54712618 -0.32135651 -33 1 C-31 -2 -31 -2 -27.8359375 -2.671875 C-18.04315335 -3.50954696 -9.16482904 -3.85887539 0 0 Z " fill="#33251C" transform="translate(923,570)"/>
<path d="M0 0 C0 0.99 0 1.98 0 3 C-0.99 3.474375 -1.98 3.94875 -3 4.4375 C-11.41200637 9.2905806 -16.22715236 17.31156722 -20 26 C-21 24 -21 24 -20.5390625 21.96875 C-17.30776919 13.24149628 -11.90717652 5.64744783 -3.4375 1.375 C-2.303125 0.92125 -1.16875 0.4675 0 0 Z " fill="#3D322C" transform="translate(768,572)"/>
<path d="M0 0 C4.62 0 9.24 0 14 0 C14 0.99 14 1.98 14 3 C7.20100925 6.79478553 7.20100925 6.79478553 3 6 C1.02389614 3.95575462 0 2.8823175 0 0 Z " fill="#FCF1EE" transform="translate(946,718)"/>
<path d="M0 0 C4.62 0 9.24 0 14 0 C14 0.99 14 1.98 14 3 C12.68 3 11.36 3 10 3 C10 3.66 10 4.32 10 5 C3.53104925 6.34261242 3.53104925 6.34261242 1.0625 4.75 C0 3 0 3 0 0 Z " fill="#FCF2EF" transform="translate(812,718)"/>
<path d="M0 0 C4.62 0 9.24 0 14 0 C14 0.99 14 1.98 14 3 C7.20100925 6.79478553 7.20100925 6.79478553 3 6 C1.02389614 3.95575462 0 2.8823175 0 0 Z " fill="#FCF2EF" transform="translate(689,718)"/>
<path d="M0 0 C9.9 0 19.8 0 30 0 C29.67 0.66 29.34 1.32 29 2 C23.22634417 3.02383571 17.53891848 3.15408742 11.6875 3.125 C10.89021484 3.12886719 10.09292969 3.13273437 9.27148438 3.13671875 C5.93146561 3.13110055 3.18966774 3.06322258 0 2 C0 1.34 0 0.68 0 0 Z " fill="#EB774F" transform="translate(651,490)"/>
<path d="M0 0 C4.01991606 2.95223782 6.98832071 6.27132476 9.9375 10.25 C10.3691748 10.82194092 10.80084961 11.39388184 11.24560547 11.9831543 C12.50282333 13.65121383 13.75192211 15.32509696 15 17 C15.98033203 18.30130859 15.98033203 18.30130859 16.98046875 19.62890625 C18.32576449 21.41517779 19.66391278 23.20683031 21 25 C20.67 25.66 20.34 26.32 20 27 C0 4.16666667 0 4.16666667 0 0 Z " fill="#E9744E" transform="translate(751,407)"/>
<path d="M0 0 C7.82518471 7.33611066 13.98668901 16.16794948 20 25 C17 25 17 25 15.63720703 23.64233398 C15.18200684 23.01657471 14.72680664 22.39081543 14.2578125 21.74609375 C13.74863281 21.05580078 13.23945313 20.36550781 12.71484375 19.65429688 C12.19019531 18.92275391 11.66554688 18.19121094 11.125 17.4375 C10.60808594 16.73302734 10.09117187 16.02855469 9.55859375 15.30273438 C8.52932944 13.89624599 7.50614268 12.48528872 6.48925781 11.06982422 C5.50353086 9.69982535 4.50817743 8.33669722 3.50292969 6.98095703 C0 2.22028057 0 2.22028057 0 0 Z " fill="#2C221D" transform="translate(477,565)"/>
<path d="M0 0 C0.33 1.32 0.66 2.64 1 4 C-3.77092956 5.23402862 -8.42469446 5.11265112 -13.3125 5.0625 C-14.14845703 5.05798828 -14.98441406 5.05347656 -15.84570312 5.04882812 C-17.89716649 5.03710548 -19.94859273 5.01917203 -22 5 C-19.27471115 2.27471115 -16.34355983 2.05811509 -12.6875 1.375 C-12.02298828 1.2409375 -11.35847656 1.106875 -10.67382812 0.96875 C-7.06991926 0.27006935 -3.67040258 -0.15618734 0 0 Z " fill="#F1B19D" transform="translate(948,323)"/>
<path d="M0 0 C10.24909692 4.74412347 18.17330224 15.07436926 26 23 C25.67 23.66 25.34 24.32 25 25 C24.154375 24.14277344 23.30875 23.28554688 22.4375 22.40234375 C16.96976714 16.88378203 11.51964682 11.46076295 5.58984375 6.43359375 C3.44266993 4.49744439 1.69719536 2.33364362 0 0 Z " fill="#ED6D45" transform="translate(700,354)"/>
<path d="M0 0 C0 0.33 0 0.66 0 1 C-3.3 1 -6.6 1 -10 1 C-10.103125 1.763125 -10.20625 2.52625 -10.3125 3.3125 C-11.06799155 6.26578515 -11.86992523 6.95867834 -14 9 C-14.71447643 11.10332891 -14.71447643 11.10332891 -15 13 C-15.66 13 -16.32 13 -17 13 C-17.33 13.66 -17.66 14.32 -18 15 C-18.48347311 11.06314755 -18.79445864 8.41678457 -16.828125 4.91015625 C-11.93657561 -0.78500482 -7.1607826 -0.81578536 0 0 Z " fill="#F1AF99" transform="translate(876,376)"/>
<path d="M0 0 C3.6734948 1.8367474 6.5247598 4.44624338 9.5 7.25 C9.17 7.91 8.84 8.57 8.5 9.25 C4.045 6.28 4.045 6.28 -0.5 3.25 C-1.49 4.24 -2.48 5.23 -3.5 6.25 C-6.41153462 8.11636835 -9.38508292 9.75022511 -12.5 11.25 C-10.02454665 6.29909331 -5.85916908 0.58591691 0 0 Z " fill="#F1A286" transform="translate(791.5,444.75)"/>
<path d="M0 0 C0.99 0.33 1.98 0.66 3 1 C1.60723285 5.43153184 -0.63859202 7.95761453 -4 11 C-4.78375 11.74121094 -5.5675 12.48242188 -6.375 13.24609375 C-13.98751872 20.32618929 -13.98751872 20.32618929 -19 22 C-17.33333333 20.33333333 -15.66666667 18.66666667 -14 17 C-13.278125 16.236875 -12.55625 15.47375 -11.8125 14.6875 C-10 13 -10 13 -8 13 C-7.79375 12.46375 -7.5875 11.9275 -7.375 11.375 C-5.72706935 8.52857433 -3.67086985 6.65530606 -1.2421875 4.46484375 C0.32338121 2.93875825 0.32338121 2.93875825 0 0 Z " fill="#ED7951" transform="translate(772,435)"/>
<path d="M0 0 C0.33 0 0.66 0 1 0 C1.06058594 1.14339844 1.12117187 2.28679688 1.18359375 3.46484375 C1.26798428 4.95574305 1.35263302 6.44662775 1.4375 7.9375 C1.47681641 8.69224609 1.51613281 9.44699219 1.55664062 10.22460938 C1.44038024 13.91944187 1.44038024 13.91944187 3 17 C5.01964199 17.07244053 7.04167124 17.08377188 9.0625 17.0625 C10.16722656 17.05347656 11.27195312 17.04445313 12.41015625 17.03515625 C13.26480469 17.02355469 14.11945312 17.01195312 15 17 C15 17.66 15 18.32 15 19 C10.30368284 21.49491849 7.06370175 20.99613805 2 20 C0 18 0 18 -0.22705078 16.12060547 C-0.21657715 15.37697754 -0.20610352 14.63334961 -0.1953125 13.8671875 C-0.18886719 13.06152344 -0.18242188 12.25585938 -0.17578125 11.42578125 C-0.15064453 10.16314453 -0.15064453 10.16314453 -0.125 8.875 C-0.11597656 8.02550781 -0.10695313 7.17601562 -0.09765625 6.30078125 C-0.07405647 4.20040116 -0.03818483 2.10016556 0 0 Z " fill="#32251D" transform="translate(820,633)"/>
<path d="M0 0 C0.99 0 1.98 0 3 0 C3 5.61 3 11.22 3 17 C2.01 17 1.02 17 0 17 C0 11.39 0 5.78 0 0 Z " fill="#E57A5A" transform="translate(676,709)"/>
<path d="M0 0 C4.13725427 1.54558018 5.99220645 4.25335699 8.5625 7.75 C9.32691406 8.77609375 10.09132813 9.8021875 10.87890625 10.859375 C12.87855913 13.820187 14.48595214 16.7687413 16 20 C15.34 20.33 14.68 20.66 14 21 C13.32453125 20.04738281 12.6490625 19.09476563 11.953125 18.11328125 C11.0521602 16.8462995 10.15111423 15.57937548 9.25 14.3125 C8.8065625 13.68666016 8.363125 13.06082031 7.90625 12.41601562 C5.89550584 9.59210286 3.87516577 6.84814628 1.671875 4.16796875 C0 2 0 2 0 0 Z " fill="#372B26" transform="translate(487,556)"/>
<path d="M0 0 C2 2 2 2 2 6 C2.66 6 3.32 6 4 6 C4.51137226 12.90352555 2.86964374 17.74827614 0 24 C-0.99 24 -1.98 24 -3 24 C-2.50886719 23.02933594 -2.01773438 22.05867188 -1.51171875 21.05859375 C0.36047423 16.69014347 0.34419687 12.75135254 0.1875 8.0625 C0.17396484 7.28326172 0.16042969 6.50402344 0.14648438 5.70117188 C0.11150224 3.80047596 0.05770959 1.90014166 0 0 Z " fill="#ED714B" transform="translate(785,315)"/>
<path d="M0 0 C4.38889325 0.66498383 7.9811485 2.18757677 12 4 C12 4.66 12 5.32 12 6 C12.845625 6.226875 13.69125 6.45375 14.5625 6.6875 C18.67404851 8.25736398 21.50393484 10.34299048 25 13 C24.01 13.33 23.02 13.66 22 14 C19.45798416 12.66551549 17.09826029 11.29157461 14.6875 9.75 C13.38021583 8.93019964 12.07163707 8.11245978 10.76171875 7.296875 C10.13056152 6.90177734 9.4994043 6.50667969 8.84912109 6.09960938 C7.14392619 5.085588 5.36417316 4.19984699 3.58203125 3.328125 C1 2 1 2 0 0 Z " fill="#EC744C" transform="translate(646,317)"/>
<path d="M0 0 C0.33 0 0.66 0 1 0 C1.23074219 1.12277344 1.46148438 2.24554687 1.69921875 3.40234375 C3.45859165 11.59659559 5.1337702 18.99980878 10 26 C9.34 26.33 8.68 26.66 8 27 C6.845249 25.10958518 5.70153767 23.21242401 4.5625 21.3125 C3.92441406 20.25675781 3.28632812 19.20101562 2.62890625 18.11328125 C0.24306346 13.55328916 -0.13032834 9.77462572 -0.0625 4.6875 C-0.05347656 3.80449219 -0.04445313 2.92148437 -0.03515625 2.01171875 C-0.02355469 1.34785156 -0.01195312 0.68398438 0 0 Z " fill="#362A24" transform="translate(759,607)"/>
<path d="M0 0 C0.66 0 1.32 0 2 0 C3.49633789 1.6965332 3.49633789 1.6965332 5.22265625 4.05078125 C5.84333984 4.89447266 6.46402344 5.73816406 7.10351562 6.60742188 C8.07321289 7.94643555 8.07321289 7.94643555 9.0625 9.3125 C9.71283203 10.19357422 10.36316406 11.07464844 11.03320312 11.98242188 C15.86444216 18.59332649 15.86444216 18.59332649 17 22 C13.52363437 20.84121146 12.98084935 19.97849729 10.8984375 17.0703125 C10.32609375 16.27496094 9.75375 15.47960937 9.1640625 14.66015625 C8.57367188 13.82355469 7.98328125 12.98695313 7.375 12.125 C6.4778125 10.88169922 6.4778125 10.88169922 5.5625 9.61328125 C1.13986254 3.41958761 1.13986254 3.41958761 0 0 Z " fill="#281E1A" transform="translate(497,592)"/>
<path d="M0 0 C1.11375 1.175625 1.11375 1.175625 2.25 2.375 C7.19554246 7.09574507 11.69086663 7.52980081 18.3203125 8.4375 C21 9 21 9 23 11 C15.74966304 11.26364862 8.42777685 11.20579995 2.4375 6.625 C0 4 0 4 0 0 Z " fill="#EB7850" transform="translate(575,315)"/>
<path d="M0 0 C0.99 0.33 1.98 0.66 3 1 C2.34 1.495 1.68 1.99 1 2.5 C-1.13085449 5.16356811 -1.33679357 5.8668508 -1.4375 9.125 C-1.293125 10.40375 -1.14875 11.6825 -1 13 C1.91765 14.9451 3.62537285 15.45276317 7 16 C6.67 16.66 6.34 17.32 6 18 C3.36 18 0.72 18 -2 18 C-2.144375 17.38125 -2.28875 16.7625 -2.4375 16.125 C-2.93152225 13.96741678 -2.93152225 13.96741678 -4 12 C-4.40423599 7.71509847 -4.45828448 5.67310532 -2 2.0625 C-1.34 1.381875 -0.68 0.70125 0 0 Z " fill="#E88666" transform="translate(651,473)"/>
<path d="M0 0 C-2.82771997 1.88514664 -5.12622909 2.84015359 -8.3125 3.9375 C-11.54941593 5.07491035 -14.44318592 6.229507 -17.5 7.8125 C-20 9 -20 9 -23 8 C-20.36 6.68 -17.72 5.36 -15 4 C-15.33 3.34 -15.66 2.68 -16 2 C-15.39671875 1.95101563 -14.7934375 1.90203125 -14.171875 1.8515625 C-12.97304688 1.73941406 -12.97304688 1.73941406 -11.75 1.625 C-10.56664062 1.52058594 -10.56664062 1.52058594 -9.359375 1.4140625 C-6.96324481 1.11625191 -6.96324481 1.11625191 -4.890625 -0.1015625 C-3 -1 -3 -1 0 0 Z " fill="#F0B19F" transform="translate(901,314)"/>
<path d="M0 0 C0.99 0.495 0.99 0.495 2 1 C1.01 1.495 1.01 1.495 0 2 C0 1.34 0 0.68 0 0 Z M-3 1 C-2.01 1.33 -1.02 1.66 0 2 C-1.34929464 5.83663072 -3.07751025 8.65172569 -5.625 11.8125 C-6.25664063 12.60269531 -6.88828125 13.39289062 -7.5390625 14.20703125 C-8.02117188 14.79871094 -8.50328125 15.39039063 -9 16 C-9.33 15.34 -9.66 14.68 -10 14 C-9.0126546 12.32580562 -8.01187895 10.65948148 -7 9 C-7 8.01 -7 7.02 -7 6 C-5 3.3125 -5 3.3125 -3 1 Z " fill="#4D3C32" transform="translate(567,544)"/>
<path d="M0 0 C0.66 0 1.32 0 2 0 C0.41729204 4.30905007 -2.88683078 6.7810482 -6.3125 9.625 C-7.16618164 10.35976563 -7.16618164 10.35976563 -8.03710938 11.109375 C-11.2082955 13.77448205 -13.99129463 15.72142606 -18 17 C-18 16.34 -18 15.68 -18 15 C-16.17305008 13.52188518 -14.28634256 12.11723775 -12.375 10.75 C-8.8230604 8.17637974 -5.41315753 5.61997001 -2.375 2.4375 C-1.59125 1.633125 -0.8075 0.82875 0 0 Z " fill="#EA6D41" transform="translate(634,470)"/>
<path d="M0 0 C2.375 0.3125 2.375 0.3125 5 1 C5.66 1.99 6.32 2.98 7 4 C7.66 3.67 8.32 3.34 9 3 C10.60725635 6.21451269 10.05748185 9.43612536 10 13 C9.34 13 8.68 13 8 13 C7.67 13.66 7.34 14.32 7 15 C6.34 15 5.68 15 5 15 C5.01160156 14.31292969 5.02320313 13.62585938 5.03515625 12.91796875 C5.04417969 12.01691406 5.05320312 11.11585938 5.0625 10.1875 C5.07410156 9.29417969 5.08570313 8.40085937 5.09765625 7.48046875 C5.11009967 4.86586209 5.11009967 4.86586209 4 2 C1.99983534 0.79117904 1.99983534 0.79117904 0 0 Z " fill="#EFB09C" transform="translate(952,305)"/>
<path d="M0 0 C1.39412109 -0.02126953 1.39412109 -0.02126953 2.81640625 -0.04296875 C5.51238389 0.19408443 7.13157875 0.81479864 9.4375 2.1875 C6.06757987 3.20009619 2.94852519 3.35305609 -0.5625 3.375 C-1.59375 3.38917969 -2.625 3.40335937 -3.6875 3.41796875 C-6.52795203 3.19026947 -8.15357948 2.65254061 -10.5625 1.1875 C-6.99432513 0.37802294 -3.65768144 0.02543589 0 0 Z " fill="#F19574" transform="translate(763.5625,347.8125)"/>
<path d="M0 0 C-3.42298182 3.42298182 -8.06394189 3.91199736 -12.75 4.125 C-15.17007854 4.125 -17.58168642 4.08920009 -20 4 C-20 3.67 -20 3.34 -20 3 C-17.36 3 -14.72 3 -12 3 C-12 2.34 -12 1.68 -12 1 C-14.31 1 -16.62 1 -19 1 C-19 0.67 -19 0.34 -19 0 C-18.09636719 0.01160156 -17.19273437 0.02320313 -16.26171875 0.03515625 C-14.49248047 0.04869141 -14.49248047 0.04869141 -12.6875 0.0625 C-11.51574219 0.07410156 -10.34398437 0.08570313 -9.13671875 0.09765625 C-0.51252847 -0.17084282 -0.51252847 -0.17084282 0 0 Z " fill="#523F32" transform="translate(806,640)"/>
<path d="M0 0 C0 3.10551666 -0.5393715 4.35261084 -2 7 C-1.52949219 7.47050781 -1.05898438 7.94101562 -0.57421875 8.42578125 C2.28385417 11.28385417 5.14192708 14.14192708 8 17 C4.21123678 16.40773357 2.06529607 14.72332392 -0.8125 12.25 C-1.62332031 11.57453125 -2.43414063 10.8990625 -3.26953125 10.203125 C-5 8 -5 8 -4.890625 5.34765625 C-3.81282234 2.50660626 -2.55550444 1.56627692 0 0 Z " fill="#EF9C7B" transform="translate(778,456)"/>
<path d="M0 0 C-1.66289063 1.03060547 -1.66289063 1.03060547 -3.359375 2.08203125 C-4.82297656 2.99209119 -6.28651491 3.90225278 -7.75 4.8125 C-8.47960937 5.26431641 -9.20921875 5.71613281 -9.9609375 6.18164062 C-13.41374251 8.33179647 -16.80661473 10.47050272 -20 13 C-20.66 12.67 -21.32 12.34 -22 12 C-5.54146919 -1.8471564 -5.54146919 -1.8471564 0 0 Z " fill="#F09D7E" transform="translate(865,330)"/>
<path d="M0 0 C1.75570312 0.01353516 1.75570312 0.01353516 3.546875 0.02734375 C4.43890625 0.03894531 5.3309375 0.05054688 6.25 0.0625 C5.92 0.7225 5.59 1.3825 5.25 2.0625 C3.19399931 2.2683942 1.12789328 2.37682178 -0.9375 2.4375 C-6.51679701 2.76244807 -9.58004936 3.36911514 -13.75 7.0625 C-13.17655063 4.19525314 -12.8885485 3.2010485 -10.75 1.0625 C-7.2244746 -0.22318472 -3.71555437 -0.03715554 0 0 Z " fill="#EC754C" transform="translate(589.75,300.9375)"/>
<path d="M0 0 C2.5625 0.1875 2.5625 0.1875 4.5625 2.1875 C4.5625 3.1775 4.5625 4.1675 4.5625 5.1875 C1.2625 5.1875 -2.0375 5.1875 -5.4375 5.1875 C-2.9575 0.2275 -2.9575 0.2275 0 0 Z " fill="#FCF2F0" transform="translate(817.4375,710.8125)"/>
<path d="M0 0 C2.625 0.25 2.625 0.25 4.4375 1.625 C5.625 3.25 5.625 3.25 5.625 5.25 C2.325 5.25 -0.975 5.25 -4.375 5.25 C-3.14527027 0.33108108 -3.14527027 0.33108108 0 0 Z " fill="#FCF1EF" transform="translate(951.375,710.75)"/>
<path d="M0 0 C2.5625 0.1875 2.5625 0.1875 4.5625 2.1875 C4.5625 3.1775 4.5625 4.1675 4.5625 5.1875 C1.2625 5.1875 -2.0375 5.1875 -5.4375 5.1875 C-2.9575 0.2275 -2.9575 0.2275 0 0 Z " fill="#FCF1EF" transform="translate(694.4375,710.8125)"/>
<path d="M0 0 C0.99 0.33 1.98 0.66 3 1 C2.01 2.0209375 2.01 2.0209375 1 3.0625 C-1.49365936 6.72506219 -1.46677129 8.64346798 -1 13 C-0.1025173 15.83378132 -0.1025173 15.83378132 1 18 C-3.69689379 14.24248497 -3.69689379 14.24248497 -4.47265625 11.0625 C-4.64411731 7.12635056 -4.23783993 5.35675989 -2 2 C-1.34 1.34 -0.68 0.68 0 0 Z " fill="#EB744C" transform="translate(649,472)"/>
<path d="M0 0 C3.84904344 1.28301448 5.01929806 3.1160378 7.5625 6.25 C8.34753906 7.20390625 9.13257813 8.1578125 9.94140625 9.140625 C11.81499827 11.74303365 12.98034586 13.97961908 14 17 C13.34 17 12.68 17 12 17 C10.6459068 15.01399663 9.31542376 13.01182457 8 11 C6.68733482 9.64631404 5.35432675 8.31200404 4 7 C0 2.33333333 0 2.33333333 0 0 Z " fill="#E86F46" transform="translate(730,420)"/>
<path d="M0 0 C3.57766956 1.52276096 5.94268871 3.64379935 8.6875 6.375 C9.47511719 7.14585937 10.26273438 7.91671875 11.07421875 8.7109375 C12.94398389 10.93341696 13.6185496 12.16821565 14 15 C3.75285171 6.42585551 3.75285171 6.42585551 0 2 C0 1.34 0 0.68 0 0 Z " fill="#EB7750" transform="translate(704,391)"/>
<path d="M0 0 C3.0478881 1.44739891 5.82138128 3.12466976 8.625 5 C9.40101563 5.515625 10.17703125 6.03125 10.9765625 6.5625 C13 8 13 8 15 10 C15 10.99 15 11.98 15 13 C14.34 13 13.68 13 13 13 C11.84629465 11.84629465 10.69717467 10.68756249 9.57421875 9.50390625 C7.12045906 7.15974377 4.34924253 5.27608673 1.57421875 3.33203125 C1.05472656 2.89246094 0.53523437 2.45289063 0 2 C0 1.34 0 0.68 0 0 Z " fill="#EC7953" transform="translate(655,350)"/>
<path d="M0 0 C2.01630414 2.43347051 3.83257569 4.66515138 5.25 7.5 C8.53807237 12.19724624 13.94280603 14.52231436 19 17 C13.57558638 16.56604691 10.23941629 15.45068767 6 12 C4.625 9.75 4.625 9.75 4 8 C3.34 8 2.68 8 2 8 C0.74335022 5.09399739 0 3.20395416 0 0 Z " fill="#EA6B42" transform="translate(739,332)"/>
<path d="M0 0 C0.90492188 0.02320313 1.80984375 0.04640625 2.7421875 0.0703125 C4.10730469 0.09738281 4.10730469 0.09738281 5.5 0.125 C6.19867187 0.14820313 6.89734375 0.17140625 7.6171875 0.1953125 C7.6171875 1.1853125 7.6171875 2.1753125 7.6171875 3.1953125 C6.93011719 3.24429688 6.24304688 3.29328125 5.53515625 3.34375 C4.18357422 3.45589844 4.18357422 3.45589844 2.8046875 3.5703125 C1.91136719 3.63992188 1.01804687 3.70953125 0.09765625 3.78125 C-2.62679749 4.06176286 -2.62679749 4.06176286 -5.3828125 6.1953125 C-4.65745348 2.56851739 -4.09107647 0.33533414 0 0 Z " fill="#4F433B" transform="translate(575.3828125,532.8046875)"/>
<path d="M0 0 C6.83393548 1.16322306 11.4622424 4.80370162 16 10 C16 10.99 16 11.98 16 13 C15.34 13 14.68 13 14 13 C13.319375 12.13375 12.63875 11.2675 11.9375 10.375 C9.09945511 6.77615392 5.65620035 4.60034638 1.79296875 2.19921875 C1.20128906 1.80347656 0.60960937 1.40773438 0 1 C0 0.67 0 0.34 0 0 Z " fill="#362A24" transform="translate(927,572)"/>
<path d="M0 0 C6.80203375 -0.37634203 11.75690073 0.22528921 18 3 C14.04294544 4.45839897 10.30168612 3.67906093 6.25 3.0625 C5.20392578 2.91264648 5.20392578 2.91264648 4.13671875 2.75976562 C2.42348274 2.51334127 0.71159275 2.25759045 -1 2 C-0.67 1.34 -0.34 0.68 0 0 Z " fill="#37271E" transform="translate(1022,567)"/>
<path d="M0 0 C-4.4789203 4.7423862 -9.15470813 8.14649192 -15 11 C-14.09066991 9.72390677 -13.17217147 8.45434447 -12.25 7.1875 C-11.73953125 6.47980469 -11.2290625 5.77210938 -10.703125 5.04296875 C-7.43043689 1.11724425 -5.16806632 -0.43067219 0 0 Z " fill="#EEA184" transform="translate(865,359)"/>
<path d="M0 0 C5.24446182 -0.11026464 10.24360953 0.29671017 15.4375 1 C16.16904297 1.09539063 16.90058594 1.19078125 17.65429688 1.2890625 C19.436723 1.52205938 21.21844104 1.76046266 23 2 C23 2.33 23 2.66 23 3 C19.91674642 3.0582253 16.83363495 3.09367134 13.75 3.125 C12.44095703 3.15013672 12.44095703 3.15013672 11.10546875 3.17578125 C10.26113281 3.18222656 9.41679688 3.18867187 8.546875 3.1953125 C7.77182617 3.20578613 6.99677734 3.21625977 6.19824219 3.22705078 C3.74116461 2.97326556 2.12688458 2.22444152 0 1 C0 0.67 0 0.34 0 0 Z " fill="#261913" transform="translate(1010,651)"/>
<path d="M0 0 C0.33 0 0.66 0 1 0 C1.33 2.97 1.66 5.94 2 9 C2.33 9 2.66 9 3 9 C2.67 11.31 2.34 13.62 2 16 C1.34 16 0.68 16 0 16 C0 16.66 0 17.32 0 18 C-0.66 18 -1.32 18 -2 18 C-2 18.66 -2 19.32 -2 20 C-2.66 20 -3.32 20 -4 20 C-3.690625 19.401875 -3.38125 18.80375 -3.0625 18.1875 C-1.1214829 14.19128833 -0.74220937 10.70902095 -0.4375 6.3125 C-0.35371094 5.13300781 -0.26992188 3.95351563 -0.18359375 2.73828125 C-0.12300781 1.83464844 -0.06242188 0.93101562 0 0 Z " fill="#57493F" transform="translate(819,607)"/>
<path d="M0 0 C0 6.48200497 -6.92871034 13.23679165 -11 18 C-11.66 18.33 -12.32 18.66 -13 19 C-11.19284541 14.90034073 -8.55027936 11.42308761 -5.9375 7.8125 C-5.47794922 7.17119141 -5.01839844 6.52988281 -4.54492188 5.86914062 C-1.15472274 1.15472274 -1.15472274 1.15472274 0 0 Z " fill="#271E19" transform="translate(548,590)"/>
<path d="M0 0 C0.66 0.33 1.32 0.66 2 1 C-2.95 7.93 -2.95 7.93 -8 15 C-8.33 13.68 -8.66 12.36 -9 11 C-7.12890625 8.203125 -7.12890625 8.203125 -4.5625 5.25 C-3.71816406 4.26515625 -2.87382813 3.2803125 -2.00390625 2.265625 C-1.34261719 1.51796875 -0.68132813 0.7703125 0 0 Z " fill="#342A24" transform="translate(540,578)"/>
<path d="M0 0 C0.33 0.99 0.66 1.98 1 3 C-3.72847682 7.88609272 -3.72847682 7.88609272 -6.875 8.16796875 C-7.926875 8.17763672 -7.926875 8.17763672 -9 8.1875 C-10.051875 8.20876953 -10.051875 8.20876953 -11.125 8.23046875 C-13 8 -13 8 -15 6 C-14.16855469 5.90203125 -13.33710937 5.8040625 -12.48046875 5.703125 C-11.39378906 5.55359375 -10.30710937 5.4040625 -9.1875 5.25 C-8.10855469 5.11078125 -7.02960937 4.9715625 -5.91796875 4.828125 C-2.57592898 3.87964785 -1.70957577 2.95126765 0 0 Z " fill="#342721" transform="translate(646,546)"/>
<path d="M0 0 C1.12864571 2.82503443 0.99492545 4.01633704 0.07421875 6.98046875 C-0.38339844 8.03878906 -0.84101562 9.09710938 -1.3125 10.1875 C-1.76238281 11.25355469 -2.21226562 12.31960938 -2.67578125 13.41796875 C-4 16 -4 16 -6 17 C-5.32584613 11.7415998 -3.75734451 6.97361654 -2 2 C-1.34 2 -0.68 2 0 2 C0 1.34 0 0.68 0 0 Z " fill="#EA744C" transform="translate(660,385)"/>
<path d="M0 0 C0 0.99 0 1.98 0 3 C-0.66 3 -1.32 3 -2 3 C-2.04125 3.61875 -2.0825 4.2375 -2.125 4.875 C-2.41375 5.57625 -2.7025 6.2775 -3 7 C-6.0625 8.25 -6.0625 8.25 -9 9 C-9 6 -9 6 -7.75 4.5 C-2.5 0 -2.5 0 0 0 Z " fill="#4E4036" transform="translate(1044,633)"/>
<path d="M0 0 C1 2 1 2 0.2578125 4.25 C-0.11601563 5.1575 -0.48984375 6.065 -0.875 7 C-2.92842595 12.36014981 -3.75216886 17.28749232 -4 23 C-4.33 23 -4.66 23 -5 23 C-5.57682463 13.98871743 -5.49238382 7.41471816 0 0 Z " fill="#261B17" transform="translate(998,593)"/>
<path d="M0 0 C0 0.66 0 1.32 0 2 C-0.81984375 1.96519531 -1.6396875 1.93039062 -2.484375 1.89453125 C-4.10085938 1.85392578 -4.10085938 1.85392578 -5.75 1.8125 C-6.81734375 1.77769531 -7.8846875 1.74289062 -8.984375 1.70703125 C-12.30027855 2.02917214 -13.59016673 2.77148914 -16 5 C-15.67012361 2.52592708 -15.42027913 1.3362233 -13.4375 -0.25 C-8.9415865 -1.633358 -4.47463189 -1.49154396 0 0 Z " fill="#291D16" transform="translate(643,534)"/>
<path d="M0 0 C0.33 0 0.66 0 1 0 C0.979375 0.7425 0.95875 1.485 0.9375 2.25 C0.87902838 4.92924957 0.87902838 4.92924957 1.625 7.125 C1.74875 7.74375 1.8725 8.3625 2 9 C-0.05567935 12.08351902 -2.35247996 14.42215154 -5 17 C-4.38899695 13.08958048 -3.16799899 9.62419744 -1.71875 5.96484375 C-0.99852224 3.99596025 -0.47275266 2.0410187 0 0 Z " fill="#F0AF9A" transform="translate(937,466)"/>
<path d="M0 0 C0.66 0.33 1.32 0.66 2 1 C1.43410156 1.47050781 0.86820313 1.94101562 0.28515625 2.42578125 C-0.81505859 3.35970703 -0.81505859 3.35970703 -1.9375 4.3125 C-3.03384766 5.23482422 -3.03384766 5.23482422 -4.15234375 6.17578125 C-6.23820366 7.95975519 -6.23820366 7.95975519 -7 11 C-8.98 11.33 -10.96 11.66 -13 12 C-11.38405168 9.95880212 -9.7143618 7.95927063 -8 6 C-7.34 6 -6.68 6 -6 6 C-6 5.34 -6 4.68 -6 4 C-4.03852126 2.61061923 -2.03833424 1.2739589 0 0 Z " fill="#E88669" transform="translate(760,448)"/>
<path d="M0 0 C5.79296688 5.13091352 9.75045646 11.28542686 11 19 C8.7754084 16.12463235 6.81331267 13.17606118 4.9375 10.0625 C4.43089844 9.22847656 3.92429687 8.39445312 3.40234375 7.53515625 C2.04197881 5.07588926 0.98322699 2.62977937 0 0 Z " fill="#F0A283" transform="translate(925,420)"/>
<path d="M0 0 C6.63645253 2.80938379 10.15073084 9.66829076 13 16 C12.34 16 11.68 16 11 16 C9.62340232 14.27852222 8.32227237 12.49622345 7.0625 10.6875 C4.37763585 6.79127279 4.37763585 6.79127279 1.24609375 3.26953125 C0 2 0 2 0 0 Z " fill="#F1A080" transform="translate(896,421)"/>
<path d="M0 0 C2.475 0.495 2.475 0.495 5 1 C5.125 3.375 5.125 3.375 5 6 C4.34 6.66 3.68 7.32 3 8 C2.01 7.67 1.02 7.34 0 7 C0 4.66666667 0 2.33333333 0 0 Z " fill="#E68467" transform="translate(729,722)"/>
<path d="M0 0 C0.66 0.66 1.32 1.32 2 2 C-0.58335871 6.86279287 -4.05438215 11.1684723 -8 15 C-8.66 15 -9.32 15 -10 15 C-8.23915938 11.0381086 -5.9706445 6.98532225 -2 5 C-2 3.68 -2 2.36 -2 1 C-1.34 0.67 -0.68 0.34 0 0 Z " fill="#E98769" transform="translate(772,433)"/>
<path d="M0 0 C0.99 0.33 1.98 0.66 3 1 C-0.96 4.3 -4.92 7.6 -9 11 C-9.66 10.67 -10.32 10.34 -11 10 C-7.5103248 6.40768729 -4.03355127 2.98132051 0 0 Z " fill="#EB734A" transform="translate(610,459)"/>
<path d="M0 0 C0 0.99 0 1.98 0 3 C-1.26418246 3.69965443 -2.53665402 4.38434763 -3.8125 5.0625 C-4.52019531 5.44535156 -5.22789062 5.82820313 -5.95703125 6.22265625 C-8 7 -8 7 -11 6 C-9.35 5.01 -7.7 4.02 -6 3 C-6.66 2.34 -7.32 1.68 -8 1 C-5.07175348 0.02391783 -3.04386724 -0.08226668 0 0 Z " fill="#EA8869" transform="translate(708,459)"/>
<path d="M0 0 C0.66 0.33 1.32 0.66 2 1 C-0.99110224 3.01361785 -3.99364942 5.00924012 -7 7 C-8.423125 7.9590625 -8.423125 7.9590625 -9.875 8.9375 C-12 10 -12 10 -15 9 C-4.77884041 1.98147041 -4.77884041 1.98147041 0 0 Z " fill="#F0A283" transform="translate(889,343)"/>
<path d="M0 0 C2 2 4 4 6 6 C8.01594582 6.23427778 10.038474 6.41336124 12.0625 6.5625 C13.71958984 6.68818359 13.71958984 6.68818359 15.41015625 6.81640625 C16.26480469 6.87699219 17.11945312 6.93757812 18 7 C18 7.33 18 7.66 18 8 C7.15875965 9.59074021 7.15875965 9.59074021 2.8125 7.375 C0.86687295 4.82555766 0.26437951 3.17255414 0 0 Z " fill="#473C35" transform="translate(705,632)"/>
<path d="M0 0 C0.78246094 -0.02578125 1.56492187 -0.0515625 2.37109375 -0.078125 C5.04181509 0.32176911 5.88227439 1.19699122 7.5625 3.25 C5.84371005 3.25 4.12481154 3.24286378 2.40625 3.21484375 C1.6328125 3.20582031 0.859375 3.19679688 0.0625 3.1875 C-1.09765625 3.17009766 -1.09765625 3.17009766 -2.28125 3.15234375 C-4.62272404 3.16008456 -4.62272404 3.16008456 -7.4375 4.25 C-7.1075 3.26 -6.7775 2.27 -6.4375 1.25 C-4.11063547 0.08656773 -2.59028587 0.05104012 0 0 Z " fill="#2E221B" transform="translate(466.4375,533.75)"/>
<path d="M0 0 C2.01822917 0.06510417 4.03645833 0.13020833 6.0546875 0.1953125 C6.3846875 1.1853125 6.7146875 2.1753125 7.0546875 3.1953125 C6.48878906 3.31648437 5.92289063 3.43765625 5.33984375 3.5625 C4.23962891 3.81386719 4.23962891 3.81386719 3.1171875 4.0703125 C2.02083984 4.31394531 2.02083984 4.31394531 0.90234375 4.5625 C-1.15231544 5.02492773 -1.15231544 5.02492773 -1.9453125 7.1953125 C-2.6053125 5.5453125 -3.2653125 3.8953125 -3.9453125 2.1953125 C-1.9453125 0.1953125 -1.9453125 0.1953125 0 0 Z " fill="#4D3B30" transform="translate(693.9453125,532.8046875)"/>
<path d="M0 0 C4.04015231 0.52974025 6.21717871 1.60958484 9.25 4.3125 C9.93578125 4.90675781 10.6215625 5.50101562 11.328125 6.11328125 C13.10450969 8.11793968 13.60727845 9.38378142 14 12 C13.29875 11.2575 12.5975 10.515 11.875 9.75 C8.25440867 6.28682569 4.77646289 3.5921543 0 2 C0 1.34 0 0.68 0 0 Z " fill="#EC6D43" transform="translate(770,302)"/>
<path d="M0 0 C-4.32954781 1.99159199 -8.1812837 3.67875225 -13 4 C-15.17578125 3.01171875 -15.17578125 3.01171875 -17 2 C-16.31292969 1.86722656 -15.62585937 1.73445312 -14.91796875 1.59765625 C-13.56638672 1.33275391 -13.56638672 1.33275391 -12.1875 1.0625 C-10.84751953 0.80146484 -10.84751953 0.80146484 -9.48046875 0.53515625 C-2.87066474 -0.89089595 -2.87066474 -0.89089595 0 0 Z " fill="#362821" transform="translate(1046,650)"/>
<path d="M0 0 C0.66 0 1.32 0 2 0 C1.71382812 0.55171875 1.42765625 1.1034375 1.1328125 1.671875 C-0.07739151 4.15905289 -1.1095306 6.67747753 -2.125 9.25 C-2.47820313 10.14203125 -2.83140625 11.0340625 -3.1953125 11.953125 C-3.46085938 12.62859375 -3.72640625 13.3040625 -4 14 C-5.171875 12.328125 -5.171875 12.328125 -6 10 C-4.953125 7.421875 -4.953125 7.421875 -3.25 4.75 C-2.69828125 3.85796875 -2.1465625 2.9659375 -1.578125 2.046875 C-1.05734375 1.37140625 -0.5365625 0.6959375 0 0 Z " fill="#372C27" transform="translate(766,590)"/>
<path d="M0 0 C4.455 0.99 4.455 0.99 9 2 C8.67 2.99 8.34 3.98 8 5 C6.741875 4.87625 5.48375 4.7525 4.1875 4.625 C3.12595703 4.52058594 3.12595703 4.52058594 2.04296875 4.4140625 C0 4 0 4 -3 2 C-2.01 2 -1.02 2 0 2 C0 1.34 0 0.68 0 0 Z " fill="#EEAF9C" transform="translate(842,475)"/>
<path d="M0 0 C0.66 0 1.32 0 2 0 C0.43358249 4.30764815 -1.68336156 8.06171464 -4 12 C-4.66 12 -5.32 12 -6 12 C-5.36567062 8.83548038 -4.26817072 6.48312221 -2.5625 3.75 C-2.13066406 3.04359375 -1.69882812 2.3371875 -1.25390625 1.609375 C-0.84011719 1.07828125 -0.42632813 0.5471875 0 0 Z " fill="#EB724B" transform="translate(645,416)"/>
<path d="M0 0 C3.93472548 1.31157516 5.12683424 3.33383447 7.6875 6.5625 C8.89986328 8.08037109 8.89986328 8.08037109 10.13671875 9.62890625 C10.75160156 10.41136719 11.36648438 11.19382812 12 12 C9 12 9 12 6.73828125 9.8828125 C5.93777344 8.97273438 5.13726563 8.06265625 4.3125 7.125 C3.50425781 6.22007812 2.69601562 5.31515625 1.86328125 4.3828125 C0 2 0 2 0 0 Z " fill="#EA7046" transform="translate(718,406)"/>
<path d="M0 0 C3.23861303 1.44424635 5.61969163 3.25772247 8.25 5.625 C8.95640625 6.25664062 9.6628125 6.88828125 10.390625 7.5390625 C10.92171875 8.02117187 11.4528125 8.50328125 12 9 C11.34 9.66 10.68 10.32 10 11 C8.33035479 9.35718838 6.6643536 7.71067239 5 6.0625 C4.071875 5.14597656 3.14375 4.22945313 2.1875 3.28515625 C0 1 0 1 0 0 Z " fill="#ED7750" transform="translate(700,354)"/>
<path d="M0 0 C0 3 0 3 -1.3125 4.6875 C-3.66257327 7.90797078 -4.68413824 11.24039497 -6 15 C-6.33 15 -6.66 15 -7 15 C-7.61914875 11.55045695 -7.3542827 9.54607484 -5.44140625 6.59765625 C-3.67691455 4.35032577 -1.87664598 2.15431299 0 0 Z " fill="#E78464" transform="translate(747,308)"/>
<path d="M0 0 C4.42700422 1.39134418 6.99413292 3.47884142 10 7 C10 7.99 10 8.98 10 10 C9.34 10 8.68 10 8 10 C6.5625 8.50390625 6.5625 8.50390625 5 6.5625 C2.85474956 3.84811762 2.85474956 3.84811762 0 2 C0 1.34 0 0.68 0 0 Z " fill="#392B24" transform="translate(816,575)"/>
<path d="M0 0 C0.66 0.33 1.32 0.66 2 1 C-6.261959 8.66742597 -6.261959 8.66742597 -11 10 C-9.73459948 6.20379845 -8.21781569 5.51321812 -4.9375 3.3125 C-4.01839844 2.68988281 -3.09929688 2.06726563 -2.15234375 1.42578125 C-1.44207031 0.95527344 -0.73179687 0.48476563 0 0 Z " fill="#EC754C" transform="translate(735,440)"/>
<path d="M0 0 C0.66 0 1.32 0 2 0 C0.43358249 4.30764815 -1.68336156 8.06171464 -4 12 C-4.9435441 9.46100862 -5.16906025 8.39090725 -4.07421875 5.859375 C-3.61660156 5.16328125 -3.15898438 4.4671875 -2.6875 3.75 C-2.23761719 3.04359375 -1.78773438 2.3371875 -1.32421875 1.609375 C-0.88722656 1.07828125 -0.45023438 0.5471875 0 0 Z " fill="#EB7953" transform="translate(652,403)"/>
<path d="M0 0 C3.81684226 1.55500981 6.19195732 4.03595495 9 7 C8.67 7.99 8.34 8.98 8 10 C6.33333333 8.33333333 4.66666667 6.66666667 3 5 C2.401875 4.443125 1.80375 3.88625 1.1875 3.3125 C0 2 0 2 0 0 Z " fill="#EE7852" transform="translate(727,380)"/>
<path d="M0 0 C1.65 0.33 3.3 0.66 5 1 C4.67 2.32 4.34 3.64 4 5 C2.35 4.67 0.7 4.34 -1 4 C-0.67 2.68 -0.34 1.36 0 0 Z " fill="#E78669" transform="translate(985,722)"/>
<path d="M0 0 C0.680625 0.70125 1.36125 1.4025 2.0625 2.125 C5.20780513 5.27934337 8.5888386 8.13934304 12 11 C11.01 11.33 10.02 11.66 9 12 C7.67837119 10.75965588 6.36799547 9.50731374 5.0625 8.25 C4.33160156 7.55390625 3.60070312 6.8578125 2.84765625 6.140625 C0.99482354 3.99400275 0.39228435 2.76467068 0 0 Z " fill="#2B1F1A" transform="translate(867,634)"/>
<path d="M0 0 C0.66 0.33 1.32 0.66 2 1 C-1.63 4.63 -5.26 8.26 -9 12 C-9 7.8407692 -6.75316432 5.85455565 -4 3 C-1.6875 1.125 -1.6875 1.125 0 0 Z " fill="#D8D3CF" transform="translate(1008,585)"/>
<path d="M0 0 C4.51854431 1.98972775 7.21445201 4.98122179 10 9 C10.875 11.9375 10.875 11.9375 11 14 C10.484375 13.34 9.96875 12.68 9.4375 12 C6.84274087 8.8064503 4.13386893 5.73785351 1.390625 2.671875 C0 1 0 1 0 0 Z " fill="#2F241E" transform="translate(807,586)"/>
<path d="M0 0 C3.25597758 0.24118352 4.7276304 1.52224212 6.8125 3.875 C7.534375 4.90625 8.25625 5.9375 9 7 C8.67 7.99 8.34 8.98 8 10 C6.66370254 8.52351062 5.33103329 7.0437367 4 5.5625 C3.2575 4.73878906 2.515 3.91507813 1.75 3.06640625 C0 1 0 1 0 0 Z " fill="#342822" transform="translate(1053,578)"/>
<path d="M0 0 C0 0.99 0 1.98 0 3 C-1.78614318 4.03046722 -3.57910018 5.04913236 -5.375 6.0625 C-6.87160156 6.91521484 -6.87160156 6.91521484 -8.3984375 7.78515625 C-9.25695312 8.18605469 -10.11546875 8.58695312 -11 9 C-11.66 8.67 -12.32 8.34 -13 8 C-12.01 7.4121875 -12.01 7.4121875 -11 6.8125 C-7.30785399 4.58182845 -3.65332313 2.29352544 0 0 Z " fill="#E98567" transform="translate(736,466)"/>
<path d="M0 0 C0.66 0.33 1.32 0.66 2 1 C0.625 3 0.625 3 -1 5 C-1.66 5 -2.32 5 -3 5 C-3.2475 5.639375 -3.495 6.27875 -3.75 6.9375 C-5 9 -5 9 -7.078125 9.62890625 C-8.02945313 9.81259766 -8.02945313 9.81259766 -9 10 C-8.06409496 8.8944811 -7.12620142 7.79064547 -6.1875 6.6875 C-5.66542969 6.07261719 -5.14335938 5.45773437 -4.60546875 4.82421875 C-3.12827531 3.14575321 -1.59960869 1.56117966 0 0 Z " fill="#EC734A" transform="translate(625,444)"/>
<path d="M0 0 C0.66 0.33 1.32 0.66 2 1 C1.42647107 4.87132028 -0.48704352 7.08172796 -3 10 C-3.66 9.67 -4.32 9.34 -5 9 C-4.3566152 7.686298 -3.71021785 6.37407102 -3.0625 5.0625 C-2.70285156 4.33160156 -2.34320312 3.60070312 -1.97265625 2.84765625 C-1 1 -1 1 0 0 Z " fill="#352721" transform="translate(532,609)"/>
<path d="M0 0 C0 3.50741329 -1.21024589 5.32486191 -2.9765625 8.28125 C-4.08499928 10.14274688 -5.06267219 12.04723373 -6 14 C-7 12 -7 12 -6.328125 9.6875 C-5.97234375 8.800625 -5.6165625 7.91375 -5.25 7 C-4.90453125 6.113125 -4.5590625 5.22625 -4.203125 4.3125 C-3 2 -3 2 0 0 Z " fill="#30231D" transform="translate(754,584)"/>
<path d="M0 0 C0.66 0.33 1.32 0.66 2 1 C-0.97 3.97 -3.94 6.94 -7 10 C-7.66 9.67 -8.32 9.34 -9 9 C-6.21000549 5.51250686 -3.74764169 2.49842779 0 0 Z " fill="#DAD4D1" transform="translate(891,585)"/>
<path d="M0 0 C0.66 0 1.32 0 2 0 C3.5078125 1.64453125 3.5078125 1.64453125 5.125 3.8125 C5.66382813 4.52019531 6.20265625 5.22789062 6.7578125 5.95703125 C8 8 8 8 8 11 C2.19794344 5.35475578 2.19794344 5.35475578 0 2 C0 1.34 0 0.68 0 0 Z " fill="#322520" transform="translate(749,632)"/>
<path d="M0 0 C0.99 0.33 1.98 0.66 3 1 C0.36 3.64 -2.28 6.28 -5 9 C-5.33 8.01 -5.66 7.02 -6 6 C-4.02 4.02 -2.04 2.04 0 0 Z " fill="#302520" transform="translate(876,577)"/>
<path d="M0 0 C1.66140763 0.67966676 3.32700041 1.34938905 5 2 C2.30864154 3.34567923 0.86123106 2.77224621 -2.0625 2.1875 C-3.41021484 1.93033203 -3.41021484 1.93033203 -4.78515625 1.66796875 C-5.51605469 1.44753906 -6.24695313 1.22710937 -7 1 C-7.33 0.34 -7.66 -0.32 -8 -1 C-4.52284771 -2.2418401 -3.14767679 -1.81229876 0 0 Z " fill="#EFAF9D" transform="translate(860,481)"/>
<path d="M0 0 C0.66 0.33 1.32 0.66 2 1 C-2.455 4.465 -2.455 4.465 -7 8 C-7.66 7.67 -8.32 7.34 -9 7 C-9 6.01 -9 5.02 -9 4 C-7.6078125 3.566875 -7.6078125 3.566875 -6.1875 3.125 C-2.90208333 2.1125 -2.90208333 2.1125 0 0 Z " fill="#EFAD99" transform="translate(849,339)"/>
<path d="M0 0 C3.81684226 1.55500981 6.19195732 4.03595495 9 7 C5.35521088 7 3.90696599 6.14197494 1 4 C0.1875 1.8125 0.1875 1.8125 0 0 Z " fill="#3B2E28" transform="translate(999,630)"/>
<path d="M0 0 C0 0.66 0 1.32 0 2 C-1.32 2 -2.64 2 -4 2 C-4 2.66 -4 3.32 -4 4 C-6.31 4.66 -8.62 5.32 -11 6 C-10 3 -10 3 -8.22265625 2.05078125 C-7.50980469 1.80714844 -6.79695312 1.56351563 -6.0625 1.3125 C-5.35222656 1.06113281 -4.64195312 0.80976562 -3.91015625 0.55078125 C-2 0 -2 0 0 0 Z " fill="#362820" transform="translate(1007,571)"/>
<path d="M0 0 C4.12751449 0.60698743 7.3321148 2.03810791 11 4 C11 4.99 11 5.98 11 7 C7.37 5.02 3.74 3.04 0 1 C0 0.67 0 0.34 0 0 Z " fill="#32261F" transform="translate(1041,571)"/>
<path d="M0 0 C2.1640625 -0.29296875 2.1640625 -0.29296875 4.625 -0.1875 C5.44226563 -0.16042969 6.25953125 -0.13335938 7.1015625 -0.10546875 C8.04128906 -0.05326172 8.04128906 -0.05326172 9 0 C9 0.66 9 1.32 9 2 C5.37 2.33 1.74 2.66 -2 3 C-1.34 2.01 -0.68 1.02 0 0 Z " fill="#382921" transform="translate(1010,568)"/>
<path d="M0 0 C4.20390632 1.50139512 5.89110738 4.17275043 8 8 C7.67 8.99 7.34 9.98 7 11 C5.82750647 9.54634731 4.66216184 8.08692581 3.5 6.625 C2.52546875 5.40683594 2.52546875 5.40683594 1.53125 4.1640625 C0 2 0 2 0 0 Z " fill="#2E231F" transform="translate(476,541)"/>
<path d="M0 0 C0.66 0.33 1.32 0.66 2 1 C-0.31 3.97 -2.62 6.94 -5 10 C-5.99 9.67 -6.98 9.34 -8 9 C-5.36 6.03 -2.72 3.06 0 0 Z " fill="#EC754C" transform="translate(635,432)"/>
<path d="M0 0 C0.66 0.66 1.32 1.32 2 2 C1.9765625 5.2578125 1.9765625 5.2578125 1.625 9.125 C1.51414062 10.40632812 1.40328125 11.68765625 1.2890625 13.0078125 C1.19367187 13.99523437 1.09828125 14.98265625 1 16 C0.67 16 0.34 16 0 16 C-0.1958009 14.08416353 -0.38132214 12.16727461 -0.5625 10.25 C-0.66691406 9.18265625 -0.77132812 8.1153125 -0.87890625 7.015625 C-0.98560074 4.35858796 -0.81930395 2.50039428 0 0 Z " fill="#382A23" transform="translate(745,599)"/>
<path d="M0 0 C4.875 4.75 4.875 4.75 6 7 C5.01 8.485 5.01 8.485 4 10 C1.7448078 7.7448078 1.02276532 5.9952413 0 3 C0 2.01 0 1.02 0 0 Z " fill="#F0AE98" transform="translate(916,408)"/>
<path d="M0 0 C0 0.66 0 1.32 0 2 C-3.81679612 4.90803514 -7.39571066 6.68448876 -12 8 C-4.57142857 0 -4.57142857 0 0 0 Z " fill="#ECAD9E" transform="translate(863,331)"/>
<path d="M0 0 C1.98 0.495 1.98 0.495 4 1 C3.67 2.32 3.34 3.64 3 5 C1.68 4.67 0.36 4.34 -1 4 C-0.67 2.68 -0.34 1.36 0 0 Z " fill="#E7886C" transform="translate(676,699)"/>
<path d="M0 0 C0.66 0 1.32 0 2 0 C1.25 7.625 1.25 7.625 -1 11 C-1.125 3.375 -1.125 3.375 0 0 Z " fill="#332720" transform="translate(979,597)"/>
<path d="M0 0 C4.05224029 2.8475202 6.1869334 5.36660757 8 10 C7.67 10.66 7.34 11.32 7 12 C5.82767315 10.3790787 4.6622923 8.75313167 3.5 7.125 C2.8503125 6.22007812 2.200625 5.31515625 1.53125 4.3828125 C0 2 0 2 0 0 Z " fill="#291E18" transform="translate(1044,588)"/>
<path d="M0 0 C3.94139078 1.66751148 6.7892812 4.22710649 10 7 C9.01 7.495 9.01 7.495 8 8 C6.66102417 7.04956626 5.32894573 6.08940853 4 5.125 C3.2575 4.59132813 2.515 4.05765625 1.75 3.5078125 C1.1725 3.01023437 0.595 2.51265625 0 2 C0 1.34 0 0.68 0 0 Z " fill="#F0A287" transform="translate(895,390)"/>
<path d="M0 0 C-3.06246747 1.78409802 -5.22079273 2.22880021 -8.75 2.125 C-9.54921875 2.10695313 -10.3484375 2.08890625 -11.171875 2.0703125 C-11.77515625 2.04710937 -12.3784375 2.02390625 -13 2 C-9.02291084 -1.97708916 -5.28744325 -0.91513441 0 0 Z " fill="#F2B09A" transform="translate(921,332)"/>
<path d="M0 0 C3.37462715 0.54723683 5.08235 1.0549 8 3 C7.34 3 6.68 3 6 3 C6 3.66 6 4.32 6 5 C4.68 5 3.36 5 2 5 C2 3.68 2 2.36 2 1 C1.34 0.67 0.68 0.34 0 0 Z " fill="#54453B" transform="translate(921,569)"/>
<path d="M0 0 C2.3125 -0.25 2.3125 -0.25 5 0 C6.8125 2 6.8125 2 8 4 C4.48283697 4 3.62878252 3.17554415 1 1 C1 2.65 1 4.3 1 6 C0.67 6 0.34 6 0 6 C0 4.02 0 2.04 0 0 Z " fill="#EF9373" transform="translate(688,378)"/>
<path d="M0 0 C-2.97 2.475 -2.97 2.475 -6 5 C-6.66 4.67 -7.32 4.34 -8 4 C-7.67 2.68 -7.34 1.36 -7 0 C-2.25 -1.125 -2.25 -1.125 0 0 Z " fill="#EEAD99" transform="translate(839,349)"/>
<path d="M0 0 C0 0.66 0 1.32 0 2 C-3.21451269 3.60725635 -6.43612536 3.05748185 -10 3 C-7.02931146 0.02931146 -4.09966187 0 0 0 Z " fill="#2E2118" transform="translate(722,651)"/>
<path d="M0 0 C0.66 0 1.32 0 2 0 C3.0625 1.8125 3.0625 1.8125 4 4 C3.67 4.99 3.34 5.98 3 7 C1.68 6.01 0.36 5.02 -1 4 C-0.67 2.68 -0.34 1.36 0 0 Z " fill="#3B2D24" transform="translate(944,586)"/>
<path d="M0 0 C2.64752004 2.57784846 4.94432065 4.91648098 7 8 C6.01 8 5.02 8 4 8 C0 2.74285714 0 2.74285714 0 0 Z " fill="#342721" transform="translate(477,565)"/>
<path d="M0 0 C0.99 0.33 1.98 0.66 3 1 C3 2.32 3 3.64 3 5 C1.68 5 0.36 5 -1 5 C-0.67 3.35 -0.34 1.7 0 0 Z " fill="#E68265" transform="translate(846,699)"/>
<path d="M0 0 C0.99 0.495 0.99 0.495 2 1 C2.40729228 3.32156597 2.74438677 5.6568787 3 8 C2.01 8.495 2.01 8.495 1 9 C-0.4783226 6.04335481 -0.06032783 3.25770263 0 0 Z " fill="#30231D" transform="translate(833,599)"/>
<path d="M0 0 C0.33 0.99 0.66 1.98 1 3 C-1.97 5.475 -1.97 5.475 -5 8 C-4.45773019 4.20411134 -2.79872437 2.52788007 0 0 Z " fill="#3D312D" transform="translate(992,578)"/>
<path d="M0 0 C-0.99 0 -1.98 0 -3 0 C-3.33 0.99 -3.66 1.98 -4 3 C-5.98 3 -7.96 3 -10 3 C-9 1 -9 1 -6.6875 -0.1875 C-3.88010429 -1.03624754 -2.698065 -0.99928333 0 0 Z " fill="#594C44" transform="translate(776,570)"/>
<path d="M0 0 C0.66 0.66 1.32 1.32 2 2 C0.35 4.31 -1.3 6.62 -3 9 C-3.33 7.68 -3.66 6.36 -4 5 C-2.0625 2.25 -2.0625 2.25 0 0 Z " fill="#382D27" transform="translate(569,538)"/>
<path d="M0 0 C-0.99 0.66 -1.98 1.32 -3 2 C-2.67 2.66 -2.34 3.32 -2 4 C-4.31 3.67 -6.62 3.34 -9 3 C-7.14340032 -0.71319936 -3.69365381 -0.09982848 0 0 Z " fill="#E98262" transform="translate(710,481)"/>
<path d="M0 0 C0.66 0.33 1.32 0.66 2 1 C0.02 2.98 -1.96 4.96 -4 7 C-4.99 6.67 -5.98 6.34 -7 6 C-4.69 4.02 -2.38 2.04 0 0 Z " fill="#E58464" transform="translate(613,459)"/>
<path d="M0 0 C0.33 0.66 0.66 1.32 1 2 C-1.3125 2.625 -1.3125 2.625 -4 3 C-4.99 2.34 -5.98 1.68 -7 1 C-3.375 -1.125 -3.375 -1.125 0 0 Z " fill="#F1AF9C" transform="translate(906,336)"/>
<path d="M0 0 C0 3.99904969 -1.72586967 5.80200422 -4 9 C-4.33 8.01 -4.66 7.02 -5 6 C-3.59554165 3.7363436 -1.8032087 1.9791315 0 0 Z " fill="#302620" transform="translate(548,590)"/>
<path d="M0 0 C0 0.99 0 1.98 0 3 C-2.375 4.75 -2.375 4.75 -5 6 C-5.66 5.67 -6.32 5.34 -7 5 C-4.63707344 2.47411298 -3.33537489 1.11179163 0 0 Z " fill="#31231C" transform="translate(768,572)"/>
<path d="M0 0 C0.66 0.33 1.32 0.66 2 1 C-0.475 4.465 -0.475 4.465 -3 8 C-3.33 7.01 -3.66 6.02 -4 5 C-2.0625 2.3125 -2.0625 2.3125 0 0 Z " fill="#302620" transform="translate(554,559)"/>
<path d="M0 0 C0 3.51716303 -0.82445585 4.37121748 -3 7 C-3.99 6.67 -4.98 6.34 -6 6 C-2.25 1.125 -2.25 1.125 0 0 Z " fill="#3E322D" transform="translate(560,552)"/>
<path d="M0 0 C-2.75 1.625 -2.75 1.625 -6 3 C-8.375 2.1875 -8.375 2.1875 -10 1 C-3.71428571 -1.42857143 -3.71428571 -1.42857143 0 0 Z " fill="#E9724B" transform="translate(704,462)"/>
<path d="M0 0 C3.82946843 1.45255699 5.12050295 3.42895561 7 7 C6.01 7.495 6.01 7.495 5 8 C0 2.25 0 2.25 0 0 Z " fill="#F1A889" transform="translate(896,421)"/>
<path d="M0 0 C0 3 0 3 -1.375 4.6875 C-3 6 -3 6 -5 6 C-4.67 4.35 -4.34 2.7 -4 1 C-2.68 0.67 -1.36 0.34 0 0 Z " fill="#F0A183" transform="translate(808,407)"/>
<path d="M0 0 C0.66 0.33 1.32 0.66 2 1 C-3.75 6 -3.75 6 -6 6 C-5 3 -5 3 -2.5625 1.25 C-1.716875 0.8375 -0.87125 0.425 0 0 Z " fill="#F1A081" transform="translate(840,344)"/>
<path d="M0 0 C0.66 0.33 1.32 0.66 2 1 C-0.3125 3.5 -0.3125 3.5 -3 6 C-3.99 6 -4.98 6 -6 6 C-5.34 4.68 -4.68 3.36 -4 2 C-3.34 2 -2.68 2 -2 2 C-1.34 1.34 -0.68 0.68 0 0 Z " fill="#EA8663" transform="translate(580,304)"/>
</svg>
